RecursiveSans-StrictSemiBoldItalic.ufo
<glyph name="exclam" format="1">
  <advance width="350"/>
  <unicode hex="0021"/>
  <outline>
    <contour>
      <point x="220" y="273" type="line"/>
      <point x="248" y="349"/>
      <point x="276" y="426"/>
      <point x="305" y="502" type="curve"/>
      <point x="351" y="689" type="line" smooth="yes"/>
      <point x="353" y="696"/>
      <point x="350" y="700"/>
      <point x="344" y="700" type="curve" smooth="yes"/>
      <point x="289" y="700"/>
      <point x="246" y="700"/>
      <point x="212" y="700" type="curve"/>
      <point x="203" y="662"/>
      <point x="194" y="627"/>
      <point x="185" y="590" type="curve" smooth="yes"/>
      <point x="163" y="502" type="line"/>
      <point x="133" y="284"/>
      <point x="133" y="280"/>
      <point x="136" y="276" type="curve" smooth="yes"/>
      <point x="138" y="274"/>
      <point x="140" y="273"/>
      <point x="144" y="273" type="curve"/>
    </contour>
    <contour>
      <point x="193" y="-8" type="curve"/>
      <point x="233" y="153" type="line" smooth="yes"/>
      <point x="235" y="159"/>
      <point x="231" y="164"/>
      <point x="225" y="164" type="curve" smooth="yes"/>
      <point x="173" y="164"/>
      <point x="114" y="164"/>
      <point x="62" y="164" type="curve"/>
      <point x="22" y="3" type="line" smooth="yes"/>
      <point x="20" y="-3"/>
      <point x="24" y="-8"/>
      <point x="30" y="-8" type="curve" smooth="yes"/>
      <point x="82" y="-8"/>
      <point x="141" y="-8"/>
    </contour>
  </outline>
</glyph>
<glyph name="numbersign" format="1">
  <advance width="600"/>
  <unicode hex="0023"/>
  <outline>
    <contour>
      <point x="328" y="720" type="curve"/>
      <point x="218" y="474"/>
      <point x="106" y="226"/>
      <point x="-5" y="-20" type="curve"/>
      <point x="22" y="-20"/>
      <point x="50" y="-20"/>
      <point x="77" y="-20" type="curve"/>
      <point x="84" y="-20"/>
      <point x="90" y="-19"/>
      <point x="94" y="-9" type="curve" smooth="yes"/>
      <point x="202" y="230"/>
      <point x="311" y="470"/>
      <point x="418" y="709" type="curve" smooth="yes"/>
      <point x="422" y="718"/>
      <point x="418" y="720"/>
      <point x="411" y="720" type="curve" smooth="yes"/>
      <point x="385" y="720"/>
      <point x="355" y="720"/>
    </contour>
    <contour>
      <point x="552" y="720" type="curve"/>
      <point x="442" y="474"/>
      <point x="330" y="226"/>
      <point x="219" y="-20" type="curve"/>
      <point x="245" y="-20"/>
      <point x="275" y="-20"/>
      <point x="301" y="-20" type="curve"/>
      <point x="308" y="-20"/>
      <point x="314" y="-19"/>
      <point x="318" y="-9" type="curve" smooth="yes"/>
      <point x="426" y="230"/>
      <point x="535" y="470"/>
      <point x="642" y="709" type="curve" smooth="yes"/>
      <point x="646" y="718"/>
      <point x="642" y="720"/>
      <point x="635" y="720" type="curve" smooth="yes"/>
      <point x="609" y="720"/>
      <point x="578" y="720"/>
    </contour>
    <contour>
      <point x="624" y="440" type="line"/>
      <point x="628" y="453"/>
      <point x="642" y="509"/>
      <point x="645" y="522" type="curve" smooth="yes"/>
      <point x="646" y="525"/>
      <point x="645" y="528"/>
      <point x="644" y="530" type="curve" smooth="yes"/>
      <point x="642" y="532"/>
      <point x="640" y="533"/>
      <point x="637" y="533" type="curve"/>
      <point x="128" y="533" type="line"/>
      <point x="124" y="520"/>
      <point x="110" y="464"/>
      <point x="107" y="451" type="curve" smooth="yes"/>
      <point x="106" y="445"/>
      <point x="109" y="440"/>
      <point x="115" y="440" type="curve"/>
    </contour>
    <contour>
      <point x="18" y="253" type="line"/>
      <point x="14" y="240"/>
      <point x="2" y="191"/>
      <point x="-1" y="178" type="curve" smooth="yes"/>
      <point x="-2" y="175"/>
      <point x="-2" y="172"/>
      <point x="0" y="170" type="curve" smooth="yes"/>
      <point x="1" y="168"/>
      <point x="4" y="167"/>
      <point x="7" y="167" type="curve"/>
      <point x="516" y="167" type="line"/>
      <point x="519" y="180"/>
      <point x="532" y="229"/>
      <point x="535" y="242" type="curve" smooth="yes"/>
      <point x="536" y="248"/>
      <point x="533" y="253"/>
      <point x="527" y="253" type="curve"/>
    </contour>
  </outline>
</glyph>
<glyph name="quotesingle" format="1">
  <advance width="250"/>
  <unicode hex="0027"/>
  <outline>
    <contour>
      <point x="225" y="450" type="curve"/>
      <point x="320" y="737" type="line" smooth="yes"/>
      <point x="323" y="746"/>
      <point x="319" y="750"/>
      <point x="313" y="750" type="curve" smooth="yes"/>
      <point x="269" y="750"/>
      <point x="221" y="750"/>
      <point x="168" y="750" type="curve"/>
      <point x="162" y="714"/>
      <point x="156" y="683"/>
      <point x="151" y="648" type="curve" smooth="yes"/>
      <point x="119" y="461" type="line" smooth="yes"/>
      <point x="118" y="454"/>
      <point x="122" y="450"/>
      <point x="128" y="450" type="curve" smooth="yes"/>
      <point x="161" y="450"/>
      <point x="192" y="450"/>
    </contour>
  </outline>
</glyph>
<glyph name="parenleft" format="1">
  <advance width="400"/>
  <unicode hex="0028"/>
  <outline>
    <contour>
      <point x="376" y="745" type="curve" smooth="yes"/>
      <point x="230" y="629"/>
      <point x="139" y="485"/>
      <point x="97" y="316" type="curve" smooth="yes"/>
      <point x="95" y="308" type="line" smooth="yes"/>
      <point x="53" y="138"/>
      <point x="72" y="-5"/>
      <point x="159" y="-121" type="curve" smooth="yes"/>
      <point x="164" y="-128"/>
      <point x="170" y="-129"/>
      <point x="177" y="-129" type="curve" smooth="yes"/>
      <point x="219" y="-129"/>
      <point x="252" y="-129"/>
      <point x="297" y="-129" type="curve"/>
      <point x="301" y="-112" type="line"/>
      <point x="203" y="6"/>
      <point x="173" y="146"/>
      <point x="214" y="308" type="curve" smooth="yes"/>
      <point x="216" y="316" type="line" smooth="yes"/>
      <point x="256" y="478"/>
      <point x="356" y="618"/>
      <point x="514" y="736" type="curve"/>
      <point x="518" y="753" type="line"/>
      <point x="473" y="753"/>
      <point x="440" y="753"/>
      <point x="398" y="753" type="curve" smooth="yes"/>
      <point x="391" y="753"/>
      <point x="385" y="752"/>
    </contour>
  </outline>
</glyph>
<glyph name="parenright" format="1">
  <advance width="400"/>
  <unicode hex="0029"/>
  <outline>
    <contour>
      <point x="46" y="-121" type="curve" smooth="yes"/>
      <point x="192" y="-5"/>
      <point x="283" y="138"/>
      <point x="325" y="308" type="curve" smooth="yes"/>
      <point x="327" y="316" type="line" smooth="yes"/>
      <point x="370" y="485"/>
      <point x="350" y="629"/>
      <point x="263" y="745" type="curve" smooth="yes"/>
      <point x="258" y="752"/>
      <point x="252" y="753"/>
      <point x="245" y="753" type="curve" smooth="yes"/>
      <point x="203" y="753"/>
      <point x="170" y="753"/>
      <point x="125" y="753" type="curve"/>
      <point x="121" y="736" type="line"/>
      <point x="220" y="618"/>
      <point x="249" y="478"/>
      <point x="208" y="316" type="curve" smooth="yes"/>
      <point x="206" y="308" type="line" smooth="yes"/>
      <point x="166" y="146"/>
      <point x="67" y="6"/>
      <point x="-91" y="-112" type="curve"/>
      <point x="-96" y="-129" type="line"/>
      <point x="-50" y="-129"/>
      <point x="-18" y="-129"/>
      <point x="24" y="-129" type="curve" smooth="yes"/>
      <point x="31" y="-129"/>
      <point x="38" y="-128"/>
    </contour>
  </outline>
</glyph>
<glyph name="asterisk" format="1">
  <advance width="500"/>
  <unicode hex="002A"/>
  <outline>
    <contour>
      <point x="329" y="769" type="curve"/>
      <point x="327" y="742"/>
      <point x="325" y="715"/>
      <point x="323" y="686" type="curve" smooth="yes"/>
      <point x="311" y="562" type="line"/>
      <point x="229" y="363" type="line" smooth="yes"/>
      <point x="227" y="358"/>
      <point x="228" y="355"/>
      <point x="234" y="355" type="curve"/>
      <point x="262" y="355"/>
      <point x="290" y="355"/>
      <point x="319" y="355" type="curve"/>
      <point x="321" y="383"/>
      <point x="323" y="410"/>
      <point x="325" y="437" type="curve" smooth="yes"/>
      <point x="337" y="562" type="line"/>
      <point x="419" y="761" type="line" smooth="yes"/>
      <point x="421" y="766"/>
      <point x="420" y="769"/>
      <point x="414" y="769" type="curve" smooth="yes"/>
      <point x="387" y="769"/>
      <point x="358" y="769"/>
    </contour>
    <contour>
      <point x="516" y="706" type="curve"/>
      <point x="321" y="574" type="line"/>
      <point x="114" y="503" type="line" smooth="yes"/>
      <point x="109" y="501"/>
      <point x="106" y="497"/>
      <point x="108" y="491" type="curve"/>
      <point x="116" y="466"/>
      <point x="124" y="443"/>
      <point x="132" y="419" type="curve"/>
      <point x="328" y="551" type="line"/>
      <point x="533" y="622" type="line" smooth="yes"/>
      <point x="539" y="624"/>
      <point x="542" y="628"/>
      <point x="540" y="634" type="curve" smooth="yes"/>
      <point x="532" y="657"/>
      <point x="523" y="681"/>
    </contour>
    <contour>
      <point x="510" y="499" type="curve"/>
      <point x="334" y="574" type="line"/>
      <point x="210" y="702" type="line" smooth="yes"/>
      <point x="207" y="705"/>
      <point x="202" y="704"/>
      <point x="197" y="699" type="curve"/>
      <point x="177" y="674"/>
      <point x="157" y="650"/>
      <point x="137" y="626" type="curve"/>
      <point x="315" y="551" type="line"/>
      <point x="438" y="424" type="line" smooth="yes"/>
      <point x="442" y="420"/>
      <point x="447" y="421"/>
      <point x="451" y="427" type="curve"/>
      <point x="471" y="451"/>
      <point x="491" y="475"/>
    </contour>
  </outline>
</glyph>
<glyph name="plus" format="1">
  <advance width="600"/>
  <unicode hex="002B"/>
  <outline>
    <contour>
      <point x="88" y="357" type="line"/>
      <point x="79" y="323"/>
      <point x="71" y="288"/>
      <point x="62" y="254" type="curve" smooth="yes"/>
      <point x="61" y="251"/>
      <point x="62" y="248"/>
      <point x="63" y="246" type="curve" smooth="yes"/>
      <point x="65" y="244"/>
      <point x="67" y="243"/>
      <point x="70" y="243" type="curve"/>
      <point x="528" y="243" type="line"/>
      <point x="537" y="277"/>
      <point x="545" y="312"/>
      <point x="554" y="346" type="curve" smooth="yes"/>
      <point x="556" y="352"/>
      <point x="552" y="357"/>
      <point x="546" y="357" type="curve"/>
    </contour>
    <contour>
      <point x="308" y="66" type="curve"/>
      <point x="422" y="523" type="line" smooth="yes"/>
      <point x="422" y="526"/>
      <point x="422" y="529"/>
      <point x="421" y="531" type="curve" smooth="yes"/>
      <point x="419" y="533"/>
      <point x="416" y="534"/>
      <point x="413" y="534" type="curve" smooth="yes"/>
      <point x="379" y="534"/>
      <point x="349" y="534"/>
      <point x="309" y="534" type="curve"/>
      <point x="303" y="510"/>
      <point x="294" y="475"/>
      <point x="284" y="435" type="curve" smooth="yes"/>
      <point x="195" y="77" type="line" smooth="yes"/>
      <point x="193" y="71"/>
      <point x="197" y="66"/>
      <point x="203" y="66" type="curve" smooth="yes"/>
      <point x="240" y="66"/>
      <point x="270" y="66"/>
    </contour>
  </outline>
</glyph>
<glyph name="comma" format="1">
  <advance width="350"/>
  <unicode hex="002C"/>
  <outline>
    <contour>
      <point x="48" y="-190" type="curve" smooth="yes"/>
      <point x="53" y="-190"/>
      <point x="57" y="-189"/>
      <point x="61" y="-183" type="curve"/>
      <point x="127" y="-79"/>
      <point x="202" y="37"/>
      <point x="260" y="125" type="curve"/>
      <point x="265" y="133"/>
      <point x="263" y="138"/>
      <point x="255" y="138" type="curve" smooth="yes"/>
      <point x="196" y="138"/>
      <point x="162" y="138"/>
      <point x="93" y="138" type="curve"/>
      <point x="42" y="29"/>
      <point x="-10" y="-81"/>
      <point x="-61" y="-190" type="curve"/>
      <point x="-32" y="-190"/>
      <point x="1" y="-190"/>
    </contour>
  </outline>
</glyph>
<glyph name="hyphen" format="1">
  <advance width="600"/>
  <unicode hex="002D"/>
  <outline>
    <contour>
      <point x="137" y="355" type="line"/>
      <point x="129" y="321"/>
      <point x="121" y="290"/>
      <point x="112" y="255" type="curve" smooth="yes"/>
      <point x="112" y="252"/>
      <point x="112" y="249"/>
      <point x="113" y="247" type="curve" smooth="yes"/>
      <point x="115" y="245"/>
      <point x="118" y="244"/>
      <point x="121" y="244" type="curve"/>
      <point x="479" y="244" type="line"/>
      <point x="487" y="279"/>
      <point x="495" y="310"/>
      <point x="504" y="344" type="curve" smooth="yes"/>
      <point x="505" y="350"/>
      <point x="501" y="355"/>
      <point x="495" y="355" type="curve"/>
    </contour>
  </outline>
</glyph>
<glyph name="period" format="1">
  <advance width="300"/>
  <unicode hex="002E"/>
  <outline>
    <contour>
      <point x="168" y="-8" type="curve"/>
      <point x="208" y="153" type="line" smooth="yes"/>
      <point x="210" y="159"/>
      <point x="206" y="164"/>
      <point x="200" y="164" type="curve" smooth="yes"/>
      <point x="148" y="164"/>
      <point x="89" y="164"/>
      <point x="37" y="164" type="curve"/>
      <point x="-3" y="3" type="line" smooth="yes"/>
      <point x="-5" y="-3"/>
      <point x="-1" y="-8"/>
      <point x="5" y="-8" type="curve" smooth="yes"/>
      <point x="57" y="-8"/>
      <point x="116" y="-8"/>
    </contour>
  </outline>
</glyph>
<glyph name="zero" format="1">
  <advance width="600"/>
  <unicode hex="0030"/>
  <outline>
    <contour>
      <point x="394" y="720" type="curve" smooth="yes"/>
      <point x="256" y="720"/>
      <point x="152" y="641"/>
      <point x="108" y="467" type="curve" smooth="yes"/>
      <point x="60" y="271" type="line" smooth="yes"/>
      <point x="15" y="89"/>
      <point x="106" y="-20"/>
      <point x="246" y="-20" type="curve"/>
      <point x="249" y="-20"/>
      <point x="258" y="-8"/>
      <point x="260" y="84" type="curve"/>
      <point x="183" y="84"/>
      <point x="142" y="137"/>
      <point x="175" y="267" type="curve" smooth="yes"/>
      <point x="222" y="459" type="line" smooth="yes"/>
      <point x="250" y="576"/>
      <point x="305" y="616"/>
      <point x="379" y="616" type="curve" smooth="yes"/>
      <point x="423" y="616"/>
      <point x="465" y="616"/>
      <point x="493" y="616" type="curve"/>
      <point x="508" y="677"/>
      <point x="470" y="720"/>
    </contour>
    <contour>
      <point x="246" y="-20" type="curve" smooth="yes"/>
      <point x="383" y="-20"/>
      <point x="487" y="57"/>
      <point x="530" y="231" type="curve" smooth="yes"/>
      <point x="580" y="429" type="line" smooth="yes"/>
      <point x="625" y="611"/>
      <point x="534" y="720"/>
      <point x="394" y="720" type="curve"/>
      <point x="391" y="720"/>
      <point x="381" y="708"/>
      <point x="379" y="616" type="curve"/>
      <point x="457" y="616"/>
      <point x="497" y="563"/>
      <point x="465" y="433" type="curve" smooth="yes"/>
      <point x="418" y="241" type="line" smooth="yes"/>
      <point x="389" y="124"/>
      <point x="334" y="84"/>
      <point x="251" y="84" type="curve" smooth="yes"/>
      <point x="200" y="84"/>
      <point x="174" y="84"/>
      <point x="147" y="84" type="curve"/>
      <point x="132" y="23"/>
      <point x="170" y="-20"/>
    </contour>
  </outline>
</glyph>
<glyph name="one" format="1">
  <advance width="600"/>
  <unicode hex="0031"/>
  <outline>
    <contour>
      <point x="333" y="30" type="curve"/>
      <point x="389" y="253"/>
      <point x="445" y="477"/>
      <point x="501" y="699" type="curve" smooth="yes"/>
      <point x="502" y="705"/>
      <point x="499" y="710"/>
      <point x="493" y="710" type="curve" smooth="yes"/>
      <point x="388" y="710" type="line"/>
      <point x="335" y="500"/>
      <point x="281" y="284"/>
      <point x="228" y="73" type="curve" smooth="yes"/>
      <point x="220" y="39"/>
      <point x="267" y="30"/>
    </contour>
    <contour>
      <point x="42" y="105" type="line"/>
      <point x="35" y="74"/>
      <point x="28" y="47"/>
      <point x="19" y="11" type="curve" smooth="yes"/>
      <point x="18" y="7"/>
      <point x="18" y="5"/>
      <point x="20" y="3" type="curve" smooth="yes"/>
      <point x="21" y="1"/>
      <point x="23" y="0"/>
      <point x="27" y="0" type="curve" smooth="yes"/>
      <point x="479" y="0" type="line"/>
      <point x="486" y="28"/>
      <point x="494" y="58"/>
      <point x="503" y="94" type="curve" smooth="yes"/>
      <point x="505" y="102"/>
      <point x="502" y="105"/>
      <point x="494" y="105" type="curve" smooth="yes"/>
    </contour>
    <contour>
      <point x="148" y="440" type="curve" smooth="yes"/>
      <point x="155" y="440"/>
      <point x="160" y="442"/>
      <point x="389" y="594" type="curve" smooth="yes"/>
      <point x="424" y="615"/>
      <point x="458" y="638"/>
      <point x="460" y="644" type="curve" smooth="yes"/>
      <point x="466" y="670"/>
      <point x="463" y="710"/>
      <point x="399" y="710" type="curve"/>
      <point x="378" y="710" type="line"/>
      <point x="344" y="688"/>
      <point x="311" y="666"/>
      <point x="278" y="644" type="curve"/>
      <point x="244" y="622"/>
      <point x="210" y="599"/>
      <point x="177" y="577" type="curve"/>
      <point x="144" y="448" type="line" smooth="yes"/>
      <point x="142" y="442"/>
      <point x="144" y="440"/>
    </contour>
  </outline>
</glyph>
<glyph name="two" format="1">
  <advance width="600"/>
  <unicode hex="0032"/>
  <outline>
    <contour>
      <point x="494" y="597" type="curve"/>
      <point x="487" y="571"/>
      <point x="484" y="555"/>
      <point x="474" y="517" type="curve" smooth="yes"/>
      <point x="462" y="472"/>
      <point x="438" y="450"/>
      <point x="299" y="373" type="curve" smooth="yes"/>
      <point x="118" y="272"/>
      <point x="45" y="195"/>
      <point x="17" y="84" type="curve" smooth="yes"/>
      <point x="14" y="71"/>
      <point x="46" y="70"/>
      <point x="131" y="70" type="curve"/>
      <point x="155" y="166"/>
      <point x="185" y="195"/>
      <point x="340" y="282" type="curve" smooth="yes"/>
      <point x="502" y="371"/>
      <point x="564" y="416"/>
      <point x="587" y="508" type="curve" smooth="yes"/>
      <point x="595" y="538" type="line" smooth="yes"/>
      <point x="602" y="568"/>
      <point x="576" y="597"/>
    </contour>
    <contour>
      <point x="476" y="0" type="line"/>
      <point x="483" y="28"/>
      <point x="490" y="58"/>
      <point x="500" y="94" type="curve" smooth="yes"/>
      <point x="502" y="102"/>
      <point x="498" y="105"/>
      <point x="491" y="105" type="curve" smooth="yes"/>
      <point x="121" y="105" type="line" smooth="yes"/>
      <point x="88" y="105"/>
      <point x="51" y="101"/>
      <point x="17" y="84" type="curve"/>
      <point x="11" y="59"/>
      <point x="8" y="46"/>
      <point x="-1" y="11" type="curve" smooth="yes"/>
      <point x="-3" y="4"/>
      <point x="0" y="0"/>
      <point x="7" y="0" type="curve" smooth="yes"/>
    </contour>
    <contour>
      <point x="404" y="720" type="curve" smooth="yes"/>
      <point x="298" y="720"/>
      <point x="218" y="691"/>
      <point x="185" y="665" type="curve" smooth="yes"/>
      <point x="182" y="662"/>
      <point x="180" y="659"/>
      <point x="179" y="655" type="curve" smooth="yes"/>
      <point x="168" y="611"/>
      <point x="160" y="582"/>
      <point x="153" y="553" type="curve"/>
      <point x="170" y="553" type="line"/>
      <point x="239" y="592"/>
      <point x="305" y="609"/>
      <point x="384" y="609" type="curve" smooth="yes"/>
      <point x="461" y="609"/>
      <point x="490" y="582"/>
      <point x="478" y="535" type="curve" smooth="yes"/>
      <point x="472" y="508"/>
      <point x="467" y="488"/>
      <point x="462" y="471" type="curve"/>
      <point x="539" y="472"/>
      <point x="585" y="499"/>
      <point x="595" y="538" type="curve" smooth="yes"/>
      <point x="621" y="643"/>
      <point x="549" y="720"/>
    </contour>
  </outline>
</glyph>
<glyph name="three" format="1">
  <advance width="600"/>
  <unicode hex="0033"/>
  <outline>
    <contour>
      <point x="365" y="609" type="curve" smooth="yes"/>
      <point x="466" y="609"/>
      <point x="490" y="570"/>
      <point x="478" y="521" type="curve" smooth="yes"/>
      <point x="472" y="495"/>
      <point x="467" y="479"/>
      <point x="462" y="457" type="curve"/>
      <point x="523" y="457"/>
      <point x="580" y="465"/>
      <point x="592" y="515" type="curve" smooth="yes"/>
      <point x="599" y="541" type="line" smooth="yes"/>
      <point x="623" y="636"/>
      <point x="546" y="720"/>
      <point x="397" y="720" type="curve" smooth="yes"/>
      <point x="295" y="720"/>
      <point x="207" y="696"/>
      <point x="182" y="676" type="curve" smooth="yes"/>
      <point x="180" y="674"/>
      <point x="179" y="672"/>
      <point x="178" y="669" type="curve" smooth="yes"/>
      <point x="168" y="628"/>
      <point x="159" y="594"/>
      <point x="153" y="569" type="curve"/>
      <point x="170" y="569" type="line"/>
      <point x="235" y="597"/>
      <point x="284" y="609"/>
    </contour>
    <contour>
      <point x="187" y="339" type="curve" smooth="yes"/>
      <point x="405" y="339"/>
      <point x="558" y="376"/>
      <point x="592" y="515" type="curve" smooth="yes"/>
      <point x="600" y="545"/>
      <point x="551" y="588"/>
      <point x="495" y="588" type="curve"/>
      <point x="488" y="563"/>
      <point x="482" y="539"/>
      <point x="477" y="517" type="curve" smooth="yes"/>
      <point x="461" y="454"/>
      <point x="404" y="409"/>
      <point x="193" y="409" type="curve"/>
      <point x="189" y="392"/>
      <point x="183" y="367"/>
      <point x="179" y="350" type="curve" smooth="yes"/>
      <point x="177" y="344"/>
      <point x="181" y="339"/>
    </contour>
    <contour>
      <point x="178" y="305" type="curve" smooth="yes"/>
      <point x="368" y="305"/>
      <point x="424" y="269"/>
      <point x="406" y="195" type="curve" smooth="yes"/>
      <point x="400" y="171"/>
      <point x="397" y="158"/>
      <point x="389" y="126" type="curve"/>
      <point x="459" y="126"/>
      <point x="510" y="144"/>
      <point x="522" y="193" type="curve" smooth="yes"/>
      <point x="553" y="316"/>
      <point x="430" y="377"/>
      <point x="186" y="377" type="curve"/>
      <point x="180" y="357"/>
      <point x="175" y="335"/>
      <point x="170" y="316" type="curve" smooth="yes"/>
      <point x="168" y="309"/>
      <point x="171" y="305"/>
    </contour>
    <contour>
      <point x="232" y="91" type="curve" smooth="yes"/>
      <point x="147" y="91"/>
      <point x="103" y="103"/>
      <point x="45" y="135" type="curve"/>
      <point x="28" y="135" type="line"/>
      <point x="21" y="107"/>
      <point x="14" y="78"/>
      <point x="3" y="36" type="curve" smooth="yes"/>
      <point x="2" y="33"/>
      <point x="2" y="31"/>
      <point x="3" y="29" type="curve" smooth="yes"/>
      <point x="19" y="9"/>
      <point x="102" y="-20"/>
      <point x="214" y="-20" type="curve" smooth="yes"/>
      <point x="381" y="-20"/>
      <point x="485" y="45"/>
      <point x="514" y="160" type="curve" smooth="yes"/>
      <point x="522" y="193" type="line" smooth="yes"/>
      <point x="532" y="231"/>
      <point x="482" y="259"/>
      <point x="422" y="259" type="curve"/>
      <point x="416" y="233"/>
      <point x="411" y="216"/>
      <point x="405" y="191" type="curve" smooth="yes"/>
      <point x="392" y="136"/>
      <point x="343" y="91"/>
    </contour>
  </outline>
</glyph>
<glyph name="four" format="1">
  <advance width="600"/>
  <unicode hex="0034"/>
  <outline>
    <contour>
      <point x="138" y="217" type="curve"/>
      <point x="275" y="373"/>
      <point x="413" y="529"/>
      <point x="550" y="684" type="curve"/>
      <point x="554" y="700" type="line"/>
      <point x="489" y="700"/>
      <point x="446" y="700"/>
      <point x="436" y="700" type="curve" smooth="yes"/>
      <point x="431" y="700"/>
      <point x="424" y="699"/>
      <point x="417" y="691" type="curve" smooth="yes"/>
      <point x="251" y="500"/>
      <point x="41" y="254"/>
      <point x="40" y="247" type="curve" smooth="yes"/>
      <point x="34" y="226"/>
      <point x="95" y="217"/>
    </contour>
    <contour>
      <point x="531" y="151" type="line"/>
      <point x="539" y="184"/>
      <point x="546" y="213"/>
      <point x="554" y="246" type="curve" smooth="yes"/>
      <point x="556" y="252"/>
      <point x="552" y="257"/>
      <point x="546" y="257" type="curve" smooth="yes"/>
      <point x="386" y="257" type="line"/>
      <point x="340" y="257"/>
      <point x="182" y="252"/>
      <point x="40" y="247" type="curve"/>
      <point x="18" y="162" type="line" smooth="yes"/>
      <point x="18" y="159"/>
      <point x="18" y="156"/>
      <point x="19" y="154" type="curve" smooth="yes"/>
      <point x="21" y="152"/>
      <point x="24" y="151"/>
      <point x="27" y="151" type="curve" smooth="yes"/>
    </contour>
    <contour>
      <point x="422" y="0" type="curve"/>
      <point x="430" y="30"/>
      <point x="439" y="64"/>
      <point x="447" y="99" type="curve" smooth="yes"/>
      <point x="517" y="379" type="line" smooth="yes"/>
      <point x="519" y="386"/>
      <point x="516" y="390"/>
      <point x="509" y="390" type="curve" smooth="yes"/>
      <point x="425" y="390" type="line"/>
      <point x="406" y="340"/>
      <point x="387" y="291"/>
      <point x="367" y="242" type="curve"/>
      <point x="310" y="11" type="line" smooth="yes"/>
      <point x="308" y="5"/>
      <point x="312" y="0"/>
      <point x="318" y="0" type="curve" smooth="yes"/>
      <point x="352" y="0"/>
      <point x="388" y="0"/>
    </contour>
  </outline>
</glyph>
<glyph name="six" format="1">
  <advance width="600"/>
  <unicode hex="0036"/>
  <outline>
    <contour>
      <point x="154" y="83" type="curve"/>
      <point x="134" y="3"/>
      <point x="202" y="-21"/>
      <point x="264" y="-21" type="curve"/>
      <point x="426" y="-21"/>
      <point x="490" y="55"/>
      <point x="520" y="175" type="curve" smooth="yes"/>
      <point x="536" y="236" type="line" smooth="yes"/>
      <point x="546" y="278"/>
      <point x="499" y="307"/>
      <point x="440" y="307" type="curve"/>
      <point x="433" y="277"/>
      <point x="429" y="261"/>
      <point x="420" y="228" type="curve" smooth="yes"/>
      <point x="410" y="191" type="line" smooth="yes"/>
      <point x="392" y="122"/>
      <point x="354" y="83"/>
      <point x="270" y="83" type="curve" smooth="yes"/>
      <point x="223" y="83"/>
      <point x="180" y="83"/>
    </contour>
    <contour>
      <point x="321" y="611" type="curve"/>
      <point x="354" y="611"/>
      <point x="373" y="611"/>
      <point x="418" y="611" type="curve" smooth="yes"/>
      <point x="489" y="611"/>
      <point x="525" y="597"/>
      <point x="570" y="569" type="curve"/>
      <point x="587" y="569" type="line"/>
      <point x="594" y="598"/>
      <point x="601" y="625"/>
      <point x="611" y="667" type="curve" smooth="yes"/>
      <point x="612" y="671"/>
      <point x="612" y="674"/>
      <point x="610" y="676" type="curve" smooth="yes"/>
      <point x="596" y="693"/>
      <point x="522" y="720"/>
      <point x="444" y="720" type="curve" smooth="yes"/>
      <point x="347" y="720"/>
      <point x="335" y="667"/>
    </contour>
    <contour>
      <point x="99" y="427" type="curve" smooth="yes"/>
      <point x="63" y="281" type="line" smooth="yes"/>
      <point x="16" y="92"/>
      <point x="102" y="-21"/>
      <point x="264" y="-21" type="curve" smooth="yes"/>
      <point x="276" y="-21"/>
      <point x="275" y="-5"/>
      <point x="270" y="83" type="curve"/>
      <point x="182" y="83"/>
      <point x="145" y="140"/>
      <point x="175" y="263" type="curve" smooth="yes"/>
      <point x="214" y="415" type="line" smooth="yes"/>
      <point x="247" y="549"/>
      <point x="310" y="611"/>
      <point x="418" y="611" type="curve"/>
      <point x="479" y="706"/>
      <point x="459" y="720"/>
      <point x="444" y="720" type="curve" smooth="yes"/>
      <point x="301" y="720"/>
      <point x="159" y="670"/>
    </contour>
    <contour>
      <point x="381" y="436" type="curve" smooth="yes"/>
      <point x="313" y="436"/>
      <point x="246" y="409"/>
      <point x="203" y="375" type="curve" smooth="yes"/>
      <point x="190" y="365"/>
      <point x="183" y="351"/>
      <point x="165" y="282" type="curve"/>
      <point x="220" y="321"/>
      <point x="273" y="337"/>
      <point x="328" y="337" type="curve" smooth="yes"/>
      <point x="411" y="337"/>
      <point x="437" y="293"/>
      <point x="420" y="228" type="curve" smooth="yes"/>
      <point x="416" y="214"/>
      <point x="412" y="199"/>
      <point x="410" y="190" type="curve"/>
      <point x="507" y="192"/>
      <point x="532" y="218"/>
      <point x="536" y="236" type="curve" smooth="yes"/>
      <point x="565" y="354"/>
      <point x="498" y="436"/>
    </contour>
  </outline>
</glyph>
<glyph name="seven" format="1">
  <advance width="600"/>
  <unicode hex="0037"/>
  <outline>
    <contour>
      <point x="544" y="596" type="line" smooth="yes"/>
      <point x="573" y="596"/>
      <point x="603" y="598"/>
      <point x="633" y="602" type="curve"/>
      <point x="655" y="689" type="line"/>
      <point x="657" y="695"/>
      <point x="653" y="700"/>
      <point x="647" y="700" type="curve"/>
      <point x="168" y="700" type="line"/>
      <point x="156" y="655" type="line" smooth="yes"/>
      <point x="146" y="612"/>
      <point x="156" y="596"/>
      <point x="176" y="596" type="curve" smooth="yes"/>
    </contour>
    <contour>
      <point x="241" y="0" type="line"/>
      <point x="481" y="369"/>
      <point x="631" y="594"/>
      <point x="633" y="602" type="curve" smooth="yes"/>
      <point x="641" y="633"/>
      <point x="601" y="640"/>
      <point x="529" y="639" type="curve"/>
      <point x="271" y="249"/>
      <point x="120" y="22"/>
      <point x="118" y="11" type="curve" smooth="yes"/>
      <point x="116" y="5"/>
      <point x="120" y="0"/>
      <point x="126" y="0" type="curve" smooth="yes"/>
    </contour>
    <contour>
      <point x="232" y="490" type="curve"/>
      <point x="243" y="539"/>
      <point x="263" y="616"/>
      <point x="275" y="666" type="curve"/>
      <point x="281" y="691"/>
      <point x="255" y="700"/>
      <point x="180" y="700" type="curve" smooth="yes"/>
      <point x="168" y="700" type="line"/>
      <point x="154" y="644"/>
      <point x="132" y="556"/>
      <point x="118" y="501" type="curve"/>
      <point x="117" y="495"/>
      <point x="121" y="490"/>
      <point x="127" y="490" type="curve" smooth="yes"/>
      <point x="162" y="490"/>
      <point x="197" y="490"/>
    </contour>
  </outline>
</glyph>
<glyph name="eight" format="1">
  <advance width="600"/>
  <unicode hex="0038"/>
  <outline>
    <contour>
      <point x="403" y="365" type="curve" smooth="yes"/>
      <point x="300" y="406" type="line" smooth="yes"/>
      <point x="247" y="427"/>
      <point x="231" y="469"/>
      <point x="243" y="514" type="curve" smooth="yes"/>
      <point x="248" y="534"/>
      <point x="253" y="555"/>
      <point x="260" y="585" type="curve"/>
      <point x="202" y="584"/>
      <point x="146" y="568"/>
      <point x="135" y="522" type="curve" smooth="yes"/>
      <point x="113" y="433"/>
      <point x="144" y="368"/>
      <point x="254" y="324" type="curve" smooth="yes"/>
      <point x="352" y="283" type="line" smooth="yes"/>
      <point x="410" y="259"/>
      <point x="424" y="226"/>
      <point x="414" y="182" type="curve" smooth="yes"/>
      <point x="402" y="136"/>
      <point x="399" y="123"/>
      <point x="393" y="103" type="curve"/>
      <point x="452" y="105"/>
      <point x="511" y="136"/>
      <point x="523" y="181" type="curve"/>
      <point x="542" y="260"/>
      <point x="506" y="324"/>
    </contour>
    <contour>
      <point x="239" y="-20" type="curve" smooth="yes"/>
      <point x="418" y="-20"/>
      <point x="491" y="56"/>
      <point x="514" y="149" type="curve" smooth="yes"/>
      <point x="523" y="181" type="line" smooth="yes"/>
      <point x="531" y="215"/>
      <point x="492" y="242"/>
      <point x="429" y="245" type="curve"/>
      <point x="428" y="238"/>
      <point x="421" y="212"/>
      <point x="411" y="171" type="curve" smooth="yes"/>
      <point x="398" y="119"/>
      <point x="348" y="84"/>
      <point x="257" y="84" type="curve" smooth="yes"/>
      <point x="203" y="84"/>
      <point x="173" y="84"/>
      <point x="143" y="84" type="curve"/>
      <point x="130" y="30"/>
      <point x="179" y="-20"/>
    </contour>
    <contour>
      <point x="409" y="720" type="curve" smooth="yes"/>
      <point x="267" y="720"/>
      <point x="169" y="653"/>
      <point x="142" y="550" type="curve" smooth="yes"/>
      <point x="135" y="522" type="line" smooth="yes"/>
      <point x="125" y="482"/>
      <point x="150" y="449"/>
      <point x="227" y="449" type="curve"/>
      <point x="231" y="469"/>
      <point x="237" y="491"/>
      <point x="246" y="528" type="curve" smooth="yes"/>
      <point x="259" y="581"/>
      <point x="308" y="616"/>
      <point x="382" y="616" type="curve" smooth="yes"/>
      <point x="442" y="616"/>
      <point x="469" y="616"/>
      <point x="497" y="616" type="curve"/>
      <point x="514" y="682"/>
      <point x="474" y="720"/>
    </contour>
    <contour>
      <point x="387" y="347" type="curve" smooth="yes"/>
      <point x="456" y="347"/>
      <point x="563" y="421"/>
      <point x="584" y="501" type="curve" smooth="yes"/>
      <point x="591" y="529" type="line" smooth="yes"/>
      <point x="619" y="636"/>
      <point x="547" y="720"/>
      <point x="409" y="720" type="curve" smooth="yes"/>
      <point x="389" y="720"/>
      <point x="383" y="711"/>
      <point x="382" y="616" type="curve"/>
      <point x="467" y="616"/>
      <point x="494" y="577"/>
      <point x="478" y="516" type="curve" smooth="yes"/>
      <point x="475" y="502" type="line" smooth="yes"/>
      <point x="462" y="451"/>
      <point x="419" y="409"/>
      <point x="318" y="381" type="curve"/>
      <point x="330" y="360"/>
      <point x="357" y="347"/>
    </contour>
    <contour>
      <point x="257" y="84" type="curve"/>
      <point x="161" y="84"/>
      <point x="129" y="128"/>
      <point x="142" y="182" type="curve" smooth="yes"/>
      <point x="145" y="193" type="line" smooth="yes"/>
      <point x="158" y="246"/>
      <point x="210" y="295"/>
      <point x="319" y="314" type="curve"/>
      <point x="305" y="338"/>
      <point x="289" y="351"/>
      <point x="245" y="351" type="curve" smooth="yes"/>
      <point x="167" y="351"/>
      <point x="61" y="286"/>
      <point x="38" y="200" type="curve" smooth="yes"/>
      <point x="29" y="165" type="line" smooth="yes"/>
      <point x="2" y="60"/>
      <point x="84" y="-20"/>
      <point x="239" y="-20" type="curve" smooth="yes"/>
      <point x="250" y="-20"/>
      <point x="269" y="6"/>
    </contour>
  </outline>
</glyph>
<glyph name="nine" format="1">
  <advance width="600"/>
  <unicode hex="0039"/>
  <outline>
    <contour>
      <point x="487" y="617" type="curve"/>
      <point x="503" y="684"/>
      <point x="465" y="721"/>
      <point x="390" y="721" type="curve"/>
      <point x="249" y="721"/>
      <point x="152" y="649"/>
      <point x="120" y="525" type="curve" smooth="yes"/>
      <point x="104" y="458" type="line" smooth="yes"/>
      <point x="94" y="418"/>
      <point x="129" y="375"/>
      <point x="197" y="375" type="curve"/>
      <point x="205" y="408"/>
      <point x="212" y="432"/>
      <point x="221" y="466" type="curve" smooth="yes"/>
      <point x="232" y="511" type="line" smooth="yes"/>
      <point x="250" y="584"/>
      <point x="292" y="617"/>
      <point x="372" y="617" type="curve" smooth="yes"/>
      <point x="420" y="617"/>
      <point x="459" y="617"/>
    </contour>
    <contour>
      <point x="322" y="89" type="curve"/>
      <point x="288" y="89"/>
      <point x="268" y="89"/>
      <point x="222" y="89" type="curve" smooth="yes"/>
      <point x="157" y="89"/>
      <point x="120" y="99"/>
      <point x="70" y="127" type="curve"/>
      <point x="53" y="127" type="line"/>
      <point x="45" y="98"/>
      <point x="38" y="69"/>
      <point x="28" y="27" type="curve" smooth="yes"/>
      <point x="27" y="23"/>
      <point x="27" y="22"/>
      <point x="28" y="19" type="curve" smooth="yes"/>
      <point x="43" y="-1"/>
      <point x="132" y="-20"/>
      <point x="202" y="-20" type="curve" smooth="yes"/>
      <point x="274" y="-20"/>
      <point x="303" y="12"/>
    </contour>
    <contour>
      <point x="538" y="259" type="curve" smooth="yes"/>
      <point x="579" y="420" type="line" smooth="yes"/>
      <point x="628" y="616"/>
      <point x="555" y="721"/>
      <point x="390" y="721" type="curve" smooth="yes"/>
      <point x="374" y="721"/>
      <point x="367" y="685"/>
      <point x="372" y="617" type="curve"/>
      <point x="461" y="617"/>
      <point x="496" y="563"/>
      <point x="465" y="437" type="curve" smooth="yes"/>
      <point x="424" y="276" type="line" smooth="yes"/>
      <point x="391" y="145"/>
      <point x="333" y="89"/>
      <point x="222" y="89" type="curve"/>
      <point x="188" y="37"/>
      <point x="186" y="-20"/>
      <point x="202" y="-20" type="curve" smooth="yes"/>
      <point x="392" y="-20"/>
      <point x="487" y="55"/>
    </contour>
    <contour>
      <point x="254" y="256" type="curve" smooth="yes"/>
      <point x="321" y="256"/>
      <point x="389" y="280"/>
      <point x="435" y="317" type="curve" smooth="yes"/>
      <point x="449" y="328"/>
      <point x="458" y="346"/>
      <point x="473" y="411" type="curve"/>
      <point x="417" y="372"/>
      <point x="362" y="356"/>
      <point x="302" y="356" type="curve" smooth="yes"/>
      <point x="225" y="356"/>
      <point x="205" y="399"/>
      <point x="221" y="466" type="curve" smooth="yes"/>
      <point x="224" y="485"/>
      <point x="230" y="505"/>
      <point x="233" y="516" type="curve"/>
      <point x="157" y="514"/>
      <point x="112" y="491"/>
      <point x="104" y="458" type="curve" smooth="yes"/>
      <point x="75" y="341"/>
      <point x="131" y="256"/>
    </contour>
  </outline>
</glyph>
<glyph name="colon" format="1">
  <advance width="300"/>
  <unicode hex="003A"/>
  <outline>
    <contour>
      <point x="263" y="371" type="curve"/>
      <point x="304" y="532" type="line" smooth="yes"/>
      <point x="305" y="538"/>
      <point x="301" y="543"/>
      <point x="295" y="543" type="curve" smooth="yes"/>
      <point x="244" y="543"/>
      <point x="184" y="543"/>
      <point x="132" y="543" type="curve"/>
      <point x="92" y="382" type="line" smooth="yes"/>
      <point x="91" y="376"/>
      <point x="94" y="371"/>
      <point x="100" y="371" type="curve" smooth="yes"/>
      <point x="152" y="371"/>
      <point x="211" y="371"/>
    </contour>
    <contour>
      <point x="168" y="-8" type="curve"/>
      <point x="208" y="153" type="line" smooth="yes"/>
      <point x="209" y="159"/>
      <point x="206" y="164"/>
      <point x="200" y="164" type="curve" smooth="yes"/>
      <point x="148" y="164"/>
      <point x="89" y="164"/>
      <point x="37" y="164" type="curve"/>
      <point x="-4" y="3" type="line" smooth="yes"/>
      <point x="-5" y="-3"/>
      <point x="-1" y="-8"/>
      <point x="5" y="-8" type="curve" smooth="yes"/>
      <point x="56" y="-8"/>
      <point x="116" y="-8"/>
    </contour>
  </outline>
</glyph>
<glyph name="semicolon" format="1">
  <advance width="350"/>
  <unicode hex="003B"/>
  <outline>
    <contour>
      <point x="288" y="371" type="curve"/>
      <point x="328" y="532" type="line" smooth="yes"/>
      <point x="330" y="538"/>
      <point x="326" y="543"/>
      <point x="320" y="543" type="curve" smooth="yes"/>
      <point x="268" y="543"/>
      <point x="209" y="543"/>
      <point x="157" y="543" type="curve"/>
      <point x="117" y="382" type="line" smooth="yes"/>
      <point x="115" y="376"/>
      <point x="119" y="371"/>
      <point x="125" y="371" type="curve" smooth="yes"/>
      <point x="177" y="371"/>
      <point x="236" y="371"/>
    </contour>
    <contour>
      <point x="18" y="-223" type="curve" smooth="yes"/>
      <point x="23" y="-223"/>
      <point x="27" y="-222"/>
      <point x="31" y="-216" type="curve"/>
      <point x="98" y="-112"/>
      <point x="172" y="4"/>
      <point x="230" y="92" type="curve"/>
      <point x="235" y="100"/>
      <point x="233" y="105"/>
      <point x="225" y="105" type="curve" smooth="yes"/>
      <point x="166" y="105"/>
      <point x="132" y="105"/>
      <point x="63" y="105" type="curve"/>
      <point x="12" y="-4"/>
      <point x="-39" y="-114"/>
      <point x="-91" y="-223" type="curve"/>
      <point x="-62" y="-223"/>
      <point x="-29" y="-223"/>
    </contour>
  </outline>
</glyph>
<glyph name="less" format="1">
  <advance width="600"/>
  <unicode hex="003C"/>
  <outline>
    <contour>
      <point x="570" y="468" type="curve"/>
      <point x="597" y="574" type="line"/>
      <point x="598" y="579"/>
      <point x="596" y="583"/>
      <point x="591" y="583" type="curve" smooth="yes"/>
      <point x="587" y="583"/>
      <point x="583" y="582"/>
      <point x="567" y="575" type="curve" smooth="yes"/>
      <point x="518" y="555"/>
      <point x="264" y="448"/>
      <point x="108" y="382" type="curve"/>
      <point x="73" y="243" type="line"/>
      <point x="91" y="263"/>
      <point x="110" y="277"/>
      <point x="162" y="297" type="curve"/>
      <point x="298" y="354"/>
      <point x="434" y="411"/>
    </contour>
    <contour>
      <point x="455" y="12" type="curve"/>
      <point x="465" y="49"/>
      <point x="473" y="82"/>
      <point x="482" y="119" type="curve" smooth="yes"/>
      <point x="485" y="129"/>
      <point x="484" y="132"/>
      <point x="476" y="136" type="curve" smooth="yes"/>
      <point x="387" y="184"/>
      <point x="296" y="232"/>
      <point x="206" y="280" type="curve" smooth="yes"/>
      <point x="198" y="284"/>
      <point x="197" y="288"/>
      <point x="200" y="296" type="curve" smooth="yes"/>
      <point x="204" y="315"/>
      <point x="210" y="338"/>
      <point x="218" y="369" type="curve"/>
      <point x="135" y="368"/>
      <point x="88" y="301"/>
      <point x="75" y="251" type="curve" smooth="yes"/>
      <point x="70" y="229" type="line" smooth="yes"/>
      <point x="67" y="219"/>
      <point x="70" y="213"/>
      <point x="78" y="209" type="curve" smooth="yes"/>
      <point x="204" y="144"/>
      <point x="330" y="78"/>
    </contour>
  </outline>
</glyph>
<glyph name="greater" format="1">
  <advance width="583"/>
  <unicode hex="003E"/>
  <outline>
    <contour>
      <point x="46" y="133" type="curve"/>
      <point x="20" y="27" type="line"/>
      <point x="18" y="22"/>
      <point x="20" y="18"/>
      <point x="26" y="18" type="curve" smooth="yes"/>
      <point x="30" y="18"/>
      <point x="33" y="19"/>
      <point x="49" y="25" type="curve" smooth="yes"/>
      <point x="98" y="46"/>
      <point x="352" y="153"/>
      <point x="508" y="218" type="curve"/>
      <point x="543" y="358" type="line"/>
      <point x="525" y="338"/>
      <point x="506" y="324"/>
      <point x="454" y="303" type="curve"/>
      <point x="319" y="246"/>
      <point x="182" y="190"/>
    </contour>
    <contour>
      <point x="161" y="589" type="curve"/>
      <point x="152" y="552"/>
      <point x="143" y="518"/>
      <point x="134" y="481" type="curve" smooth="yes"/>
      <point x="132" y="472"/>
      <point x="132" y="469"/>
      <point x="141" y="464" type="curve" smooth="yes"/>
      <point x="229" y="417"/>
      <point x="320" y="368"/>
      <point x="411" y="320" type="curve" smooth="yes"/>
      <point x="418" y="317"/>
      <point x="419" y="313"/>
      <point x="417" y="304" type="curve" smooth="yes"/>
      <point x="412" y="285"/>
      <point x="406" y="262"/>
      <point x="399" y="232" type="curve"/>
      <point x="481" y="233"/>
      <point x="529" y="299"/>
      <point x="541" y="349" type="curve" smooth="yes"/>
      <point x="547" y="372" type="line" smooth="yes"/>
      <point x="549" y="381"/>
      <point x="547" y="388"/>
      <point x="538" y="392" type="curve" smooth="yes"/>
      <point x="412" y="457"/>
      <point x="287" y="523"/>
    </contour>
  </outline>
</glyph>
<glyph name="question" format="1">
  <advance width="600"/>
  <unicode hex="003F"/>
  <outline>
    <contour>
      <point x="409" y="720" type="curve" smooth="yes"/>
      <point x="313" y="720"/>
      <point x="221" y="695"/>
      <point x="186" y="666" type="curve" smooth="yes"/>
      <point x="182" y="663"/>
      <point x="181" y="661"/>
      <point x="180" y="656" type="curve" smooth="yes"/>
      <point x="168" y="611"/>
      <point x="158" y="570"/>
      <point x="153" y="549" type="curve"/>
      <point x="170" y="549" type="line"/>
      <point x="241" y="590"/>
      <point x="306" y="605"/>
      <point x="380" y="605" type="curve" smooth="yes"/>
      <point x="474" y="605"/>
      <point x="490" y="579"/>
      <point x="479" y="537" type="curve" smooth="yes"/>
      <point x="474" y="514"/>
      <point x="469" y="496"/>
      <point x="463" y="471" type="curve"/>
      <point x="546" y="471"/>
      <point x="588" y="511"/>
      <point x="600" y="556" type="curve" smooth="yes"/>
      <point x="621" y="643"/>
      <point x="570" y="720"/>
    </contour>
    <contour>
      <point x="499" y="616" type="curve"/>
      <point x="493" y="594"/>
      <point x="485" y="561"/>
      <point x="477" y="528" type="curve" smooth="yes"/>
      <point x="468" y="490"/>
      <point x="453" y="477"/>
      <point x="388" y="439" type="curve" smooth="yes"/>
      <point x="352" y="418" type="line" smooth="yes"/>
      <point x="263" y="366"/>
      <point x="235" y="334"/>
      <point x="221" y="277" type="curve" smooth="yes"/>
      <point x="216" y="258" type="line" smooth="yes"/>
      <point x="214" y="249"/>
      <point x="216" y="247"/>
      <point x="224" y="247" type="curve" smooth="yes"/>
      <point x="330" y="247" type="line"/>
      <point x="332" y="254" type="line" smooth="yes"/>
      <point x="342" y="292"/>
      <point x="353" y="305"/>
      <point x="412" y="339" type="curve" smooth="yes"/>
      <point x="454" y="363" type="line" smooth="yes"/>
      <point x="542" y="413"/>
      <point x="574" y="453"/>
      <point x="592" y="525" type="curve" smooth="yes"/>
      <point x="600" y="556" type="line" smooth="yes"/>
      <point x="609" y="592"/>
      <point x="592" y="616"/>
    </contour>
    <contour>
      <point x="299" y="-8" type="curve"/>
      <point x="338" y="147" type="line" smooth="yes"/>
      <point x="340" y="153"/>
      <point x="336" y="158"/>
      <point x="330" y="158" type="curve" smooth="yes"/>
      <point x="278" y="158"/>
      <point x="219" y="158"/>
      <point x="167" y="158" type="curve"/>
      <point x="128" y="3" type="line" smooth="yes"/>
      <point x="127" y="-3"/>
      <point x="130" y="-8"/>
      <point x="136" y="-8" type="curve" smooth="yes"/>
      <point x="188" y="-8"/>
      <point x="248" y="-8"/>
    </contour>
  </outline>
</glyph>
<glyph name="A" format="1">
  <advance width="600"/>
  <unicode hex="0041"/>
  <outline>
    <contour>
      <point x="85" y="0" type="curve"/>
      <point x="253" y="362"/>
      <point x="317" y="492"/>
      <point x="395" y="648" type="curve"/>
      <point x="407" y="674"/>
      <point x="430" y="690"/>
      <point x="499" y="703" type="curve"/>
      <point x="306" y="703" type="line"/>
      <point x="230" y="555"/>
      <point x="115" y="318"/>
      <point x="-30" y="13" type="curve"/>
      <point x="-34" y="4"/>
      <point x="-30" y="0"/>
      <point x="-24" y="0" type="curve" smooth="yes"/>
      <point x="12" y="0"/>
      <point x="48" y="0"/>
    </contour>
    <contour>
      <point x="502" y="0" type="curve"/>
      <point x="506" y="262"/>
      <point x="510" y="498"/>
      <point x="510" y="691" type="curve"/>
      <point x="510" y="697"/>
      <point x="509" y="699"/>
      <point x="507" y="701" type="curve" smooth="yes"/>
      <point x="506" y="703"/>
      <point x="503" y="703"/>
      <point x="499" y="703" type="curve"/>
      <point x="392" y="703"/>
      <point x="370" y="691"/>
      <point x="345" y="592" type="curve"/>
      <point x="357" y="592"/>
      <point x="380" y="592"/>
      <point x="390" y="592" type="curve" smooth="yes"/>
      <point x="393" y="592"/>
      <point x="396" y="591"/>
      <point x="396" y="586" type="curve"/>
      <point x="395" y="436"/>
      <point x="396" y="279"/>
      <point x="388" y="13" type="curve"/>
      <point x="388" y="6"/>
      <point x="389" y="4"/>
      <point x="390" y="3" type="curve" smooth="yes"/>
      <point x="391" y="1"/>
      <point x="394" y="0"/>
      <point x="397" y="0" type="curve" smooth="yes"/>
      <point x="433" y="0"/>
      <point x="467" y="0"/>
    </contour>
    <contour>
      <point x="149" y="287" type="line"/>
      <point x="126" y="192" type="line" smooth="yes"/>
      <point x="125" y="189"/>
      <point x="125" y="186"/>
      <point x="127" y="184" type="curve" smooth="yes"/>
      <point x="128" y="182"/>
      <point x="131" y="181"/>
      <point x="134" y="181" type="curve"/>
      <point x="446" y="181" type="line"/>
      <point x="471" y="283"/>
      <point x="465" y="287"/>
      <point x="461" y="287" type="curve" smooth="yes"/>
    </contour>
    <contour>
      <point x="410" y="711" type="move" name="top"/>
    </contour>
    <contour>
      <point x="502" y="-1" type="move" name="ogonek"/>
    </contour>
    <contour>
      <point x="408" y="700" type="move" name="ring"/>
    </contour>
    <contour>
      <point x="232" y="-1" type="move" name="bottom"/>
    </contour>
  </outline>
</glyph>
<glyph name="B" format="1">
  <advance width="600"/>
  <unicode hex="0042"/>
  <outline>
    <contour>
      <point x="138" y="9" type="curve"/>
      <point x="299" y="656" type="line" smooth="yes"/>
      <point x="302" y="665"/>
      <point x="262" y="670"/>
      <point x="184" y="670" type="curve"/>
      <point x="19" y="11" type="line"/>
      <point x="19" y="10"/>
      <point x="72" y="9"/>
    </contour>
    <contour>
      <point x="138" y="700" type="curve"/>
      <point x="131" y="674"/>
      <point x="123" y="639"/>
      <point x="115" y="606" type="curve" smooth="yes"/>
      <point x="114" y="602"/>
      <point x="114" y="599"/>
      <point x="116" y="597" type="curve" smooth="yes"/>
      <point x="117" y="595"/>
      <point x="120" y="595"/>
      <point x="123" y="595" type="curve" smooth="yes"/>
      <point x="139" y="595"/>
      <point x="164" y="595"/>
      <point x="183" y="595" type="curve" smooth="yes"/>
      <point x="248" y="595"/>
      <point x="328" y="595"/>
      <point x="392" y="595" type="curve" smooth="yes"/>
      <point x="462" y="595"/>
      <point x="477" y="595"/>
      <point x="519" y="595" type="curve"/>
      <point x="534" y="653"/>
      <point x="506" y="700"/>
      <point x="410" y="700" type="curve" smooth="yes"/>
      <point x="328" y="700"/>
      <point x="223" y="700"/>
    </contour>
    <contour>
      <point x="583" y="497" type="curve" smooth="yes"/>
      <point x="590" y="524" type="line" smooth="yes"/>
      <point x="612" y="613"/>
      <point x="574" y="700"/>
      <point x="410" y="700" type="curve" smooth="yes"/>
      <point x="394" y="700"/>
      <point x="390" y="687"/>
      <point x="392" y="595" type="curve"/>
      <point x="460" y="595"/>
      <point x="481" y="567"/>
      <point x="469" y="514" type="curve" smooth="yes"/>
      <point x="460" y="480" type="line" smooth="yes"/>
      <point x="447" y="427"/>
      <point x="413" y="395"/>
      <point x="330" y="395" type="curve" smooth="yes"/>
      <point x="282" y="395"/>
      <point x="247" y="395"/>
      <point x="200" y="395" type="curve"/>
      <point x="197" y="383"/>
      <point x="193" y="367"/>
      <point x="190" y="355" type="curve" smooth="yes"/>
      <point x="188" y="348"/>
      <point x="193" y="344"/>
      <point x="201" y="344" type="curve" smooth="yes"/>
      <point x="346" y="344" type="line" smooth="yes"/>
      <point x="472" y="344"/>
      <point x="559" y="400"/>
    </contour>
    <contour>
      <point x="513" y="170" type="curve" smooth="yes"/>
      <point x="521" y="203" type="line" smooth="yes"/>
      <point x="546" y="299"/>
      <point x="475" y="367"/>
      <point x="348" y="367" type="curve" smooth="yes"/>
      <point x="207" y="367" type="line" smooth="yes"/>
      <point x="201" y="367"/>
      <point x="191" y="362"/>
      <point x="190" y="357" type="curve"/>
      <point x="179" y="313" type="line"/>
      <point x="310" y="313" type="line"/>
      <point x="400" y="313"/>
      <point x="420" y="274"/>
      <point x="407" y="222" type="curve" smooth="yes"/>
      <point x="397" y="183" type="line" smooth="yes"/>
      <point x="384" y="131"/>
      <point x="345" y="105"/>
      <point x="276" y="105" type="curve" smooth="yes"/>
      <point x="227" y="105"/>
      <point x="165" y="105"/>
      <point x="102" y="105" type="curve"/>
      <point x="27" y="27"/>
      <point x="20" y="16"/>
      <point x="19" y="11" type="curve" smooth="yes"/>
      <point x="17" y="4"/>
      <point x="20" y="0"/>
      <point x="27" y="0" type="curve" smooth="yes"/>
      <point x="261" y="0" type="line" smooth="yes"/>
      <point x="387" y="0"/>
      <point x="482" y="52"/>
    </contour>
  </outline>
</glyph>
<glyph name="D" format="1">
  <advance width="650"/>
  <unicode hex="0044"/>
  <outline>
    <contour>
      <point x="147" y="34" type="curve"/>
      <point x="301" y="649" type="line" smooth="yes"/>
      <point x="302" y="655"/>
      <point x="299" y="660"/>
      <point x="181" y="660" type="curve"/>
      <point x="27" y="44" type="line" smooth="yes"/>
      <point x="26" y="38"/>
      <point x="30" y="34"/>
    </contour>
    <contour>
      <point x="137" y="700" type="curve"/>
      <point x="129" y="667"/>
      <point x="121" y="634"/>
      <point x="113" y="602" type="curve"/>
      <point x="112" y="599"/>
      <point x="113" y="596"/>
      <point x="114" y="594" type="curve" smooth="yes"/>
      <point x="116" y="592"/>
      <point x="118" y="591"/>
      <point x="121" y="591" type="curve" smooth="yes"/>
      <point x="135" y="591"/>
      <point x="161" y="591"/>
      <point x="177" y="591" type="curve" smooth="yes"/>
      <point x="232" y="591"/>
      <point x="329" y="591"/>
      <point x="384" y="591" type="curve"/>
      <point x="442" y="591"/>
      <point x="467" y="591"/>
      <point x="504" y="591" type="curve"/>
      <point x="520" y="655"/>
      <point x="499" y="700"/>
      <point x="400" y="700" type="curve" smooth="yes"/>
      <point x="331" y="700"/>
      <point x="213" y="700"/>
    </contour>
    <contour>
      <point x="581" y="245" type="curve" smooth="yes"/>
      <point x="626" y="420" type="line" smooth="yes"/>
      <point x="673" y="605"/>
      <point x="575" y="700"/>
      <point x="400" y="700" type="curve" smooth="yes"/>
      <point x="389" y="700"/>
      <point x="386" y="689"/>
      <point x="384" y="591" type="curve"/>
      <point x="502" y="591"/>
      <point x="538" y="535"/>
      <point x="512" y="428" type="curve" smooth="yes"/>
      <point x="469" y="258" type="line" smooth="yes"/>
      <point x="443" y="152"/>
      <point x="374" y="109"/>
      <point x="268" y="109" type="curve" smooth="yes"/>
      <point x="217" y="109"/>
      <point x="90" y="109"/>
      <point x="48" y="109" type="curve"/>
      <point x="37" y="75"/>
      <point x="30" y="55"/>
      <point x="19" y="11" type="curve" smooth="yes"/>
      <point x="18" y="5"/>
      <point x="21" y="0"/>
      <point x="27" y="0" type="curve" smooth="yes"/>
      <point x="246" y="0" type="line" smooth="yes"/>
      <point x="432" y="0"/>
      <point x="539" y="75"/>
    </contour>
    <contour>
      <point x="419" y="711" type="move" name="top"/>
    </contour>
  </outline>
</glyph>
<glyph name="E" format="1">
  <advance width="550"/>
  <unicode hex="0045"/>
  <outline>
    <contour>
      <point x="134" y="700" type="line"/>
      <point x="126" y="667"/>
      <point x="118" y="635"/>
      <point x="110" y="602" type="curve" smooth="yes"/>
      <point x="109" y="599"/>
      <point x="109" y="596"/>
      <point x="111" y="594" type="curve" smooth="yes"/>
      <point x="112" y="592"/>
      <point x="115" y="591"/>
      <point x="118" y="591" type="curve" smooth="yes"/>
      <point x="577" y="591" type="line"/>
      <point x="585" y="623"/>
      <point x="593" y="656"/>
      <point x="602" y="689" type="curve" smooth="yes"/>
      <point x="602" y="692"/>
      <point x="602" y="695"/>
      <point x="601" y="697" type="curve" smooth="yes"/>
      <point x="599" y="699"/>
      <point x="596" y="700"/>
      <point x="593" y="700" type="curve" smooth="yes"/>
    </contour>
    <contour>
      <point x="154" y="75" type="curve"/>
      <point x="298" y="653" type="line" smooth="yes"/>
      <point x="300" y="659"/>
      <point x="296" y="664"/>
      <point x="179" y="664" type="curve"/>
      <point x="34" y="86" type="line"/>
      <point x="33" y="80"/>
      <point x="37" y="75"/>
    </contour>
    <contour>
      <point x="40" y="109" type="line"/>
      <point x="16" y="11" type="line" smooth="yes"/>
      <point x="14" y="5"/>
      <point x="18" y="0"/>
      <point x="24" y="0" type="curve" smooth="yes"/>
      <point x="429" y="0" type="line"/>
      <point x="437" y="33"/>
      <point x="446" y="66"/>
      <point x="454" y="98" type="curve" smooth="yes"/>
      <point x="455" y="104"/>
      <point x="452" y="109"/>
      <point x="446" y="109" type="curve" smooth="yes"/>
    </contour>
    <contour>
      <point x="167" y="406" type="line"/>
      <point x="142" y="306"/>
      <point x="146" y="300"/>
      <point x="152" y="300" type="curve" smooth="yes"/>
      <point x="448" y="300" type="line"/>
      <point x="455" y="329"/>
      <point x="463" y="361"/>
      <point x="472" y="395" type="curve" smooth="yes"/>
      <point x="472" y="398"/>
      <point x="472" y="401"/>
      <point x="471" y="403" type="curve" smooth="yes"/>
      <point x="469" y="405"/>
      <point x="466" y="406"/>
      <point x="463" y="406" type="curve" smooth="yes"/>
    </contour>
    <contour>
      <point x="369" y="711" type="move" name="top"/>
    </contour>
    <contour>
      <point x="422" y="-1" type="move" name="ogonek"/>
    </contour>
    <contour>
      <point x="191" y="-1" type="move" name="bottom"/>
    </contour>
  </outline>
</glyph>
<glyph name="F" format="1">
  <advance width="550"/>
  <unicode hex="0046"/>
  <outline>
    <contour>
      <point x="155" y="0" type="curve"/>
      <point x="163" y="31"/>
      <point x="171" y="64"/>
      <point x="180" y="98" type="curve" smooth="yes"/>
      <point x="317" y="647" type="line"/>
      <point x="319" y="656"/>
      <point x="310" y="662"/>
      <point x="198" y="662" type="curve"/>
      <point x="36" y="11" type="line" smooth="yes"/>
      <point x="34" y="5"/>
      <point x="38" y="0"/>
      <point x="44" y="0" type="curve" smooth="yes"/>
      <point x="81" y="0"/>
      <point x="118" y="0"/>
    </contour>
    <contour>
      <point x="154" y="700" type="line"/>
      <point x="146" y="667"/>
      <point x="138" y="635"/>
      <point x="130" y="602" type="curve" smooth="yes"/>
      <point x="129" y="599"/>
      <point x="129" y="596"/>
      <point x="131" y="594" type="curve" smooth="yes"/>
      <point x="132" y="592"/>
      <point x="135" y="591"/>
      <point x="138" y="591" type="curve"/>
      <point x="570" y="591" type="line"/>
      <point x="579" y="624"/>
      <point x="587" y="656"/>
      <point x="595" y="689" type="curve" smooth="yes"/>
      <point x="596" y="692"/>
      <point x="595" y="695"/>
      <point x="594" y="697" type="curve" smooth="yes"/>
      <point x="592" y="699"/>
      <point x="590" y="700"/>
      <point x="587" y="700" type="curve"/>
    </contour>
    <contour>
      <point x="181" y="380" type="line"/>
      <point x="158" y="288"/>
      <point x="156" y="270"/>
      <point x="164" y="270" type="curve"/>
      <point x="453" y="270" type="line"/>
      <point x="462" y="303"/>
      <point x="470" y="336"/>
      <point x="478" y="369" type="curve"/>
      <point x="479" y="372"/>
      <point x="479" y="375"/>
      <point x="477" y="377" type="curve" smooth="yes"/>
      <point x="476" y="379"/>
      <point x="473" y="380"/>
      <point x="470" y="380" type="curve"/>
    </contour>
  </outline>
</glyph>
<glyph name="G" format="1">
  <advance width="650"/>
  <unicode hex="0047"/>
  <outline>
    <contour>
      <point x="425" y="613" type="curve" smooth="yes"/>
      <point x="509" y="613"/>
      <point x="549" y="599"/>
      <point x="587" y="560" type="curve"/>
      <point x="657" y="620"/>
      <point x="662" y="630"/>
      <point x="664" y="637" type="curve" smooth="yes"/>
      <point x="667" y="647"/>
      <point x="666" y="651"/>
      <point x="663" y="655" type="curve" smooth="yes"/>
      <point x="640" y="686"/>
      <point x="566" y="720"/>
      <point x="446" y="720" type="curve" smooth="yes"/>
      <point x="266" y="720"/>
      <point x="150" y="634"/>
      <point x="103" y="448" type="curve" smooth="yes"/>
      <point x="56" y="254" type="line" smooth="yes"/>
      <point x="38" y="183"/>
      <point x="67" y="112"/>
      <point x="136" y="113" type="curve"/>
      <point x="147" y="156"/>
      <point x="157" y="193"/>
      <point x="171" y="252" type="curve" smooth="yes"/>
      <point x="220" y="448" type="line" smooth="yes"/>
      <point x="248" y="560"/>
      <point x="317" y="613"/>
    </contour>
    <contour>
      <point x="299" y="88" type="curve" smooth="yes"/>
      <point x="196" y="88"/>
      <point x="143" y="140"/>
      <point x="171" y="252" type="curve"/>
      <point x="69" y="268"/>
      <point x="59" y="267"/>
      <point x="56" y="254" type="curve" smooth="yes"/>
      <point x="14" y="87"/>
      <point x="98" y="-20"/>
      <point x="279" y="-20" type="curve" smooth="yes"/>
      <point x="453" y="-20"/>
      <point x="523" y="62"/>
      <point x="527" y="80" type="curve" smooth="yes"/>
      <point x="580" y="289" type="line" smooth="yes"/>
      <point x="584" y="305"/>
      <point x="513" y="310"/>
      <point x="476" y="310" type="curve"/>
      <point x="461" y="253"/>
      <point x="446" y="192"/>
      <point x="431" y="135" type="curve" smooth="yes"/>
      <point x="429" y="125"/>
      <point x="388" y="88"/>
    </contour>
    <contour>
      <point x="363" y="373" type="line"/>
      <point x="356" y="342"/>
      <point x="348" y="313"/>
      <point x="340" y="282" type="curve" smooth="yes"/>
      <point x="339" y="279"/>
      <point x="340" y="276"/>
      <point x="341" y="274" type="curve" smooth="yes"/>
      <point x="343" y="272"/>
      <point x="345" y="271"/>
      <point x="348" y="271" type="curve"/>
      <point x="614" y="271" type="line"/>
      <point x="637" y="362" type="line" smooth="yes"/>
      <point x="638" y="368"/>
      <point x="635" y="373"/>
      <point x="629" y="373" type="curve" smooth="yes"/>
    </contour>
    <contour>
      <point x="629" y="494" type="curve"/>
      <point x="664" y="637" type="line" smooth="yes"/>
      <point x="666" y="648"/>
      <point x="657" y="655"/>
      <point x="560" y="655" type="curve"/>
      <point x="556" y="641"/>
      <point x="552" y="625"/>
      <point x="549" y="613" type="curve" smooth="yes"/>
      <point x="522" y="505" type="line" smooth="yes"/>
      <point x="521" y="498"/>
      <point x="524" y="494"/>
      <point x="531" y="494" type="curve" smooth="yes"/>
      <point x="563" y="494"/>
      <point x="596" y="494"/>
    </contour>
    <contour>
      <point x="447" y="711" type="move" name="top"/>
    </contour>
    <contour>
      <point x="269" y="-1" type="move" name="bottom"/>
    </contour>
  </outline>
</glyph>
<glyph name="H" format="1">
  <advance width="650"/>
  <unicode hex="0048"/>
  <outline>
    <contour>
      <point x="185" y="700" type="curve"/>
      <point x="176" y="665"/>
      <point x="167" y="631"/>
      <point x="159" y="596" type="curve" smooth="yes"/>
      <point x="12" y="11" type="line" smooth="yes"/>
      <point x="11" y="5"/>
      <point x="15" y="0"/>
      <point x="21" y="0" type="curve" smooth="yes"/>
      <point x="58" y="0"/>
      <point x="94" y="0"/>
      <point x="132" y="0" type="curve"/>
      <point x="304" y="689" type="line" smooth="yes"/>
      <point x="305" y="692"/>
      <point x="305" y="695"/>
      <point x="303" y="697" type="curve" smooth="yes"/>
      <point x="302" y="699"/>
      <point x="299" y="700"/>
      <point x="296" y="700" type="curve" smooth="yes"/>
      <point x="259" y="700"/>
      <point x="222" y="700"/>
    </contour>
    <contour>
      <point x="506" y="0" type="curve"/>
      <point x="514" y="32"/>
      <point x="523" y="69"/>
      <point x="532" y="107" type="curve" smooth="yes"/>
      <point x="678" y="689" type="line" smooth="yes"/>
      <point x="680" y="695"/>
      <point x="676" y="700"/>
      <point x="670" y="700" type="curve" smooth="yes"/>
      <point x="633" y="700"/>
      <point x="596" y="700"/>
      <point x="559" y="700" type="curve"/>
      <point x="386" y="11" type="line" smooth="yes"/>
      <point x="386" y="8"/>
      <point x="386" y="5"/>
      <point x="387" y="3" type="curve" smooth="yes"/>
      <point x="389" y="1"/>
      <point x="392" y="0"/>
      <point x="395" y="0" type="curve" smooth="yes"/>
      <point x="432" y="0"/>
      <point x="469" y="0"/>
    </contour>
    <contour>
      <point x="166" y="406" type="line"/>
      <point x="141" y="308" type="line" smooth="yes"/>
      <point x="140" y="305"/>
      <point x="141" y="302"/>
      <point x="142" y="300" type="curve" smooth="yes"/>
      <point x="144" y="298"/>
      <point x="146" y="297"/>
      <point x="149" y="297" type="curve"/>
      <point x="527" y="297" type="line"/>
      <point x="553" y="401"/>
      <point x="550" y="406"/>
      <point x="544" y="406" type="curve" smooth="yes"/>
    </contour>
    <contour>
      <point x="435" y="711" type="move" name="top"/>
    </contour>
  </outline>
</glyph>
<glyph name="I" format="1">
  <advance width="500"/>
  <unicode hex="0049"/>
  <outline>
    <contour>
      <point x="254" y="40" type="curve"/>
      <point x="406" y="650" type="line" smooth="yes"/>
      <point x="408" y="656"/>
      <point x="404" y="660"/>
      <point x="287" y="660" type="curve"/>
      <point x="134" y="51" type="line" smooth="yes"/>
      <point x="133" y="45"/>
      <point x="137" y="40"/>
    </contour>
    <contour>
      <point x="181" y="700" type="line"/>
      <point x="173" y="667"/>
      <point x="165" y="635"/>
      <point x="157" y="602" type="curve"/>
      <point x="156" y="599"/>
      <point x="156" y="596"/>
      <point x="158" y="594" type="curve" smooth="yes"/>
      <point x="159" y="592"/>
      <point x="162" y="591"/>
      <point x="165" y="591" type="curve" smooth="yes"/>
      <point x="507" y="591" type="line"/>
      <point x="515" y="623"/>
      <point x="523" y="656"/>
      <point x="532" y="689" type="curve" smooth="yes"/>
      <point x="533" y="695"/>
      <point x="529" y="700"/>
      <point x="523" y="700" type="curve" smooth="yes"/>
    </contour>
    <contour>
      <point x="33" y="109" type="line"/>
      <point x="25" y="76"/>
      <point x="17" y="44"/>
      <point x="9" y="11" type="curve"/>
      <point x="8" y="8"/>
      <point x="8" y="5"/>
      <point x="10" y="3" type="curve" smooth="yes"/>
      <point x="11" y="1"/>
      <point x="14" y="0"/>
      <point x="17" y="0" type="curve" smooth="yes"/>
      <point x="359" y="0" type="line"/>
      <point x="367" y="33"/>
      <point x="376" y="66"/>
      <point x="384" y="98" type="curve" smooth="yes"/>
      <point x="385" y="104"/>
      <point x="382" y="109"/>
      <point x="376" y="109" type="curve" smooth="yes"/>
    </contour>
    <contour>
      <point x="360" y="711" type="move" name="top"/>
    </contour>
    <contour>
      <point x="359" y="-1" type="move" name="ogonek"/>
    </contour>
    <contour>
      <point x="182" y="-1" type="move" name="bottom"/>
    </contour>
  </outline>
</glyph>
<glyph name="J" format="1">
  <advance width="500"/>
  <unicode hex="004A"/>
  <outline>
    <contour>
      <point x="198" y="700" type="line"/>
      <point x="190" y="667"/>
      <point x="182" y="634"/>
      <point x="174" y="602" type="curve" smooth="yes"/>
      <point x="173" y="599"/>
      <point x="173" y="596"/>
      <point x="175" y="594" type="curve" smooth="yes"/>
      <point x="176" y="592"/>
      <point x="179" y="591"/>
      <point x="182" y="591" type="curve" smooth="yes"/>
      <point x="471" y="591" type="line"/>
      <point x="484" y="639"/>
      <point x="483" y="700"/>
      <point x="446" y="700" type="curve"/>
    </contour>
    <contour>
      <point x="414" y="208" type="curve" smooth="yes"/>
      <point x="535" y="689" type="line" smooth="yes"/>
      <point x="537" y="695"/>
      <point x="533" y="700"/>
      <point x="527" y="700" type="curve" smooth="yes"/>
      <point x="422" y="700" type="line"/>
      <point x="303" y="226" type="line" smooth="yes"/>
      <point x="287" y="159"/>
      <point x="281" y="135"/>
      <point x="269" y="87" type="curve"/>
      <point x="326" y="87"/>
      <point x="390" y="108"/>
    </contour>
    <contour>
      <point x="155" y="95" type="curve" smooth="yes"/>
      <point x="106" y="95"/>
      <point x="68" y="107"/>
      <point x="29" y="130" type="curve"/>
      <point x="12" y="130" type="line"/>
      <point x="4" y="97"/>
      <point x="-3" y="68"/>
      <point x="-11" y="36" type="curve"/>
      <point x="-12" y="32"/>
      <point x="-12" y="30"/>
      <point x="-10" y="27" type="curve" smooth="yes"/>
      <point x="4" y="11"/>
      <point x="68" y="-15"/>
      <point x="130" y="-15" type="curve" smooth="yes"/>
      <point x="148" y="-15" type="line" smooth="yes"/>
      <point x="289" y="-15"/>
      <point x="376" y="50"/>
      <point x="414" y="208" type="curve"/>
      <point x="417" y="218"/>
      <point x="414" y="242"/>
      <point x="303" y="226" type="curve"/>
      <point x="278" y="125"/>
      <point x="235" y="95"/>
    </contour>
    <contour>
      <point x="365" y="711" type="move" name="top"/>
    </contour>
  </outline>
</glyph>
<glyph name="L" format="1">
  <advance width="550"/>
  <unicode hex="004C"/>
  <outline>
    <contour>
      <point x="150" y="75" type="curve"/>
      <point x="304" y="689" type="line" smooth="yes"/>
      <point x="305" y="692"/>
      <point x="305" y="695"/>
      <point x="303" y="697" type="curve" smooth="yes"/>
      <point x="302" y="699"/>
      <point x="299" y="700"/>
      <point x="296" y="700" type="curve" smooth="yes"/>
      <point x="259" y="700"/>
      <point x="222" y="700"/>
      <point x="185" y="700" type="curve"/>
      <point x="176" y="667"/>
      <point x="168" y="633"/>
      <point x="160" y="600" type="curve" smooth="yes"/>
      <point x="31" y="86" type="line" smooth="yes"/>
      <point x="30" y="80"/>
      <point x="33" y="75"/>
    </contour>
    <contour>
      <point x="37" y="109" type="line"/>
      <point x="12" y="11" type="line" smooth="yes"/>
      <point x="11" y="5"/>
      <point x="14" y="0"/>
      <point x="21" y="0" type="curve" smooth="yes"/>
      <point x="429" y="0" type="line"/>
      <point x="437" y="33"/>
      <point x="446" y="65"/>
      <point x="454" y="98" type="curve" smooth="yes"/>
      <point x="455" y="104"/>
      <point x="452" y="109"/>
      <point x="446" y="109" type="curve" smooth="yes"/>
    </contour>
    <contour>
      <point x="473" y="550" type="move" name="caronslovak"/>
    </contour>
    <contour>
      <point x="249" y="711" type="move" name="top"/>
    </contour>
    <contour>
      <point x="469" y="400" type="move" name="dot"/>
    </contour>
    <contour>
      <point x="219" y="-1" type="move" name="bottom"/>
    </contour>
  </outline>
</glyph>
<glyph name="M" format="1">
  <advance width="800"/>
  <unicode hex="004D"/>
  <outline>
    <contour>
      <point x="123" y="0" type="curve"/>
      <point x="139" y="68"/>
      <point x="156" y="135"/>
      <point x="173" y="202" type="curve" smooth="yes"/>
      <point x="210" y="366"/>
      <point x="247" y="528"/>
      <point x="283" y="689" type="curve" smooth="yes"/>
      <point x="284" y="692"/>
      <point x="284" y="695"/>
      <point x="282" y="697" type="curve" smooth="yes"/>
      <point x="281" y="699"/>
      <point x="278" y="700"/>
      <point x="275" y="700" type="curve" smooth="yes"/>
      <point x="245" y="700"/>
      <point x="215" y="700"/>
      <point x="185" y="700" type="curve"/>
      <point x="176" y="662"/>
      <point x="166" y="625"/>
      <point x="157" y="587" type="curve" smooth="yes"/>
      <point x="109" y="395"/>
      <point x="61" y="203"/>
      <point x="13" y="11" type="curve" smooth="yes"/>
      <point x="12" y="8"/>
      <point x="12" y="5"/>
      <point x="14" y="3" type="curve" smooth="yes"/>
      <point x="15" y="1"/>
      <point x="18" y="0"/>
      <point x="21" y="0" type="curve" smooth="yes"/>
      <point x="55" y="0"/>
      <point x="89" y="0"/>
    </contour>
    <contour>
      <point x="656" y="0" type="curve"/>
      <point x="665" y="37"/>
      <point x="675" y="75"/>
      <point x="684" y="112" type="curve" smooth="yes"/>
      <point x="732" y="304"/>
      <point x="780" y="497"/>
      <point x="828" y="689" type="curve"/>
      <point x="829" y="692"/>
      <point x="829" y="695"/>
      <point x="827" y="697" type="curve" smooth="yes"/>
      <point x="826" y="699"/>
      <point x="823" y="700"/>
      <point x="820" y="700" type="curve" smooth="yes"/>
      <point x="729" y="700" type="line"/>
      <point x="726" y="688"/>
      <point x="723" y="676"/>
      <point x="719" y="663" type="curve"/>
      <point x="676" y="509"/>
      <point x="633" y="355"/>
      <point x="591" y="203" type="curve" smooth="yes"/>
      <point x="576" y="141"/>
      <point x="560" y="79"/>
      <point x="545" y="17" type="curve" smooth="yes"/>
      <point x="542" y="8"/>
      <point x="543" y="5"/>
      <point x="545" y="3" type="curve" smooth="yes"/>
      <point x="546" y="1"/>
      <point x="548" y="0"/>
      <point x="552" y="0" type="curve" smooth="yes"/>
      <point x="587" y="0"/>
      <point x="621" y="0"/>
    </contour>
    <contour>
      <point x="341" y="687" type="curve" smooth="yes"/>
      <point x="339" y="697"/>
      <point x="336" y="700"/>
      <point x="328" y="700" type="curve"/>
      <point x="232" y="700" type="line"/>
      <point x="235" y="678"/>
      <point x="242" y="657"/>
      <point x="246" y="635" type="curve" smooth="yes"/>
      <point x="269" y="470"/>
      <point x="293" y="305"/>
      <point x="316" y="140" type="curve"/>
      <point x="317" y="136"/>
      <point x="322" y="133"/>
      <point x="326" y="133" type="curve" smooth="yes"/>
      <point x="334" y="133"/>
      <point x="339" y="138"/>
      <point x="411" y="214" type="curve"/>
      <point x="388" y="371"/>
      <point x="364" y="529"/>
    </contour>
    <contour>
      <point x="666" y="700" type="curve"/>
      <point x="562" y="538"/>
      <point x="457" y="375"/>
      <point x="353" y="214" type="curve"/>
      <point x="318" y="147"/>
      <point x="326" y="137"/>
      <point x="326" y="133" type="curve"/>
      <point x="412" y="133" type="line"/>
      <point x="528" y="314"/>
      <point x="646" y="496"/>
      <point x="763" y="678" type="curve" smooth="yes"/>
      <point x="774" y="695"/>
      <point x="771" y="700"/>
      <point x="765" y="700" type="curve" smooth="yes"/>
      <point x="750" y="700"/>
      <point x="675" y="700"/>
    </contour>
  </outline>
</glyph>
<glyph name="N" format="1">
  <advance width="700"/>
  <unicode hex="004E"/>
  <outline>
    <contour>
      <point x="125" y="0" type="curve"/>
      <point x="211" y="344" type="line"/>
      <point x="260" y="588"/>
      <point x="280" y="693"/>
      <point x="277" y="697" type="curve" smooth="yes"/>
      <point x="275" y="699"/>
      <point x="273" y="700"/>
      <point x="270" y="700" type="curve"/>
      <point x="244" y="700"/>
      <point x="192" y="700"/>
      <point x="185" y="700" type="curve"/>
      <point x="173" y="653"/>
      <point x="161" y="607"/>
      <point x="150" y="560" type="curve" smooth="yes"/>
      <point x="12" y="11" type="line"/>
      <point x="11" y="5"/>
      <point x="15" y="0"/>
      <point x="21" y="0" type="curve"/>
      <point x="55" y="0"/>
      <point x="91" y="0"/>
    </contour>
    <contour>
      <point x="556" y="0" type="line"/>
      <point x="728" y="689" type="line"/>
      <point x="730" y="695"/>
      <point x="726" y="700"/>
      <point x="720" y="700" type="curve"/>
      <point x="615" y="700" type="line"/>
      <point x="522" y="328" type="line"/>
      <point x="487" y="130"/>
      <point x="467" y="5"/>
      <point x="469" y="3" type="curve" smooth="yes"/>
      <point x="470" y="1"/>
      <point x="473" y="0"/>
      <point x="476" y="0" type="curve"/>
    </contour>
    <contour>
      <point x="263" y="700" type="line"/>
      <point x="250" y="694"/>
      <point x="247" y="692"/>
      <point x="197" y="640" type="curve"/>
      <point x="278" y="430"/>
      <point x="358" y="218"/>
      <point x="438" y="8" type="curve"/>
      <point x="440" y="1"/>
      <point x="444" y="0"/>
      <point x="449" y="0" type="curve" smooth="yes"/>
      <point x="460" y="0"/>
      <point x="479" y="0"/>
      <point x="491" y="0" type="curve"/>
      <point x="499" y="4"/>
      <point x="514" y="74"/>
      <point x="522" y="115" type="curve"/>
      <point x="448" y="307"/>
      <point x="375" y="499"/>
      <point x="302" y="690" type="curve"/>
      <point x="299" y="699"/>
      <point x="297" y="700"/>
      <point x="287" y="700" type="curve"/>
    </contour>
    <contour>
      <point x="460" y="711" type="move" name="top"/>
    </contour>
    <contour>
      <point x="282" y="-1" type="move" name="bottom"/>
    </contour>
  </outline>
</glyph>
<glyph name="O" format="1">
  <advance width="650"/>
  <unicode hex="004F"/>
  <outline>
    <contour>
      <point x="419" y="720" type="curve" smooth="yes"/>
      <point x="255" y="720"/>
      <point x="151" y="619"/>
      <point x="109" y="452" type="curve" smooth="yes"/>
      <point x="59" y="256" type="line" smooth="yes"/>
      <point x="15" y="77"/>
      <point x="114" y="-20"/>
      <point x="270" y="-20" type="curve" smooth="yes"/>
      <point x="276" y="-20"/>
      <point x="289" y="-5"/>
      <point x="287" y="89" type="curve"/>
      <point x="190" y="89"/>
      <point x="149" y="149"/>
      <point x="174" y="251" type="curve" smooth="yes"/>
      <point x="224" y="448" type="line" smooth="yes"/>
      <point x="249" y="551"/>
      <point x="309" y="611"/>
      <point x="404" y="611" type="curve" smooth="yes"/>
      <point x="459" y="611"/>
      <point x="500" y="611"/>
      <point x="528" y="611" type="curve"/>
      <point x="540" y="660"/>
      <point x="513" y="720"/>
    </contour>
    <contour>
      <point x="270" y="-20" type="curve" smooth="yes"/>
      <point x="431" y="-20"/>
      <point x="536" y="67"/>
      <point x="579" y="237" type="curve" smooth="yes"/>
      <point x="630" y="438" type="line" smooth="yes"/>
      <point x="676" y="620"/>
      <point x="576" y="720"/>
      <point x="419" y="720" type="curve" smooth="yes"/>
      <point x="413" y="720"/>
      <point x="401" y="708"/>
      <point x="404" y="611" type="curve"/>
      <point x="501" y="611"/>
      <point x="542" y="550"/>
      <point x="516" y="449" type="curve" smooth="yes"/>
      <point x="467" y="256" type="line" smooth="yes"/>
      <point x="442" y="153"/>
      <point x="382" y="89"/>
      <point x="287" y="89" type="curve" smooth="yes"/>
      <point x="232" y="89"/>
      <point x="191" y="89"/>
      <point x="163" y="89" type="curve"/>
      <point x="150" y="40"/>
      <point x="177" y="-20"/>
    </contour>
    <contour>
      <point x="435" y="711" type="move" name="top"/>
    </contour>
    <contour>
      <point x="358" y="-1" type="move" name="ogonek"/>
    </contour>
    <contour>
      <point x="257" y="-1" type="move" name="bottom"/>
    </contour>
  </outline>
</glyph>
<glyph name="P" format="1">
  <advance width="600"/>
  <unicode hex="0050"/>
  <outline>
    <contour>
      <point x="135" y="0" type="curve"/>
      <point x="143" y="33"/>
      <point x="152" y="66"/>
      <point x="160" y="100" type="curve" smooth="yes"/>
      <point x="298" y="649" type="line" smooth="yes"/>
      <point x="299" y="655"/>
      <point x="296" y="660"/>
      <point x="182" y="660" type="curve"/>
      <point x="19" y="11" type="line" smooth="yes"/>
      <point x="18" y="8"/>
      <point x="18" y="5"/>
      <point x="20" y="3" type="curve" smooth="yes"/>
      <point x="21" y="1"/>
      <point x="24" y="0"/>
      <point x="27" y="0" type="curve" smooth="yes"/>
      <point x="63" y="0"/>
      <point x="99" y="0"/>
    </contour>
    <contour>
      <point x="144" y="700" type="curve"/>
      <point x="136" y="667"/>
      <point x="129" y="639"/>
      <point x="121" y="606" type="curve"/>
      <point x="120" y="603"/>
      <point x="120" y="600"/>
      <point x="122" y="598" type="curve" smooth="yes"/>
      <point x="123" y="596"/>
      <point x="126" y="595"/>
      <point x="129" y="595" type="curve" smooth="yes"/>
      <point x="148" y="595"/>
      <point x="170" y="595"/>
      <point x="193" y="595" type="curve" smooth="yes"/>
      <point x="253" y="595"/>
      <point x="338" y="595"/>
      <point x="392" y="595" type="curve" smooth="yes"/>
      <point x="443" y="595"/>
      <point x="462" y="595"/>
      <point x="489" y="595" type="curve"/>
      <point x="504" y="656"/>
      <point x="481" y="700"/>
      <point x="414" y="700" type="curve" smooth="yes"/>
      <point x="341" y="700"/>
      <point x="226" y="700"/>
    </contour>
    <contour>
      <point x="578" y="413" type="curve" smooth="yes"/>
      <point x="596" y="483" type="line" smooth="yes"/>
      <point x="630" y="620"/>
      <point x="568" y="700"/>
      <point x="414" y="700" type="curve"/>
      <point x="410" y="700"/>
      <point x="392" y="686"/>
      <point x="392" y="595" type="curve"/>
      <point x="470" y="595"/>
      <point x="493" y="566"/>
      <point x="476" y="497" type="curve" smooth="yes"/>
      <point x="458" y="427" type="line" smooth="yes"/>
      <point x="444" y="369"/>
      <point x="400" y="335"/>
      <point x="338" y="335" type="curve" smooth="yes"/>
      <point x="302" y="335"/>
      <point x="230" y="335"/>
      <point x="183" y="335" type="curve"/>
      <point x="174" y="301"/>
      <point x="170" y="281"/>
      <point x="160" y="241" type="curve" smooth="yes"/>
      <point x="158" y="235"/>
      <point x="162" y="230"/>
      <point x="168" y="230" type="curve" smooth="yes"/>
      <point x="319" y="230" type="line" smooth="yes"/>
      <point x="453" y="230"/>
      <point x="545" y="284"/>
    </contour>
  </outline>
</glyph>
<glyph name="Q" format="1">
  <advance width="650"/>
  <unicode hex="0051"/>
  <outline>
    <contour>
      <point x="419" y="720" type="curve" smooth="yes"/>
      <point x="255" y="720"/>
      <point x="151" y="619"/>
      <point x="109" y="452" type="curve" smooth="yes"/>
      <point x="59" y="256" type="line" smooth="yes"/>
      <point x="15" y="77"/>
      <point x="114" y="-20"/>
      <point x="270" y="-20" type="curve" smooth="yes"/>
      <point x="276" y="-20"/>
      <point x="289" y="-5"/>
      <point x="287" y="89" type="curve"/>
      <point x="190" y="89"/>
      <point x="149" y="149"/>
      <point x="174" y="251" type="curve" smooth="yes"/>
      <point x="224" y="448" type="line" smooth="yes"/>
      <point x="249" y="551"/>
      <point x="309" y="611"/>
      <point x="404" y="611" type="curve" smooth="yes"/>
      <point x="459" y="611"/>
      <point x="500" y="611"/>
      <point x="528" y="611" type="curve"/>
      <point x="540" y="660"/>
      <point x="513" y="720"/>
    </contour>
    <contour>
      <point x="270" y="-20" type="curve" smooth="yes"/>
      <point x="431" y="-20"/>
      <point x="536" y="67"/>
      <point x="579" y="237" type="curve" smooth="yes"/>
      <point x="630" y="438" type="line" smooth="yes"/>
      <point x="676" y="620"/>
      <point x="576" y="720"/>
      <point x="419" y="720" type="curve" smooth="yes"/>
      <point x="413" y="720"/>
      <point x="401" y="708"/>
      <point x="404" y="611" type="curve"/>
      <point x="501" y="611"/>
      <point x="542" y="550"/>
      <point x="516" y="449" type="curve" smooth="yes"/>
      <point x="467" y="256" type="line" smooth="yes"/>
      <point x="442" y="153"/>
      <point x="382" y="89"/>
      <point x="287" y="89" type="curve" smooth="yes"/>
      <point x="232" y="89"/>
      <point x="191" y="89"/>
      <point x="163" y="89" type="curve"/>
      <point x="150" y="40"/>
      <point x="177" y="-20"/>
    </contour>
    <contour>
      <point x="430" y="97" type="line"/>
      <point x="325" y="57"/>
      <point x="317" y="50"/>
      <point x="325" y="32" type="curve" smooth="yes"/>
      <point x="371" y="-86" type="line" smooth="yes"/>
      <point x="391" y="-136"/>
      <point x="412" y="-157"/>
      <point x="475" y="-157" type="curve" smooth="yes"/>
      <point x="499" y="-157" type="line" smooth="yes"/>
      <point x="506" y="-157"/>
      <point x="511" y="-153"/>
      <point x="513" y="-146" type="curve" smooth="yes"/>
      <point x="522" y="-109"/>
      <point x="531" y="-72"/>
      <point x="541" y="-34" type="curve"/>
      <point x="534" y="-34" type="line"/>
      <point x="528" y="-34"/>
      <point x="523" y="-34"/>
      <point x="516" y="-34" type="curve" smooth="yes"/>
      <point x="488" y="-34"/>
      <point x="478" y="-30"/>
      <point x="469" y="-6" type="curve" smooth="yes"/>
    </contour>
  </outline>
</glyph>
<glyph name="S" format="1">
  <advance width="600"/>
  <unicode hex="0053"/>
  <outline>
    <contour>
      <point x="428" y="719" type="curve" smooth="yes"/>
      <point x="276" y="719"/>
      <point x="177" y="665"/>
      <point x="148" y="551" type="curve" smooth="yes"/>
      <point x="136" y="506" type="line" smooth="yes"/>
      <point x="129" y="478"/>
      <point x="171" y="437"/>
      <point x="230" y="433" type="curve"/>
      <point x="237" y="459"/>
      <point x="249" y="507"/>
      <point x="256" y="533" type="curve" smooth="yes"/>
      <point x="270" y="591"/>
      <point x="320" y="616"/>
      <point x="404" y="616" type="curve" smooth="yes"/>
      <point x="461" y="616"/>
      <point x="525" y="600"/>
      <point x="557" y="576" type="curve"/>
      <point x="607" y="629"/>
      <point x="611" y="636"/>
      <point x="613" y="645" type="curve" smooth="yes"/>
      <point x="616" y="657"/>
      <point x="616" y="658"/>
      <point x="611" y="664" type="curve" smooth="yes"/>
      <point x="592" y="688"/>
      <point x="519" y="719"/>
    </contour>
    <contour>
      <point x="403" y="381" type="curve" smooth="yes"/>
      <point x="316" y="409" type="line" smooth="yes"/>
      <point x="244" y="432"/>
      <point x="237" y="458"/>
      <point x="249" y="507" type="curve" smooth="yes"/>
      <point x="256" y="533"/>
      <point x="259" y="547"/>
      <point x="271" y="597" type="curve"/>
      <point x="197" y="592"/>
      <point x="158" y="590"/>
      <point x="136" y="506" type="curve" smooth="yes"/>
      <point x="119" y="437"/>
      <point x="138" y="357"/>
      <point x="255" y="319" type="curve" smooth="yes"/>
      <point x="342" y="290" type="line" smooth="yes"/>
      <point x="412" y="268"/>
      <point x="420" y="245"/>
      <point x="409" y="198" type="curve" smooth="yes"/>
      <point x="403" y="174"/>
      <point x="391" y="127"/>
      <point x="383" y="93" type="curve"/>
      <point x="433" y="93"/>
      <point x="507" y="139"/>
      <point x="520" y="194" type="curve"/>
      <point x="541" y="277"/>
      <point x="511" y="345"/>
    </contour>
    <contour>
      <point x="241" y="-19" type="curve" smooth="yes"/>
      <point x="389" y="-19"/>
      <point x="480" y="31"/>
      <point x="508" y="144" type="curve" smooth="yes"/>
      <point x="520" y="194" type="line" smooth="yes"/>
      <point x="525" y="211"/>
      <point x="486" y="244"/>
      <point x="421" y="244" type="curve"/>
      <point x="413" y="214"/>
      <point x="406" y="187"/>
      <point x="399" y="161" type="curve" smooth="yes"/>
      <point x="389" y="119"/>
      <point x="341" y="89"/>
      <point x="254" y="89" type="curve" smooth="yes"/>
      <point x="160" y="89"/>
      <point x="107" y="113"/>
      <point x="57" y="159" type="curve"/>
      <point x="39" y="159" type="line"/>
      <point x="34" y="137"/>
      <point x="25" y="106"/>
      <point x="15" y="64" type="curve" smooth="yes"/>
      <point x="14" y="60"/>
      <point x="13" y="57"/>
      <point x="16" y="53" type="curve" smooth="yes"/>
      <point x="43" y="18"/>
      <point x="128" y="-19"/>
    </contour>
    <contour>
      <point x="581" y="511" type="curve"/>
      <point x="613" y="645" type="line" smooth="yes"/>
      <point x="616" y="657"/>
      <point x="610" y="668"/>
      <point x="507" y="668" type="curve"/>
      <point x="505" y="658"/>
      <point x="502" y="644"/>
      <point x="498" y="629" type="curve" smooth="yes"/>
      <point x="471" y="522" type="line" smooth="yes"/>
      <point x="470" y="516"/>
      <point x="470" y="514"/>
      <point x="472" y="513" type="curve" smooth="yes"/>
      <point x="473" y="511"/>
      <point x="475" y="511"/>
      <point x="479" y="511" type="curve" smooth="yes"/>
      <point x="513" y="511"/>
      <point x="547" y="511"/>
    </contour>
    <contour>
      <point x="423" y="711" type="move" name="top"/>
    </contour>
    <contour>
      <point x="235" y="-1" type="move" name="bottom"/>
    </contour>
  </outline>
</glyph>
<glyph name="T" format="1">
  <advance width="600"/>
  <unicode hex="0054"/>
  <outline>
    <contour>
      <point x="161" y="700" type="line"/>
      <point x="154" y="668"/>
      <point x="146" y="637"/>
      <point x="138" y="606" type="curve" smooth="yes"/>
      <point x="137" y="603"/>
      <point x="137" y="600"/>
      <point x="139" y="598" type="curve" smooth="yes"/>
      <point x="140" y="596"/>
      <point x="143" y="595"/>
      <point x="146" y="595" type="curve" smooth="yes"/>
      <point x="628" y="595" type="line"/>
      <point x="636" y="626"/>
      <point x="644" y="658"/>
      <point x="651" y="689" type="curve" smooth="yes"/>
      <point x="653" y="695"/>
      <point x="649" y="700"/>
      <point x="643" y="700" type="curve" smooth="yes"/>
    </contour>
    <contour>
      <point x="294" y="0" type="curve"/>
      <point x="302" y="33"/>
      <point x="310" y="66"/>
      <point x="319" y="100" type="curve" smooth="yes"/>
      <point x="456" y="649" type="line" smooth="yes"/>
      <point x="458" y="655"/>
      <point x="454" y="660"/>
      <point x="337" y="660" type="curve"/>
      <point x="175" y="11" type="line" smooth="yes"/>
      <point x="174" y="8"/>
      <point x="174" y="5"/>
      <point x="176" y="3" type="curve" smooth="yes"/>
      <point x="177" y="1"/>
      <point x="180" y="0"/>
      <point x="183" y="0" type="curve" smooth="yes"/>
      <point x="220" y="0"/>
      <point x="257" y="0"/>
    </contour>
    <contour>
      <point x="410" y="711" type="move" name="top"/>
    </contour>
    <contour>
      <point x="232" y="-1" type="move" name="bottom"/>
    </contour>
  </outline>
</glyph>
<glyph name="U" format="1">
  <advance width="650"/>
  <unicode hex="0055"/>
  <outline>
    <contour>
      <point x="183" y="700" type="curve"/>
      <point x="175" y="667"/>
      <point x="166" y="633"/>
      <point x="158" y="600" type="curve" smooth="yes"/>
      <point x="53" y="179" type="line"/>
      <point x="40" y="128"/>
      <point x="78" y="110"/>
      <point x="157" y="108" type="curve"/>
      <point x="166" y="144"/>
      <point x="169" y="156"/>
      <point x="179" y="196" type="curve"/>
      <point x="302" y="689" type="line"/>
      <point x="304" y="695"/>
      <point x="300" y="700"/>
      <point x="294" y="700" type="curve"/>
      <point x="257" y="700"/>
      <point x="220" y="700"/>
    </contour>
    <contour>
      <point x="191" y="-13" type="curve" smooth="yes"/>
      <point x="273" y="-13"/>
      <point x="350" y="30"/>
      <point x="420" y="114" type="curve" smooth="yes"/>
      <point x="449" y="149"/>
      <point x="472" y="198"/>
      <point x="457" y="243" type="curve"/>
      <point x="373" y="147"/>
      <point x="305" y="102"/>
      <point x="239" y="102" type="curve" smooth="yes"/>
      <point x="182" y="102"/>
      <point x="163" y="132"/>
      <point x="179" y="196" type="curve"/>
      <point x="99" y="195"/>
      <point x="54" y="186"/>
      <point x="53" y="179" type="curve" smooth="yes"/>
      <point x="24" y="65"/>
      <point x="66" y="-13"/>
    </contour>
    <contour>
      <point x="506" y="0" type="curve"/>
      <point x="514" y="32"/>
      <point x="523" y="69"/>
      <point x="532" y="107" type="curve" smooth="yes"/>
      <point x="678" y="689" type="line" smooth="yes"/>
      <point x="680" y="695"/>
      <point x="676" y="700"/>
      <point x="670" y="700" type="curve" smooth="yes"/>
      <point x="633" y="700"/>
      <point x="596" y="700"/>
      <point x="559" y="700" type="curve"/>
      <point x="386" y="11" type="line" smooth="yes"/>
      <point x="386" y="8"/>
      <point x="386" y="5"/>
      <point x="387" y="3" type="curve" smooth="yes"/>
      <point x="389" y="1"/>
      <point x="392" y="0"/>
      <point x="395" y="0" type="curve" smooth="yes"/>
      <point x="432" y="0"/>
      <point x="469" y="0"/>
    </contour>
    <contour>
      <point x="434" y="711" type="move" name="top"/>
    </contour>
    <contour>
      <point x="506" y="-1" type="move" name="ogonek"/>
    </contour>
    <contour>
      <point x="434" y="711" type="move" name="ring"/>
    </contour>
    <contour>
      <point x="256" y="-1" type="move" name="bottom"/>
    </contour>
  </outline>
</glyph>
<glyph name="V" format="1">
  <advance width="650"/>
  <unicode hex="0056"/>
  <outline>
    <contour>
      <point x="248" y="700" type="curve"/>
      <point x="142" y="700" type="line"/>
      <point x="148" y="470"/>
      <point x="152" y="240"/>
      <point x="158" y="10" type="curve"/>
      <point x="158" y="1"/>
      <point x="164" y="-3"/>
      <point x="173" y="-3" type="curve"/>
      <point x="221" y="-3"/>
      <point x="299" y="16"/>
      <point x="328" y="101" type="curve"/>
      <point x="306" y="101"/>
      <point x="294" y="101"/>
      <point x="277" y="101" type="curve" smooth="yes"/>
      <point x="270" y="101"/>
      <point x="269" y="103"/>
      <point x="268" y="112" type="curve"/>
      <point x="265" y="303"/>
      <point x="262" y="495"/>
      <point x="259" y="687" type="curve"/>
      <point x="259" y="696"/>
      <point x="255" y="700"/>
    </contour>
    <contour>
      <point x="709" y="700" type="curve"/>
      <point x="600" y="700" type="line"/>
      <point x="493" y="492"/>
      <point x="385" y="282"/>
      <point x="278" y="74" type="curve"/>
      <point x="254" y="22"/>
      <point x="214" y="6"/>
      <point x="173" y="-3" type="curve"/>
      <point x="355" y="-3" type="line"/>
      <point x="476" y="226"/>
      <point x="595" y="455"/>
      <point x="715" y="684" type="curve"/>
      <point x="719" y="693"/>
      <point x="718" y="700"/>
    </contour>
  </outline>
</glyph>
<glyph name="W" format="1">
  <advance width="900"/>
  <unicode hex="0057"/>
  <outline>
    <contour>
      <point x="140" y="700" type="curve"/>
      <point x="130" y="471"/>
      <point x="119" y="242"/>
      <point x="108" y="14" type="curve"/>
      <point x="107" y="4"/>
      <point x="115" y="0"/>
      <point x="123" y="0" type="curve"/>
      <point x="145" y="0" type="line" smooth="yes"/>
      <point x="169" y="0"/>
      <point x="209" y="17"/>
      <point x="220" y="32" type="curve"/>
      <point x="233" y="249"/>
      <point x="245" y="468"/>
      <point x="258" y="685" type="curve"/>
      <point x="259" y="693"/>
      <point x="259" y="696"/>
      <point x="257" y="697" type="curve" smooth="yes"/>
      <point x="256" y="699"/>
      <point x="254" y="700"/>
      <point x="250" y="700" type="curve"/>
      <point x="212" y="700"/>
      <point x="178" y="700"/>
    </contour>
    <contour>
      <point x="851" y="700" type="curve"/>
      <point x="758" y="492"/>
      <point x="666" y="283"/>
      <point x="573" y="75" type="curve"/>
      <point x="557" y="29"/>
      <point x="547" y="10"/>
      <point x="528" y="0" type="curve"/>
      <point x="658" y="0" type="line"/>
      <point x="762" y="229"/>
      <point x="866" y="458"/>
      <point x="970" y="687" type="curve" smooth="yes"/>
      <point x="972" y="693"/>
      <point x="972" y="695"/>
      <point x="971" y="697" type="curve" smooth="yes"/>
      <point x="970" y="699"/>
      <point x="969" y="700"/>
      <point x="965" y="700" type="curve"/>
      <point x="927" y="700"/>
      <point x="889" y="700"/>
    </contour>
    <contour>
      <point x="563" y="616" type="curve"/>
      <point x="476" y="616" type="line"/>
      <point x="385" y="436"/>
      <point x="292" y="255"/>
      <point x="200" y="75" type="curve"/>
      <point x="176" y="25"/>
      <point x="151" y="12"/>
      <point x="123" y="0" type="curve"/>
      <point x="267" y="0" type="line"/>
      <point x="368" y="198"/>
      <point x="469" y="398"/>
      <point x="570" y="596" type="curve" smooth="yes"/>
      <point x="577" y="609"/>
      <point x="574" y="616"/>
    </contour>
    <contour>
      <point x="582" y="616" type="curve"/>
      <point x="493" y="616" type="line"/>
      <point x="495" y="415"/>
      <point x="497" y="214"/>
      <point x="498" y="14" type="curve" smooth="yes"/>
      <point x="498" y="4"/>
      <point x="505" y="0"/>
      <point x="513" y="0" type="curve"/>
      <point x="565" y="0" type="line"/>
      <point x="576" y="0"/>
      <point x="597" y="10"/>
      <point x="597" y="25" type="curve"/>
      <point x="595" y="218"/>
      <point x="594" y="412"/>
      <point x="592" y="605" type="curve" smooth="yes"/>
      <point x="592" y="613"/>
      <point x="588" y="616"/>
    </contour>
    <contour>
      <point x="559" y="711" type="move" name="top"/>
    </contour>
  </outline>
</glyph>
<glyph name="X" format="1">
  <advance width="650"/>
  <unicode hex="0058"/>
  <outline>
    <contour>
      <point x="443" y="0" type="curve" smooth="yes"/>
      <point x="482" y="0"/>
      <point x="518" y="0"/>
      <point x="557" y="0" type="curve"/>
      <point x="504" y="126"/>
      <point x="452" y="251"/>
      <point x="400" y="377" type="curve" smooth="yes"/>
      <point x="394" y="396"/>
      <point x="381" y="404"/>
      <point x="374" y="421" type="curve" smooth="yes"/>
      <point x="339" y="511"/>
      <point x="303" y="601"/>
      <point x="267" y="691" type="curve" smooth="yes"/>
      <point x="264" y="698"/>
      <point x="260" y="700"/>
      <point x="251" y="700" type="curve" smooth="yes"/>
      <point x="139" y="700" type="line"/>
      <point x="187" y="576"/>
      <point x="235" y="454"/>
      <point x="283" y="330" type="curve" smooth="yes"/>
      <point x="289" y="313"/>
      <point x="304" y="302"/>
      <point x="311" y="285" type="curve" smooth="yes"/>
      <point x="349" y="193"/>
      <point x="389" y="100"/>
      <point x="427" y="9" type="curve" smooth="yes"/>
      <point x="430" y="2"/>
      <point x="435" y="0"/>
    </contour>
    <contour>
      <point x="717" y="700" type="curve" smooth="yes"/>
      <point x="593" y="700" type="line"/>
      <point x="499" y="593"/>
      <point x="405" y="485"/>
      <point x="311" y="377" type="curve"/>
      <point x="296" y="360"/>
      <point x="319" y="346"/>
      <point x="391" y="314" type="curve"/>
      <point x="501" y="436"/>
      <point x="610" y="558"/>
      <point x="722" y="683" type="curve"/>
      <point x="727" y="689"/>
      <point x="728" y="694"/>
      <point x="726" y="697" type="curve" smooth="yes"/>
      <point x="724" y="699"/>
      <point x="721" y="700"/>
    </contour>
    <contour>
      <point x="-38" y="0" type="curve"/>
      <point x="88" y="0" type="line"/>
      <point x="184" y="108"/>
      <point x="280" y="215"/>
      <point x="374" y="323" type="curve"/>
      <point x="388" y="339"/>
      <point x="365" y="354"/>
      <point x="294" y="386" type="curve"/>
      <point x="183" y="264"/>
      <point x="69" y="140"/>
      <point x="-42" y="18" type="curve" smooth="yes"/>
      <point x="-48" y="12"/>
      <point x="-49" y="7"/>
      <point x="-46" y="3" type="curve" smooth="yes"/>
      <point x="-45" y="1"/>
      <point x="-42" y="0"/>
    </contour>
  </outline>
</glyph>
<glyph name="Y" format="1">
  <advance width="600"/>
  <unicode hex="0059"/>
  <outline>
    <contour>
      <point x="132" y="700" type="line"/>
      <point x="168" y="551"/>
      <point x="207" y="400"/>
      <point x="242" y="250" type="curve"/>
      <point x="244" y="243"/>
      <point x="250" y="240"/>
      <point x="258" y="240" type="curve"/>
      <point x="304" y="240"/>
      <point x="334" y="300"/>
      <point x="330" y="330" type="curve"/>
      <point x="305" y="448"/>
      <point x="280" y="567"/>
      <point x="257" y="685" type="curve"/>
      <point x="256" y="695"/>
      <point x="253" y="700"/>
      <point x="243" y="700" type="curve" smooth="yes"/>
    </contour>
    <contour>
      <point x="548" y="700" type="line"/>
      <point x="463" y="576"/>
      <point x="378" y="453"/>
      <point x="293" y="329" type="curve"/>
      <point x="261" y="282"/>
      <point x="268" y="257"/>
      <point x="258" y="240" type="curve"/>
      <point x="340" y="240" type="line"/>
      <point x="450" y="386"/>
      <point x="563" y="537"/>
      <point x="673" y="683" type="curve"/>
      <point x="679" y="692"/>
      <point x="675" y="700"/>
      <point x="667" y="700" type="curve"/>
    </contour>
    <contour>
      <point x="292" y="0" type="curve"/>
      <point x="300" y="33"/>
      <point x="309" y="66"/>
      <point x="317" y="100" type="curve" smooth="yes"/>
      <point x="366" y="296" type="line" smooth="yes"/>
      <point x="368" y="302"/>
      <point x="364" y="307"/>
      <point x="247" y="307" type="curve"/>
      <point x="173" y="11" type="line" smooth="yes"/>
      <point x="172" y="8"/>
      <point x="172" y="5"/>
      <point x="174" y="3" type="curve" smooth="yes"/>
      <point x="175" y="1"/>
      <point x="178" y="0"/>
      <point x="181" y="0" type="curve" smooth="yes"/>
      <point x="218" y="0"/>
      <point x="255" y="0"/>
    </contour>
    <contour>
      <point x="410" y="711" type="move" name="top"/>
    </contour>
  </outline>
</glyph>
<glyph name="Z" format="1">
  <advance width="600"/>
  <unicode hex="005A"/>
  <outline>
    <contour>
      <point x="204" y="700" type="line"/>
      <point x="196" y="667"/>
      <point x="189" y="639"/>
      <point x="181" y="606" type="curve" smooth="yes"/>
      <point x="180" y="603"/>
      <point x="180" y="600"/>
      <point x="182" y="598" type="curve" smooth="yes"/>
      <point x="183" y="596"/>
      <point x="186" y="595"/>
      <point x="189" y="595" type="curve" smooth="yes"/>
      <point x="486" y="595" type="line" smooth="yes"/>
      <point x="522" y="595"/>
      <point x="575" y="597"/>
      <point x="616" y="603" type="curve" smooth="yes"/>
      <point x="622" y="604"/>
      <point x="627" y="604"/>
      <point x="631" y="604" type="curve"/>
      <point x="652" y="689" type="line" smooth="yes"/>
      <point x="653" y="695"/>
      <point x="649" y="700"/>
      <point x="643" y="700" type="curve" smooth="yes"/>
    </contour>
    <contour>
      <point x="516" y="638" type="curve"/>
      <point x="348" y="459"/>
      <point x="178" y="275"/>
      <point x="10" y="95" type="curve"/>
      <point x="104" y="58"/>
      <point x="123" y="57"/>
      <point x="132" y="66" type="curve" smooth="yes"/>
      <point x="394" y="347"/>
      <point x="630" y="603"/>
      <point x="631" y="604" type="curve"/>
      <point x="545" y="645"/>
      <point x="526" y="649"/>
    </contour>
    <contour>
      <point x="483" y="0" type="line"/>
      <point x="491" y="33"/>
      <point x="498" y="61"/>
      <point x="507" y="94" type="curve" smooth="yes"/>
      <point x="508" y="97"/>
      <point x="507" y="101"/>
      <point x="506" y="103" type="curve" smooth="yes"/>
      <point x="504" y="105"/>
      <point x="501" y="105"/>
      <point x="498" y="105" type="curve" smooth="yes"/>
      <point x="158" y="105" type="line" smooth="yes"/>
      <point x="115" y="105"/>
      <point x="56" y="105"/>
      <point x="10" y="95" type="curve"/>
      <point x="-11" y="11" type="line" smooth="yes"/>
      <point x="-12" y="5"/>
      <point x="-9" y="0"/>
      <point x="-3" y="0" type="curve" smooth="yes"/>
    </contour>
    <contour>
      <point x="239" y="524" type="curve"/>
      <point x="253" y="579"/>
      <point x="266" y="627"/>
      <point x="280" y="683" type="curve"/>
      <point x="283" y="696"/>
      <point x="278" y="700"/>
      <point x="266" y="700" type="curve" smooth="yes"/>
      <point x="168" y="700" type="line"/>
      <point x="153" y="642"/>
      <point x="141" y="592"/>
      <point x="126" y="535" type="curve"/>
      <point x="125" y="529"/>
      <point x="129" y="524"/>
      <point x="135" y="524" type="curve" smooth="yes"/>
      <point x="169" y="524"/>
      <point x="205" y="524"/>
    </contour>
    <contour>
      <point x="410" y="711" type="move" name="top"/>
    </contour>
  </outline>
</glyph>
<glyph name="bracketleft" format="1">
  <advance width="400"/>
  <unicode hex="005B"/>
  <outline>
    <contour>
      <point x="145" y="646" type="curve" smooth="yes"/>
      <point x="-25" y="-31" type="line" smooth="yes"/>
      <point x="-27" y="-41"/>
      <point x="-1" y="-42"/>
      <point x="95" y="-42" type="curve"/>
      <point x="291" y="742" type="line" smooth="yes"/>
      <point x="292" y="748"/>
      <point x="286" y="753"/>
      <point x="259" y="753" type="curve" smooth="yes"/>
      <point x="224" y="753"/>
      <point x="206" y="753"/>
      <point x="171" y="753" type="curve"/>
      <point x="162" y="717"/>
      <point x="154" y="682"/>
    </contour>
    <contour>
      <point x="459" y="643" type="line"/>
      <point x="468" y="678"/>
      <point x="475" y="708"/>
      <point x="484" y="742" type="curve" smooth="yes"/>
      <point x="485" y="745"/>
      <point x="484" y="748"/>
      <point x="483" y="750" type="curve" smooth="yes"/>
      <point x="481" y="752"/>
      <point x="479" y="753"/>
      <point x="475" y="753" type="curve" smooth="yes"/>
      <point x="259" y="753" type="line"/>
      <point x="232" y="648"/>
      <point x="237" y="643"/>
      <point x="242" y="643" type="curve"/>
    </contour>
    <contour>
      <point x="263" y="-141" type="line"/>
      <point x="272" y="-106"/>
      <point x="279" y="-76"/>
      <point x="288" y="-41" type="curve" smooth="yes"/>
      <point x="289" y="-35"/>
      <point x="285" y="-30"/>
      <point x="279" y="-30" type="curve" smooth="yes"/>
      <point x="-25" y="-30" type="line"/>
      <point x="-49" y="-130" type="line" smooth="yes"/>
      <point x="-51" y="-136"/>
      <point x="-47" y="-141"/>
      <point x="-41" y="-141" type="curve" smooth="yes"/>
    </contour>
  </outline>
</glyph>
<glyph name="bracketright" format="1">
  <advance width="400"/>
  <unicode hex="005D"/>
  <outline>
    <contour>
      <point x="275" y="-33" type="curve" smooth="yes"/>
      <point x="444" y="644" type="line" smooth="yes"/>
      <point x="447" y="654"/>
      <point x="420" y="655"/>
      <point x="325" y="655" type="curve"/>
      <point x="129" y="-129" type="line" smooth="yes"/>
      <point x="127" y="-135"/>
      <point x="134" y="-140"/>
      <point x="161" y="-140" type="curve" smooth="yes"/>
      <point x="195" y="-140"/>
      <point x="213" y="-140"/>
      <point x="248" y="-140" type="curve"/>
      <point x="257" y="-104"/>
      <point x="266" y="-69"/>
    </contour>
    <contour>
      <point x="-40" y="-30" type="line"/>
      <point x="-48" y="-65"/>
      <point x="-56" y="-95"/>
      <point x="-64" y="-129" type="curve" smooth="yes"/>
      <point x="-65" y="-132"/>
      <point x="-65" y="-135"/>
      <point x="-63" y="-137" type="curve" smooth="yes"/>
      <point x="-62" y="-139"/>
      <point x="-59" y="-140"/>
      <point x="-56" y="-140" type="curve" smooth="yes"/>
      <point x="161" y="-140" type="line"/>
      <point x="187" y="-35"/>
      <point x="182" y="-30"/>
      <point x="178" y="-30" type="curve"/>
    </contour>
    <contour>
      <point x="156" y="754" type="line"/>
      <point x="148" y="719"/>
      <point x="140" y="689"/>
      <point x="131" y="654" type="curve" smooth="yes"/>
      <point x="130" y="648"/>
      <point x="134" y="643"/>
      <point x="140" y="643" type="curve" smooth="yes"/>
      <point x="444" y="643" type="line"/>
      <point x="469" y="743" type="line" smooth="yes"/>
      <point x="470" y="749"/>
      <point x="466" y="754"/>
      <point x="460" y="754" type="curve" smooth="yes"/>
    </contour>
  </outline>
</glyph>
<glyph name="asciicircum" format="1">
  <advance width="600"/>
  <unicode hex="005E"/>
  <outline>
    <contour>
      <point x="178" y="362" type="line"/>
      <point x="265" y="484"/>
      <point x="314" y="553"/>
      <point x="402" y="675" type="curve"/>
      <point x="434" y="721"/>
      <point x="446" y="733"/>
      <point x="471" y="750" type="curve"/>
      <point x="336" y="750" type="line"/>
      <point x="235" y="610"/>
      <point x="109" y="436"/>
      <point x="78" y="392" type="curve" smooth="yes"/>
      <point x="68" y="378"/>
      <point x="66" y="374"/>
      <point x="65" y="370" type="curve" smooth="yes"/>
      <point x="64" y="365"/>
      <point x="67" y="362"/>
      <point x="72" y="362" type="curve"/>
    </contour>
    <contour>
      <point x="583" y="363" type="curve"/>
      <point x="553" y="505"/>
      <point x="535" y="594"/>
      <point x="505" y="736" type="curve" smooth="yes"/>
      <point x="504" y="746"/>
      <point x="499" y="750"/>
      <point x="489" y="750" type="curve" smooth="yes"/>
      <point x="462" y="750" type="line" smooth="yes"/>
      <point x="412" y="750"/>
      <point x="342" y="717"/>
      <point x="321" y="637" type="curve"/>
      <point x="351" y="637"/>
      <point x="374" y="637"/>
      <point x="393" y="637" type="curve" smooth="yes"/>
      <point x="402" y="637"/>
      <point x="405" y="635"/>
      <point x="407" y="627" type="curve" smooth="yes"/>
      <point x="429" y="525"/>
      <point x="440" y="474"/>
      <point x="462" y="373" type="curve" smooth="yes"/>
      <point x="464" y="364"/>
      <point x="467" y="363"/>
      <point x="476" y="363" type="curve" smooth="yes"/>
      <point x="513" y="363"/>
      <point x="546" y="363"/>
    </contour>
  </outline>
</glyph>
<glyph name="grave" format="1">
  <advance width="514"/>
  <unicode hex="0060"/>
  <outline>
    <contour>
      <point x="398" y="386" type="curve"/>
      <point x="401" y="495"/>
      <point x="405" y="605"/>
      <point x="408" y="714" type="curve"/>
      <point x="339" y="714"/>
      <point x="305" y="714"/>
      <point x="246" y="714" type="curve" smooth="yes"/>
      <point x="238" y="714"/>
      <point x="234" y="709"/>
      <point x="235" y="701" type="curve" smooth="yes"/>
      <point x="249" y="613"/>
      <point x="265" y="496"/>
      <point x="280" y="393" type="curve" smooth="yes"/>
      <point x="281" y="387"/>
      <point x="283" y="386"/>
      <point x="288" y="386" type="curve" smooth="yes"/>
      <point x="336" y="386"/>
      <point x="369" y="386"/>
    </contour>
  </outline>
</glyph>
<glyph name="b" format="1">
  <advance width="600"/>
  <unicode hex="0062"/>
  <outline>
    <contour>
      <point x="16" y="0" type="line"/>
      <point x="37" y="0"/>
      <point x="56" y="0"/>
      <point x="77" y="0" type="curve" smooth="yes"/>
      <point x="90" y="0"/>
      <point x="155" y="77"/>
      <point x="161" y="103" type="curve" smooth="yes"/>
      <point x="321" y="739" type="line"/>
      <point x="323" y="745"/>
      <point x="319" y="750"/>
      <point x="313" y="750" type="curve" smooth="yes"/>
      <point x="277" y="750"/>
      <point x="241" y="750"/>
      <point x="205" y="750" type="curve"/>
      <point x="194" y="707"/>
      <point x="183" y="663"/>
      <point x="172" y="619" type="curve" smooth="yes"/>
    </contour>
    <contour>
      <point x="421" y="547" type="curve" smooth="yes"/>
      <point x="360" y="547"/>
      <point x="303" y="518"/>
      <point x="248" y="466" type="curve" smooth="yes"/>
      <point x="201" y="421"/>
      <point x="179" y="384"/>
      <point x="186" y="350" type="curve"/>
      <point x="270" y="412"/>
      <point x="322" y="437"/>
      <point x="380" y="437" type="curve" smooth="yes"/>
      <point x="432" y="437"/>
      <point x="455" y="409"/>
      <point x="436" y="337" type="curve"/>
      <point x="532" y="320"/>
      <point x="552" y="324"/>
      <point x="555" y="335" type="curve" smooth="yes"/>
      <point x="585" y="453"/>
      <point x="535" y="547"/>
    </contour>
    <contour>
      <point x="304" y="-10" type="curve" smooth="yes"/>
      <point x="411" y="-10"/>
      <point x="484" y="44"/>
      <point x="522" y="202" type="curve" smooth="yes"/>
      <point x="555" y="335" type="line" smooth="yes"/>
      <point x="571" y="396"/>
      <point x="539" y="474"/>
      <point x="479" y="474" type="curve"/>
      <point x="454" y="474"/>
      <point x="437" y="464"/>
      <point x="432" y="446" type="curve"/>
      <point x="447" y="413"/>
      <point x="453" y="398"/>
      <point x="436" y="337" type="curve" smooth="yes"/>
      <point x="406" y="211" type="line" smooth="yes"/>
      <point x="385" y="128"/>
      <point x="346" y="97"/>
      <point x="291" y="97" type="curve" smooth="yes"/>
      <point x="237" y="97"/>
      <point x="194" y="116"/>
      <point x="154" y="180" type="curve"/>
      <point x="139" y="165"/>
      <point x="128" y="140"/>
      <point x="128" y="128" type="curve" smooth="yes"/>
      <point x="128" y="73"/>
      <point x="195" y="-10"/>
    </contour>
  </outline>
</glyph>
<glyph name="c" format="1">
  <advance width="500"/>
  <unicode hex="0063"/>
  <outline>
    <contour>
      <point x="371" y="547" type="curve" smooth="yes"/>
      <point x="215" y="547"/>
      <point x="113" y="474"/>
      <point x="75" y="321" type="curve" smooth="yes"/>
      <point x="55" y="239" type="line" smooth="yes"/>
      <point x="18" y="84"/>
      <point x="85" y="-11"/>
      <point x="247" y="-11" type="curve" smooth="yes"/>
      <point x="272" y="-11"/>
      <point x="272" y="5"/>
      <point x="265" y="98" type="curve"/>
      <point x="179" y="98"/>
      <point x="152" y="153"/>
      <point x="174" y="240" type="curve" smooth="yes"/>
      <point x="192" y="311" type="line" smooth="yes"/>
      <point x="215" y="405"/>
      <point x="271" y="437"/>
      <point x="350" y="437" type="curve" smooth="yes"/>
      <point x="400" y="437"/>
      <point x="436" y="425"/>
      <point x="466" y="410" type="curve"/>
      <point x="483" y="410" type="line"/>
      <point x="492" y="444"/>
      <point x="499" y="472"/>
      <point x="507" y="506" type="curve"/>
      <point x="508" y="510"/>
      <point x="508" y="512"/>
      <point x="506" y="515" type="curve" smooth="yes"/>
      <point x="497" y="527"/>
      <point x="446" y="547"/>
    </contour>
    <contour>
      <point x="247" y="-11" type="curve" smooth="yes"/>
      <point x="325" y="-11"/>
      <point x="367" y="8"/>
      <point x="383" y="21" type="curve" smooth="yes"/>
      <point x="386" y="23"/>
      <point x="387" y="26"/>
      <point x="388" y="29" type="curve"/>
      <point x="397" y="61"/>
      <point x="406" y="98"/>
      <point x="414" y="130" type="curve"/>
      <point x="397" y="130" type="line"/>
      <point x="355" y="111"/>
      <point x="314" y="98"/>
      <point x="265" y="98" type="curve" smooth="yes"/>
      <point x="189" y="98"/>
      <point x="148" y="122"/>
      <point x="108" y="169" type="curve"/>
      <point x="59" y="85"/>
      <point x="103" y="-11"/>
    </contour>
    <contour>
      <point x="354" y="546" type="move" name="top"/>
    </contour>
    <contour>
      <point x="217" y="-1" type="move" name="bottom"/>
    </contour>
  </outline>
</glyph>
<glyph name="e" format="1">
  <advance width="600"/>
  <unicode hex="0065"/>
  <outline>
    <contour>
      <point x="338" y="442" type="curve" smooth="yes"/>
      <point x="407" y="442"/>
      <point x="442" y="422"/>
      <point x="459" y="362" type="curve"/>
      <point x="483" y="379"/>
      <point x="505" y="403"/>
      <point x="512" y="433" type="curve"/>
      <point x="528" y="497"/>
      <point x="439" y="547"/>
      <point x="358" y="547" type="curve"/>
      <point x="216" y="547"/>
      <point x="127" y="482"/>
      <point x="88" y="333" type="curve" smooth="yes"/>
      <point x="63" y="229" type="line" smooth="yes"/>
      <point x="24" y="75"/>
      <point x="117" y="-11"/>
      <point x="273" y="-11" type="curve" smooth="yes"/>
      <point x="297" y="-11"/>
      <point x="294" y="9"/>
      <point x="291" y="99" type="curve"/>
      <point x="199" y="99"/>
      <point x="155" y="134"/>
      <point x="176" y="218" type="curve" smooth="yes"/>
      <point x="201" y="322" type="line" smooth="yes"/>
      <point x="223" y="408"/>
      <point x="257" y="442"/>
    </contour>
    <contour>
      <point x="445" y="28" type="curve" smooth="yes"/>
      <point x="449" y="31"/>
      <point x="450" y="33"/>
      <point x="451" y="37" type="curve" smooth="yes"/>
      <point x="459" y="70"/>
      <point x="468" y="105"/>
      <point x="476" y="133" type="curve"/>
      <point x="458" y="133" type="line"/>
      <point x="409" y="113"/>
      <point x="362" y="99"/>
      <point x="291" y="99" type="curve" smooth="yes"/>
      <point x="213" y="99"/>
      <point x="186" y="112"/>
      <point x="145" y="134" type="curve"/>
      <point x="119" y="58"/>
      <point x="188" y="-11"/>
      <point x="273" y="-11" type="curve" smooth="yes"/>
      <point x="378" y="-11"/>
      <point x="428" y="12"/>
    </contour>
    <contour>
      <point x="504" y="232" type="line" smooth="yes"/>
      <point x="510" y="232"/>
      <point x="515" y="236"/>
      <point x="517" y="242" type="curve" smooth="yes"/>
      <point x="535" y="315" type="line" smooth="yes"/>
      <point x="575" y="480"/>
      <point x="493" y="547"/>
      <point x="358" y="547" type="curve" smooth="yes"/>
      <point x="346" y="547"/>
      <point x="335" y="533"/>
      <point x="338" y="442" type="curve"/>
      <point x="415" y="442"/>
      <point x="445" y="412"/>
      <point x="424" y="332" type="curve" smooth="yes"/>
      <point x="419" y="314" type="line" smooth="yes"/>
      <point x="419" y="313"/>
      <point x="419" y="313"/>
      <point x="418" y="313" type="curve" smooth="yes"/>
      <point x="276" y="313"/>
      <point x="224" y="313"/>
      <point x="121" y="313" type="curve"/>
      <point x="112" y="279"/>
      <point x="110" y="260"/>
      <point x="119" y="247" type="curve" smooth="yes"/>
      <point x="127" y="237"/>
      <point x="140" y="232"/>
      <point x="157" y="232" type="curve" smooth="yes"/>
    </contour>
    <contour>
      <point x="372" y="546" type="move" name="top"/>
    </contour>
    <contour>
      <point x="413" y="13" type="move" name="ogonek"/>
    </contour>
    <contour>
      <point x="235" y="-1" type="move" name="bottom"/>
    </contour>
  </outline>
</glyph>
<glyph name="g" format="1">
  <advance width="600"/>
  <unicode hex="0067"/>
  <outline>
    <contour>
      <point x="342" y="446" type="curve" smooth="yes"/>
      <point x="430" y="446"/>
      <point x="529" y="446"/>
      <point x="606" y="446" type="curve" smooth="yes"/>
      <point x="612" y="446"/>
      <point x="618" y="451"/>
      <point x="620" y="457" type="curve" smooth="yes"/>
      <point x="627" y="486"/>
      <point x="634" y="514"/>
      <point x="641" y="543" type="curve"/>
      <point x="547" y="543"/>
      <point x="454" y="543"/>
      <point x="360" y="543" type="curve" smooth="yes"/>
      <point x="219" y="543"/>
      <point x="125" y="493"/>
      <point x="97" y="381" type="curve" smooth="yes"/>
      <point x="91" y="353" type="line" smooth="yes"/>
      <point x="64" y="248"/>
      <point x="136" y="176"/>
      <point x="278" y="174" type="curve"/>
      <point x="289" y="174"/>
      <point x="309" y="200"/>
      <point x="293" y="265" type="curve"/>
      <point x="235" y="265"/>
      <point x="190" y="292"/>
      <point x="202" y="339" type="curve" smooth="yes"/>
      <point x="209" y="369" type="line" smooth="yes"/>
      <point x="222" y="420"/>
      <point x="274" y="446"/>
    </contour>
    <contour>
      <point x="293" y="265" type="curve" smooth="yes"/>
      <point x="236" y="265"/>
      <point x="189" y="279"/>
      <point x="157" y="301" type="curve"/>
      <point x="125" y="260"/>
      <point x="171" y="174"/>
      <point x="278" y="174" type="curve" smooth="yes"/>
      <point x="406" y="174"/>
      <point x="497" y="225"/>
      <point x="521" y="320" type="curve" smooth="yes"/>
      <point x="527" y="344" type="line" smooth="yes"/>
      <point x="541" y="402"/>
      <point x="500" y="461"/>
      <point x="426" y="461" type="curve" smooth="yes"/>
      <point x="413" y="461"/>
      <point x="402" y="459"/>
      <point x="388" y="454" type="curve"/>
      <point x="419" y="425"/>
      <point x="423" y="390"/>
      <point x="415" y="358" type="curve" smooth="yes"/>
      <point x="409" y="335" type="line" smooth="yes"/>
      <point x="397" y="290"/>
      <point x="357" y="265"/>
    </contour>
    <contour>
      <point x="86" y="91" type="curve" smooth="yes"/>
      <point x="85" y="85" type="line" smooth="yes"/>
      <point x="70" y="25"/>
      <point x="108" y="-13"/>
      <point x="183" y="-13" type="curve" smooth="yes"/>
      <point x="301" y="-13" type="line" smooth="yes"/>
      <point x="358" y="-13"/>
      <point x="375" y="-36"/>
      <point x="364" y="-78" type="curve" smooth="yes"/>
      <point x="359" y="-100" type="line" smooth="yes"/>
      <point x="350" y="-133"/>
      <point x="318" y="-162"/>
      <point x="256" y="-162" type="curve"/>
      <point x="223" y="-237"/>
      <point x="222" y="-250"/>
      <point x="233" y="-250" type="curve" smooth="yes"/>
      <point x="358" y="-250"/>
      <point x="450" y="-207"/>
      <point x="480" y="-87" type="curve" smooth="yes"/>
      <point x="484" y="-71" type="line" smooth="yes"/>
      <point x="506" y="20"/>
      <point x="453" y="86"/>
      <point x="328" y="86" type="curve" smooth="yes"/>
      <point x="222" y="86" type="line" smooth="yes"/>
      <point x="204" y="86"/>
      <point x="198" y="93"/>
      <point x="203" y="111" type="curve" smooth="yes"/>
      <point x="206" y="122" type="line" smooth="yes"/>
      <point x="210" y="141"/>
      <point x="221" y="167"/>
      <point x="235" y="189" type="curve"/>
      <point x="236" y="193"/>
      <point x="236" y="201"/>
      <point x="229" y="203" type="curve" smooth="yes"/>
      <point x="158" y="203"/>
      <point x="98" y="141"/>
    </contour>
    <contour>
      <point x="366" y="-148" type="curve"/>
      <point x="327" y="-160"/>
      <point x="295" y="-162"/>
      <point x="256" y="-162" type="curve" smooth="yes"/>
      <point x="149" y="-162" type="line" smooth="yes"/>
      <point x="81" y="-162"/>
      <point x="59" y="-140"/>
      <point x="71" y="-93" type="curve" smooth="yes"/>
      <point x="77" y="-68" type="line" smooth="yes"/>
      <point x="85" y="-37"/>
      <point x="103" y="-12"/>
      <point x="154" y="8" type="curve"/>
      <point x="156" y="26"/>
      <point x="149" y="41"/>
      <point x="117" y="40" type="curve" smooth="yes"/>
      <point x="35" y="35"/>
      <point x="-29" y="-19"/>
      <point x="-46" y="-89" type="curve" smooth="yes"/>
      <point x="-49" y="-105" type="line" smooth="yes"/>
      <point x="-70" y="-192"/>
      <point x="-6" y="-250"/>
      <point x="101" y="-250" type="curve" smooth="yes"/>
      <point x="233" y="-250" type="line" smooth="yes"/>
      <point x="287" y="-250"/>
      <point x="352" y="-218"/>
    </contour>
  </outline>
</glyph>
<glyph name="h" format="1">
  <advance width="600"/>
  <unicode hex="0068"/>
  <outline>
    <contour>
      <point x="139" y="0" type="curve"/>
      <point x="327" y="739" type="line" smooth="yes"/>
      <point x="327" y="743"/>
      <point x="327" y="746"/>
      <point x="326" y="748" type="curve" smooth="yes"/>
      <point x="324" y="750"/>
      <point x="321" y="750"/>
      <point x="318" y="750" type="curve" smooth="yes"/>
      <point x="284" y="750"/>
      <point x="247" y="750"/>
      <point x="207" y="750" type="curve"/>
      <point x="201" y="726"/>
      <point x="192" y="692"/>
      <point x="182" y="652" type="curve" smooth="yes"/>
      <point x="19" y="11" type="line" smooth="yes"/>
      <point x="18" y="5"/>
      <point x="21" y="0"/>
      <point x="27" y="0" type="curve" smooth="yes"/>
      <point x="65" y="0"/>
      <point x="101" y="0"/>
    </contour>
    <contour>
      <point x="443" y="547" type="curve" smooth="yes"/>
      <point x="376" y="547"/>
      <point x="317" y="519"/>
      <point x="246" y="451" type="curve" smooth="yes"/>
      <point x="214" y="422"/>
      <point x="202" y="394"/>
      <point x="187" y="320" type="curve"/>
      <point x="276" y="401"/>
      <point x="332" y="434"/>
      <point x="385" y="434" type="curve" smooth="yes"/>
      <point x="431" y="434"/>
      <point x="459" y="411"/>
      <point x="454" y="346" type="curve"/>
      <point x="517" y="353"/>
      <point x="542" y="366"/>
      <point x="550" y="394" type="curve" smooth="yes"/>
      <point x="570" y="472"/>
      <point x="533" y="547"/>
    </contour>
    <contour>
      <point x="451" y="0" type="curve"/>
      <point x="459" y="31"/>
      <point x="467" y="64"/>
      <point x="476" y="98" type="curve" smooth="yes"/>
      <point x="550" y="394" type="line"/>
      <point x="567" y="453"/>
      <point x="499" y="473"/>
      <point x="428" y="438" type="curve"/>
      <point x="431" y="417"/>
      <point x="432" y="404"/>
      <point x="423" y="368" type="curve" smooth="yes"/>
      <point x="331" y="11" type="line" smooth="yes"/>
      <point x="329" y="5"/>
      <point x="333" y="0"/>
      <point x="339" y="0" type="curve" smooth="yes"/>
      <point x="377" y="0"/>
      <point x="413" y="0"/>
    </contour>
    <contour>
      <point x="256" y="730" type="move" name="top"/>
    </contour>
  </outline>
</glyph>
<glyph name="j" format="1">
  <advance width="350"/>
  <unicode hex="006A"/>
  <outline>
    <contour>
      <point x="120" y="535" type="curve"/>
      <point x="112" y="502"/>
      <point x="105" y="463"/>
      <point x="96" y="429" type="curve" smooth="yes"/>
      <point x="95" y="423"/>
      <point x="99" y="418"/>
      <point x="105" y="418" type="curve" smooth="yes"/>
      <point x="173" y="418"/>
      <point x="205" y="418"/>
      <point x="272" y="418" type="curve"/>
      <point x="284" y="467"/>
      <point x="282" y="535"/>
      <point x="245" y="535" type="curve" smooth="yes"/>
      <point x="191" y="535"/>
      <point x="175" y="535"/>
    </contour>
    <contour>
      <point x="194" y="-58" type="curve" smooth="yes"/>
      <point x="341" y="521" type="line" smooth="yes"/>
      <point x="342" y="525"/>
      <point x="342" y="528"/>
      <point x="340" y="530" type="curve" smooth="yes"/>
      <point x="337" y="534"/>
      <point x="333" y="535"/>
      <point x="326" y="535" type="curve" smooth="yes"/>
      <point x="217" y="535" type="line"/>
      <point x="67" y="-57" type="line" smooth="yes"/>
      <point x="51" y="-120"/>
      <point x="36" y="-149"/>
      <point x="-7" y="-184" type="curve"/>
      <point x="61" y="-218"/>
      <point x="167" y="-166"/>
    </contour>
    <contour>
      <point x="-9" y="-133" type="curve" smooth="yes"/>
      <point x="-40" y="-133"/>
      <point x="-55" y="-129"/>
      <point x="-73" y="-117" type="curve"/>
      <point x="-91" y="-117" type="line"/>
      <point x="-98" y="-150"/>
      <point x="-105" y="-181"/>
      <point x="-113" y="-214" type="curve" smooth="yes"/>
      <point x="-114" y="-218"/>
      <point x="-113" y="-221"/>
      <point x="-111" y="-224" type="curve" smooth="yes"/>
      <point x="-106" y="-232"/>
      <point x="-79" y="-250"/>
      <point x="-25" y="-250" type="curve" smooth="yes"/>
      <point x="96" y="-250"/>
      <point x="159" y="-197"/>
      <point x="194" y="-58" type="curve" smooth="yes"/>
      <point x="197" y="-45"/>
      <point x="177" y="-38"/>
      <point x="121" y="-42" type="curve"/>
      <point x="81" y="-107"/>
      <point x="39" y="-133"/>
    </contour>
    <contour>
      <point x="392" y="653" type="curve"/>
      <point x="421" y="769" type="line" smooth="yes"/>
      <point x="422" y="775"/>
      <point x="419" y="780"/>
      <point x="413" y="780" type="curve" smooth="yes"/>
      <point x="368" y="780"/>
      <point x="312" y="780"/>
      <point x="267" y="780" type="curve"/>
      <point x="238" y="664" type="line" smooth="yes"/>
      <point x="236" y="658"/>
      <point x="240" y="653"/>
      <point x="246" y="653" type="curve" smooth="yes"/>
      <point x="291" y="653"/>
      <point x="347" y="653"/>
    </contour>
  </outline>
</glyph>
<glyph name="m" format="1">
  <advance width="850"/>
  <unicode hex="006D"/>
  <outline>
    <contour>
      <point x="142" y="0" type="curve"/>
      <point x="275" y="524" type="line" smooth="yes"/>
      <point x="276" y="527"/>
      <point x="276" y="530"/>
      <point x="274" y="532" type="curve" smooth="yes"/>
      <point x="273" y="534"/>
      <point x="270" y="535"/>
      <point x="267" y="535" type="curve" smooth="yes"/>
      <point x="233" y="535"/>
      <point x="196" y="535"/>
      <point x="155" y="535" type="curve"/>
      <point x="149" y="511"/>
      <point x="141" y="477"/>
      <point x="131" y="437" type="curve" smooth="yes"/>
      <point x="22" y="11" type="line" smooth="yes"/>
      <point x="21" y="5"/>
      <point x="24" y="0"/>
      <point x="30" y="0" type="curve" smooth="yes"/>
      <point x="68" y="0"/>
      <point x="105" y="0"/>
    </contour>
    <contour>
      <point x="436" y="547" type="curve" smooth="yes"/>
      <point x="374" y="547"/>
      <point x="312" y="516"/>
      <point x="252" y="451" type="curve" smooth="yes"/>
      <point x="224" y="421"/>
      <point x="207" y="391"/>
      <point x="216" y="324" type="curve"/>
      <point x="279" y="404"/>
      <point x="331" y="429"/>
      <point x="369" y="429" type="curve" smooth="yes"/>
      <point x="396" y="429"/>
      <point x="409" y="406"/>
      <point x="397" y="358" type="curve"/>
      <point x="460" y="354"/>
      <point x="522" y="375"/>
      <point x="528" y="396" type="curve" smooth="yes"/>
      <point x="547" y="476"/>
      <point x="519" y="547"/>
    </contour>
    <contour>
      <point x="427" y="0" type="curve"/>
      <point x="528" y="396" type="line"/>
      <point x="532" y="414"/>
      <point x="510" y="444"/>
      <point x="419" y="450" type="curve"/>
      <point x="412" y="419"/>
      <point x="404" y="388"/>
      <point x="397" y="358" type="curve" smooth="yes"/>
      <point x="307" y="11" type="line" smooth="yes"/>
      <point x="305" y="5"/>
      <point x="310" y="0"/>
      <point x="316" y="0" type="curve" smooth="yes"/>
      <point x="354" y="0"/>
      <point x="388" y="0"/>
    </contour>
    <contour>
      <point x="709" y="547" type="curve" smooth="yes"/>
      <point x="646" y="547"/>
      <point x="584" y="514"/>
      <point x="526" y="451" type="curve" smooth="yes"/>
      <point x="500" y="424"/>
      <point x="486" y="395"/>
      <point x="493" y="328" type="curve"/>
      <point x="557" y="401"/>
      <point x="605" y="429"/>
      <point x="648" y="428" type="curve" smooth="yes"/>
      <point x="676" y="429"/>
      <point x="695" y="411"/>
      <point x="683" y="362" type="curve"/>
      <point x="741" y="359"/>
      <point x="808" y="375"/>
      <point x="812" y="390" type="curve" smooth="yes"/>
      <point x="832" y="475"/>
      <point x="800" y="547"/>
    </contour>
    <contour>
      <point x="713" y="0" type="curve"/>
      <point x="721" y="30"/>
      <point x="729" y="63"/>
      <point x="738" y="97" type="curve" smooth="yes"/>
      <point x="812" y="390" type="line"/>
      <point x="817" y="412"/>
      <point x="791" y="442"/>
      <point x="704" y="450" type="curve"/>
      <point x="697" y="420"/>
      <point x="691" y="392"/>
      <point x="683" y="362" type="curve" smooth="yes"/>
      <point x="592" y="11" type="line" smooth="yes"/>
      <point x="591" y="5"/>
      <point x="595" y="0"/>
      <point x="601" y="0" type="curve" smooth="yes"/>
      <point x="640" y="0"/>
      <point x="674" y="0"/>
    </contour>
  </outline>
</glyph>
<glyph name="n" format="1">
  <advance width="600"/>
  <unicode hex="006E"/>
  <outline>
    <contour>
      <point x="139" y="0" type="curve"/>
      <point x="270" y="524" type="line" smooth="yes"/>
      <point x="271" y="528"/>
      <point x="271" y="531"/>
      <point x="269" y="533" type="curve" smooth="yes"/>
      <point x="267" y="535"/>
      <point x="265" y="535"/>
      <point x="262" y="535" type="curve" smooth="yes"/>
      <point x="228" y="535"/>
      <point x="191" y="535"/>
      <point x="151" y="535" type="curve"/>
      <point x="145" y="511"/>
      <point x="136" y="477"/>
      <point x="126" y="437" type="curve" smooth="yes"/>
      <point x="19" y="11" type="line" smooth="yes"/>
      <point x="18" y="5"/>
      <point x="21" y="0"/>
      <point x="27" y="0" type="curve" smooth="yes"/>
      <point x="65" y="0"/>
      <point x="101" y="0"/>
    </contour>
    <contour>
      <point x="444" y="547" type="curve" smooth="yes"/>
      <point x="377" y="547"/>
      <point x="316" y="514"/>
      <point x="245" y="438" type="curve" smooth="yes"/>
      <point x="216" y="407"/>
      <point x="188" y="364"/>
      <point x="195" y="304" type="curve"/>
      <point x="273" y="394"/>
      <point x="330" y="426"/>
      <point x="378" y="426" type="curve" smooth="yes"/>
      <point x="416" y="426"/>
      <point x="430" y="404"/>
      <point x="419" y="362" type="curve"/>
      <point x="525" y="362"/>
      <point x="543" y="374"/>
      <point x="548" y="391" type="curve" smooth="yes"/>
      <point x="568" y="471"/>
      <point x="536" y="547"/>
    </contour>
    <contour>
      <point x="450" y="0" type="curve"/>
      <point x="458" y="30"/>
      <point x="466" y="63"/>
      <point x="475" y="97" type="curve" smooth="yes"/>
      <point x="548" y="391" type="line"/>
      <point x="558" y="431"/>
      <point x="496" y="460"/>
      <point x="433" y="430" type="curve"/>
      <point x="431" y="411"/>
      <point x="428" y="395"/>
      <point x="419" y="362" type="curve" smooth="yes"/>
      <point x="331" y="11" type="line" smooth="yes"/>
      <point x="330" y="5"/>
      <point x="333" y="0"/>
      <point x="339" y="0" type="curve" smooth="yes"/>
      <point x="377" y="0"/>
      <point x="413" y="0"/>
    </contour>
    <contour>
      <point x="435" y="711" type="move" name="caronslovak"/>
    </contour>
    <contour>
      <point x="415" y="546" type="move" name="top"/>
    </contour>
    <contour>
      <point x="188" y="-1" type="move" name="bottom"/>
    </contour>
  </outline>
</glyph>
<glyph name="o" format="1">
  <advance width="600"/>
  <unicode hex="006F"/>
  <outline>
    <contour>
      <point x="356" y="547" type="curve" smooth="yes"/>
      <point x="206" y="547"/>
      <point x="117" y="469"/>
      <point x="80" y="321" type="curve" smooth="yes"/>
      <point x="59" y="239" type="line" smooth="yes"/>
      <point x="22" y="93"/>
      <point x="92" y="-11"/>
      <point x="242" y="-11" type="curve" smooth="yes"/>
      <point x="256" y="-11"/>
      <point x="264" y="6"/>
      <point x="263" y="96" type="curve"/>
      <point x="170" y="96"/>
      <point x="154" y="157"/>
      <point x="172" y="229" type="curve" smooth="yes"/>
      <point x="194" y="316" type="line" smooth="yes"/>
      <point x="214" y="396"/>
      <point x="262" y="441"/>
      <point x="340" y="441" type="curve" smooth="yes"/>
      <point x="391" y="441"/>
      <point x="424" y="429"/>
      <point x="451" y="400" type="curve"/>
      <point x="504" y="460"/>
      <point x="458" y="547"/>
    </contour>
    <contour>
      <point x="242" y="-11" type="curve" smooth="yes"/>
      <point x="389" y="-11"/>
      <point x="483" y="65"/>
      <point x="520" y="212" type="curve" smooth="yes"/>
      <point x="540" y="295" type="line" smooth="yes"/>
      <point x="576" y="441"/>
      <point x="498" y="547"/>
      <point x="356" y="547" type="curve" smooth="yes"/>
      <point x="345" y="547"/>
      <point x="330" y="532"/>
      <point x="340" y="441" type="curve"/>
      <point x="432" y="441"/>
      <point x="446" y="377"/>
      <point x="428" y="306" type="curve" smooth="yes"/>
      <point x="405" y="220" type="line" smooth="yes"/>
      <point x="385" y="142"/>
      <point x="340" y="96"/>
      <point x="263" y="96" type="curve" smooth="yes"/>
      <point x="212" y="96"/>
      <point x="173" y="106"/>
      <point x="147" y="135" type="curve"/>
      <point x="94" y="75"/>
      <point x="139" y="-11"/>
    </contour>
    <contour>
      <point x="415" y="546" type="move" name="top"/>
    </contour>
    <contour>
      <point x="262" y="-1" type="move" name="ogonek"/>
    </contour>
    <contour>
      <point x="188" y="-1" type="move" name="bottom"/>
    </contour>
  </outline>
</glyph>
<glyph name="p" format="1">
  <advance width="600"/>
  <unicode hex="0070"/>
  <outline>
    <contour>
      <point x="84" y="-207" type="curve"/>
      <point x="268" y="524" type="line" smooth="yes"/>
      <point x="268" y="527"/>
      <point x="268" y="531"/>
      <point x="267" y="533" type="curve" smooth="yes"/>
      <point x="265" y="535"/>
      <point x="262" y="535"/>
      <point x="259" y="535" type="curve"/>
      <point x="223" y="535"/>
      <point x="187" y="535"/>
      <point x="151" y="535" type="curve"/>
      <point x="144" y="504"/>
      <point x="135" y="471"/>
      <point x="126" y="435" type="curve" smooth="yes"/>
      <point x="-32" y="-196" type="line" smooth="yes"/>
      <point x="-34" y="-202"/>
      <point x="-30" y="-207"/>
      <point x="-24" y="-207" type="curve"/>
      <point x="12" y="-207"/>
      <point x="48" y="-207"/>
    </contour>
    <contour>
      <point x="419" y="547" type="curve" smooth="yes"/>
      <point x="358" y="547"/>
      <point x="303" y="517"/>
      <point x="249" y="466" type="curve" smooth="yes"/>
      <point x="202" y="421"/>
      <point x="179" y="383"/>
      <point x="186" y="350" type="curve"/>
      <point x="270" y="411"/>
      <point x="320" y="437"/>
      <point x="377" y="437" type="curve" smooth="yes"/>
      <point x="431" y="437"/>
      <point x="454" y="405"/>
      <point x="436" y="336" type="curve"/>
      <point x="536" y="322"/>
      <point x="554" y="327"/>
      <point x="556" y="336" type="curve" smooth="yes"/>
      <point x="584" y="450"/>
      <point x="533" y="547"/>
    </contour>
    <contour>
      <point x="303" y="-10" type="curve" smooth="yes"/>
      <point x="411" y="-10"/>
      <point x="485" y="52"/>
      <point x="524" y="207" type="curve" smooth="yes"/>
      <point x="556" y="337" type="line" smooth="yes"/>
      <point x="572" y="398"/>
      <point x="537" y="474"/>
      <point x="477" y="474" type="curve" smooth="yes"/>
      <point x="452" y="474"/>
      <point x="435" y="464"/>
      <point x="431" y="446" type="curve"/>
      <point x="445" y="414"/>
      <point x="453" y="398"/>
      <point x="436" y="336" type="curve" smooth="yes"/>
      <point x="406" y="212" type="line" smooth="yes"/>
      <point x="385" y="129"/>
      <point x="345" y="97"/>
      <point x="292" y="97" type="curve" smooth="yes"/>
      <point x="237" y="97"/>
      <point x="197" y="112"/>
      <point x="149" y="176" type="curve"/>
      <point x="131" y="154"/>
      <point x="124" y="135"/>
      <point x="125" y="124" type="curve" smooth="yes"/>
      <point x="129" y="71"/>
      <point x="195" y="-10"/>
    </contour>
  </outline>
</glyph>
<glyph name="r" format="1">
  <advance width="450"/>
  <unicode hex="0072"/>
  <outline>
    <contour>
      <point x="153" y="0" type="curve"/>
      <point x="285" y="524" type="line" smooth="yes"/>
      <point x="286" y="527"/>
      <point x="286" y="530"/>
      <point x="284" y="532" type="curve" smooth="yes"/>
      <point x="283" y="534"/>
      <point x="280" y="535"/>
      <point x="277" y="535" type="curve" smooth="yes"/>
      <point x="242" y="535"/>
      <point x="197" y="535"/>
      <point x="155" y="535" type="curve"/>
      <point x="149" y="511"/>
      <point x="141" y="477"/>
      <point x="131" y="437" type="curve" smooth="yes"/>
      <point x="23" y="11" type="line" smooth="yes"/>
      <point x="22" y="5"/>
      <point x="26" y="0"/>
      <point x="32" y="0" type="curve" smooth="yes"/>
      <point x="69" y="0"/>
      <point x="115" y="0"/>
    </contour>
    <contour>
      <point x="215" y="295" type="curve"/>
      <point x="295" y="393"/>
      <point x="343" y="413"/>
      <point x="412" y="413" type="curve" smooth="yes"/>
      <point x="430" y="413"/>
      <point x="447" y="413"/>
      <point x="464" y="411" type="curve"/>
      <point x="480" y="411" type="line"/>
      <point x="489" y="451"/>
      <point x="497" y="503"/>
      <point x="507" y="535" type="curve"/>
      <point x="509" y="542"/>
      <point x="506" y="546"/>
      <point x="499" y="546" type="curve" smooth="yes"/>
      <point x="463" y="546" type="line" smooth="yes"/>
      <point x="380" y="546"/>
      <point x="318" y="505"/>
      <point x="255" y="429" type="curve" smooth="yes"/>
      <point x="223" y="388"/>
      <point x="207" y="357"/>
    </contour>
    <contour>
      <point x="265" y="546" type="move" name="top"/>
    </contour>
    <contour>
      <point x="265" y="-1" type="move" name="bottom"/>
    </contour>
  </outline>
</glyph>
<glyph name="s" format="1">
  <advance width="550"/>
  <unicode hex="0073"/>
  <outline>
    <contour>
      <point x="372" y="546" type="curve" smooth="yes"/>
      <point x="365" y="546" type="line" smooth="yes"/>
      <point x="227" y="546"/>
      <point x="131" y="496"/>
      <point x="107" y="396" type="curve" smooth="yes"/>
      <point x="95" y="353"/>
      <point x="139" y="319"/>
      <point x="205" y="319" type="curve"/>
      <point x="209" y="335"/>
      <point x="218" y="367"/>
      <point x="222" y="383" type="curve" smooth="yes"/>
      <point x="230" y="415"/>
      <point x="271" y="433"/>
      <point x="347" y="433" type="curve" smooth="yes"/>
      <point x="415" y="433"/>
      <point x="455" y="422"/>
      <point x="500" y="401" type="curve"/>
      <point x="518" y="401" type="line"/>
      <point x="525" y="436"/>
      <point x="533" y="466"/>
      <point x="541" y="500" type="curve"/>
      <point x="542" y="504"/>
      <point x="542" y="507"/>
      <point x="540" y="509" type="curve" smooth="yes"/>
      <point x="531" y="522"/>
      <point x="466" y="546"/>
    </contour>
    <contour>
      <point x="354" y="308" type="curve" smooth="yes"/>
      <point x="271" y="322" type="line" smooth="yes"/>
      <point x="221" y="333"/>
      <point x="215" y="356"/>
      <point x="222" y="383" type="curve" smooth="yes"/>
      <point x="227" y="401"/>
      <point x="232" y="424"/>
      <point x="239" y="452" type="curve"/>
      <point x="169" y="452"/>
      <point x="116" y="433"/>
      <point x="107" y="396" type="curve"/>
      <point x="87" y="316"/>
      <point x="123" y="256"/>
      <point x="228" y="238" type="curve" smooth="yes"/>
      <point x="306" y="224" type="line" smooth="yes"/>
      <point x="368" y="212"/>
      <point x="374" y="186"/>
      <point x="367" y="160" type="curve" smooth="yes"/>
      <point x="362" y="137"/>
      <point x="357" y="116"/>
      <point x="351" y="91" type="curve"/>
      <point x="428" y="92"/>
      <point x="472" y="106"/>
      <point x="482" y="145" type="curve" smooth="yes"/>
      <point x="499" y="217"/>
      <point x="466" y="289"/>
    </contour>
    <contour>
      <point x="238" y="103" type="curve" smooth="yes"/>
      <point x="149" y="103"/>
      <point x="102" y="118"/>
      <point x="48" y="151" type="curve"/>
      <point x="31" y="151" type="line"/>
      <point x="24" y="121"/>
      <point x="17" y="90"/>
      <point x="7" y="50" type="curve" smooth="yes"/>
      <point x="7" y="46"/>
      <point x="7" y="45"/>
      <point x="9" y="42" type="curve" smooth="yes"/>
      <point x="21" y="25"/>
      <point x="106" y="-11"/>
      <point x="213" y="-11" type="curve" smooth="yes"/>
      <point x="222" y="-11" type="line" smooth="yes"/>
      <point x="359" y="-11"/>
      <point x="453" y="31"/>
      <point x="482" y="145" type="curve" smooth="yes"/>
      <point x="493" y="192"/>
      <point x="450" y="229"/>
      <point x="384" y="229" type="curve"/>
      <point x="378" y="203"/>
      <point x="372" y="179"/>
      <point x="367" y="160" type="curve" smooth="yes"/>
      <point x="358" y="126"/>
      <point x="325" y="103"/>
    </contour>
    <contour>
      <point x="274" y="546" type="move" name="top"/>
    </contour>
    <contour>
      <point x="274" y="-1" type="move" name="bottom"/>
    </contour>
  </outline>
</glyph>
<glyph name="t" format="1">
  <advance width="500"/>
  <unicode hex="0074"/>
  <outline>
    <contour>
      <point x="242" y="700" type="curve"/>
      <point x="120" y="213" type="line" smooth="yes"/>
      <point x="96" y="117"/>
      <point x="139" y="41"/>
      <point x="253" y="57" type="curve"/>
      <point x="223" y="107"/>
      <point x="215" y="139"/>
      <point x="235" y="215" type="curve" smooth="yes"/>
      <point x="354" y="689" type="line" smooth="yes"/>
      <point x="356" y="695"/>
      <point x="352" y="700"/>
      <point x="346" y="700" type="curve" smooth="yes"/>
      <point x="313" y="700"/>
      <point x="278" y="700"/>
    </contour>
    <contour>
      <point x="397" y="110" type="curve"/>
      <point x="380" y="110" type="line"/>
      <point x="350" y="110"/>
      <point x="352" y="110"/>
      <point x="311" y="110" type="curve" smooth="yes"/>
      <point x="237" y="110"/>
      <point x="214" y="132"/>
      <point x="235" y="215" type="curve"/>
      <point x="146" y="237"/>
      <point x="125" y="231"/>
      <point x="120" y="213" type="curve" smooth="yes"/>
      <point x="85" y="68"/>
      <point x="153" y="0"/>
      <point x="285" y="0" type="curve" smooth="yes"/>
      <point x="358" y="0" type="line" smooth="yes"/>
      <point x="362" y="0"/>
      <point x="364" y="1"/>
      <point x="367" y="3" type="curve" smooth="yes"/>
      <point x="369" y="5"/>
      <point x="371" y="8"/>
      <point x="372" y="11" type="curve" smooth="yes"/>
      <point x="381" y="46"/>
      <point x="388" y="75"/>
    </contour>
    <contour>
      <point x="110" y="535" type="line"/>
      <point x="101" y="501"/>
      <point x="94" y="473"/>
      <point x="86" y="438" type="curve" smooth="yes"/>
      <point x="85" y="435"/>
      <point x="85" y="432"/>
      <point x="87" y="430" type="curve" smooth="yes"/>
      <point x="88" y="428"/>
      <point x="91" y="427"/>
      <point x="94" y="427" type="curve"/>
      <point x="476" y="427" type="line"/>
      <point x="485" y="462"/>
      <point x="492" y="490"/>
      <point x="500" y="524" type="curve" smooth="yes"/>
      <point x="502" y="530"/>
      <point x="498" y="535"/>
      <point x="492" y="535" type="curve"/>
    </contour>
    <contour>
      <point x="504" y="711" type="move" name="caronslovak"/>
    </contour>
    <contour>
      <point x="221" y="-1" type="move" name="bottom"/>
    </contour>
  </outline>
</glyph>
<glyph name="v" format="1">
  <advance width="600"/>
  <unicode hex="0076"/>
  <outline>
    <contour>
      <point x="609" y="535" type="curve" smooth="yes"/>
      <point x="497" y="535" type="line"/>
      <point x="413" y="381"/>
      <point x="329" y="229"/>
      <point x="244" y="75" type="curve"/>
      <point x="218" y="25"/>
      <point x="208" y="13"/>
      <point x="178" y="0" type="curve"/>
      <point x="318" y="0" type="line"/>
      <point x="417" y="173"/>
      <point x="516" y="346"/>
      <point x="616" y="519" type="curve"/>
      <point x="621" y="528"/>
      <point x="618" y="535"/>
    </contour>
    <contour>
      <point x="215" y="535" type="curve" smooth="yes"/>
      <point x="109" y="535" type="line"/>
      <point x="121" y="361"/>
      <point x="133" y="188"/>
      <point x="145" y="14" type="curve"/>
      <point x="146" y="4"/>
      <point x="152" y="0"/>
      <point x="161" y="0" type="curve" smooth="yes"/>
      <point x="184" y="0" type="line" smooth="yes"/>
      <point x="232" y="0"/>
      <point x="318" y="24"/>
      <point x="339" y="108" type="curve"/>
      <point x="309" y="108"/>
      <point x="280" y="108"/>
      <point x="256" y="108" type="curve" smooth="yes"/>
      <point x="250" y="108"/>
      <point x="248" y="111"/>
      <point x="247" y="118" type="curve"/>
      <point x="240" y="253"/>
      <point x="233" y="385"/>
      <point x="227" y="520" type="curve"/>
      <point x="226" y="530"/>
      <point x="223" y="535"/>
    </contour>
  </outline>
</glyph>
<glyph name="x" format="1">
  <advance width="600"/>
  <unicode hex="0078"/>
  <outline>
    <contour>
      <point x="369" y="0" type="curve" smooth="yes"/>
      <point x="409" y="0"/>
      <point x="440" y="0"/>
      <point x="480" y="0" type="curve"/>
      <point x="441" y="100"/>
      <point x="400" y="198"/>
      <point x="361" y="298" type="curve" smooth="yes"/>
      <point x="357" y="309"/>
      <point x="344" y="314"/>
      <point x="340" y="325" type="curve" smooth="yes"/>
      <point x="314" y="391"/>
      <point x="289" y="458"/>
      <point x="263" y="524" type="curve" smooth="yes"/>
      <point x="259" y="532"/>
      <point x="254" y="535"/>
      <point x="245" y="535" type="curve" smooth="yes"/>
      <point x="206" y="535"/>
      <point x="175" y="535"/>
      <point x="135" y="535" type="curve"/>
      <point x="172" y="439"/>
      <point x="209" y="343"/>
      <point x="246" y="247" type="curve" smooth="yes"/>
      <point x="253" y="235"/>
      <point x="266" y="230"/>
      <point x="270" y="217" type="curve" smooth="yes"/>
      <point x="298" y="149"/>
      <point x="324" y="80"/>
      <point x="352" y="11" type="curve" smooth="yes"/>
      <point x="355" y="3"/>
      <point x="360" y="0"/>
    </contour>
    <contour>
      <point x="602" y="535" type="curve" smooth="yes"/>
      <point x="479" y="535" type="line"/>
      <point x="417" y="462"/>
      <point x="358" y="390"/>
      <point x="296" y="316" type="curve" smooth="yes"/>
      <point x="283" y="300"/>
      <point x="266" y="317"/>
      <point x="252" y="301" type="curve" smooth="yes"/>
      <point x="169" y="210"/>
      <point x="86" y="118"/>
      <point x="3" y="27" type="curve" smooth="yes"/>
      <point x="-6" y="18"/>
      <point x="-8" y="14"/>
      <point x="-9" y="10" type="curve" smooth="yes"/>
      <point x="-10" y="3"/>
      <point x="-7" y="0"/>
      <point x="1" y="0" type="curve" smooth="yes"/>
      <point x="127" y="0" type="line"/>
      <point x="190" y="74"/>
      <point x="252" y="149"/>
      <point x="314" y="223" type="curve" smooth="yes"/>
      <point x="330" y="242"/>
      <point x="342" y="223"/>
      <point x="358" y="242" type="curve" smooth="yes"/>
      <point x="440" y="333"/>
      <point x="522" y="423"/>
      <point x="605" y="514" type="curve" smooth="yes"/>
      <point x="609" y="519"/>
      <point x="611" y="523"/>
      <point x="612" y="526" type="curve" smooth="yes"/>
      <point x="613" y="533"/>
      <point x="609" y="535"/>
    </contour>
  </outline>
</glyph>
<glyph name="y" format="1">
  <advance width="600"/>
  <unicode hex="0079"/>
  <outline>
    <contour>
      <point x="611" y="535" type="curve" smooth="yes"/>
      <point x="572" y="535"/>
      <point x="533" y="535"/>
      <point x="501" y="535" type="curve"/>
      <point x="395" y="330"/>
      <point x="226" y="4"/>
      <point x="184" y="-76" type="curve" smooth="yes"/>
      <point x="159" y="-123"/>
      <point x="124" y="-144"/>
      <point x="79" y="-144" type="curve" smooth="yes"/>
      <point x="-16" y="-144" type="line"/>
      <point x="-39" y="-239" type="line" smooth="yes"/>
      <point x="-41" y="-247"/>
      <point x="-38" y="-250"/>
      <point x="-31" y="-250" type="curve" smooth="yes"/>
      <point x="70" y="-250" type="line" smooth="yes"/>
      <point x="171" y="-250"/>
      <point x="229" y="-210"/>
      <point x="287" y="-98" type="curve" smooth="yes"/>
      <point x="393" y="104"/>
      <point x="512" y="323"/>
      <point x="619" y="519" type="curve" smooth="yes"/>
      <point x="624" y="529"/>
      <point x="618" y="535"/>
    </contour>
    <contour>
      <point x="215" y="535" type="curve" smooth="yes"/>
      <point x="176" y="535"/>
      <point x="145" y="535"/>
      <point x="110" y="535" type="curve"/>
      <point x="124" y="362"/>
      <point x="152" y="20"/>
      <point x="152" y="10" type="curve" smooth="yes"/>
      <point x="153" y="4"/>
      <point x="156" y="0"/>
      <point x="162" y="0" type="curve" smooth="yes"/>
      <point x="267" y="0" type="line" smooth="yes"/>
      <point x="290" y="0"/>
      <point x="312" y="22"/>
      <point x="332" y="95" type="curve"/>
      <point x="263" y="95" type="line"/>
      <point x="259" y="95"/>
      <point x="257" y="97"/>
      <point x="257" y="102" type="curve" smooth="yes"/>
      <point x="255" y="118"/>
      <point x="233" y="421"/>
      <point x="231" y="522" type="curve" smooth="yes"/>
      <point x="231" y="533"/>
      <point x="227" y="535"/>
    </contour>
    <contour>
      <point x="326" y="546" type="move" name="top"/>
    </contour>
  </outline>
</glyph>
<glyph name="z" format="1">
  <advance width="550"/>
  <unicode hex="007A"/>
  <outline>
    <contour>
      <point x="140" y="535" type="line"/>
      <point x="132" y="500"/>
      <point x="126" y="475"/>
      <point x="118" y="439" type="curve" smooth="yes"/>
      <point x="117" y="435"/>
      <point x="118" y="432"/>
      <point x="119" y="431" type="curve" smooth="yes"/>
      <point x="121" y="429"/>
      <point x="123" y="428"/>
      <point x="126" y="428" type="curve" smooth="yes"/>
      <point x="411" y="428" type="line" smooth="yes"/>
      <point x="461" y="428"/>
      <point x="500" y="425"/>
      <point x="542" y="434" type="curve"/>
      <point x="562" y="524" type="line" smooth="yes"/>
      <point x="562" y="527"/>
      <point x="562" y="530"/>
      <point x="561" y="532" type="curve" smooth="yes"/>
      <point x="559" y="534"/>
      <point x="556" y="535"/>
      <point x="553" y="535" type="curve" smooth="yes"/>
    </contour>
    <contour>
      <point x="422" y="463" type="curve"/>
      <point x="292" y="342"/>
      <point x="163" y="221"/>
      <point x="32" y="100" type="curve"/>
      <point x="15" y="39"/>
      <point x="110" y="39"/>
      <point x="155" y="79" type="curve" smooth="yes"/>
      <point x="316" y="223"/>
      <point x="541" y="432"/>
      <point x="542" y="434" type="curve"/>
      <point x="546" y="457"/>
      <point x="501" y="463"/>
    </contour>
    <contour>
      <point x="429" y="0" type="line"/>
      <point x="437" y="36"/>
      <point x="443" y="60"/>
      <point x="451" y="96" type="curve"/>
      <point x="453" y="102"/>
      <point x="449" y="107"/>
      <point x="443" y="107" type="curve" smooth="yes"/>
      <point x="169" y="107" type="line" smooth="yes"/>
      <point x="117" y="107"/>
      <point x="80" y="112"/>
      <point x="32" y="100" type="curve"/>
      <point x="8" y="12" type="line" smooth="yes"/>
      <point x="6" y="7"/>
      <point x="7" y="4"/>
      <point x="9" y="2" type="curve" smooth="yes"/>
      <point x="10" y="0"/>
      <point x="13" y="0"/>
      <point x="16" y="0" type="curve" smooth="yes"/>
    </contour>
    <contour>
      <point x="284" y="546" type="move" name="top"/>
    </contour>
  </outline>
</glyph>
<glyph name="braceleft" format="1">
  <advance width="500"/>
  <unicode hex="007B"/>
  <outline>
    <contour>
      <point x="431" y="650" type="curve" smooth="yes"/>
      <point x="496" y="650"/>
      <point x="493" y="650"/>
      <point x="549" y="650" type="curve"/>
      <point x="569" y="650" type="line"/>
      <point x="578" y="683"/>
      <point x="586" y="716"/>
      <point x="594" y="749" type="curve"/>
      <point x="596" y="756"/>
      <point x="593" y="760"/>
      <point x="586" y="760" type="curve" smooth="yes"/>
      <point x="412" y="760" type="line" smooth="yes"/>
      <point x="331" y="760"/>
      <point x="287" y="698"/>
      <point x="278" y="660" type="curve" smooth="yes"/>
      <point x="277" y="656" type="line" smooth="yes"/>
      <point x="275" y="648"/>
      <point x="281" y="643"/>
      <point x="380" y="611" type="curve"/>
      <point x="389" y="640"/>
      <point x="403" y="650"/>
    </contour>
    <contour>
      <point x="401" y="444" type="curve" smooth="yes"/>
      <point x="422" y="529"/>
      <point x="368" y="558"/>
      <point x="379" y="602" type="curve" smooth="yes"/>
      <point x="381" y="610"/>
      <point x="392" y="655"/>
      <point x="397" y="675" type="curve"/>
      <point x="284" y="670"/>
      <point x="279" y="666"/>
      <point x="278" y="660" type="curve" smooth="yes"/>
      <point x="267" y="615" type="line" smooth="yes"/>
      <point x="245" y="528"/>
      <point x="301" y="508"/>
      <point x="285" y="445" type="curve" smooth="yes"/>
      <point x="271" y="387"/>
      <point x="199" y="355"/>
      <point x="86" y="355" type="curve" smooth="yes"/>
      <point x="54" y="355" type="line"/>
      <point x="36" y="283" type="line" smooth="yes"/>
      <point x="34" y="275"/>
      <point x="39" y="270"/>
      <point x="47" y="270" type="curve" smooth="yes"/>
      <point x="65" y="270" type="line" smooth="yes"/>
      <point x="271" y="270"/>
      <point x="377" y="347"/>
    </contour>
    <contour>
      <point x="328" y="154" type="curve" smooth="yes"/>
      <point x="353" y="255"/>
      <point x="287" y="330"/>
      <point x="80" y="330" type="curve" smooth="yes"/>
      <point x="69" y="330"/>
      <point x="59" y="330"/>
      <point x="48" y="330" type="curve"/>
      <point x="29" y="256" type="line" smooth="yes"/>
      <point x="28" y="249"/>
      <point x="31" y="245"/>
      <point x="38" y="245" type="curve" smooth="yes"/>
      <point x="59" y="245" type="line" smooth="yes"/>
      <point x="172" y="245"/>
      <point x="226" y="210"/>
      <point x="213" y="154" type="curve" smooth="yes"/>
      <point x="197" y="90"/>
      <point x="130" y="71"/>
      <point x="109" y="-16" type="curve" smooth="yes"/>
      <point x="97" y="-61" type="line" smooth="yes"/>
      <point x="96" y="-67"/>
      <point x="100" y="-71"/>
      <point x="210" y="-75" type="curve"/>
      <point x="216" y="-51"/>
      <point x="222" y="-27"/>
      <point x="228" y="-3" type="curve" smooth="yes"/>
      <point x="238" y="41"/>
      <point x="307" y="70"/>
    </contour>
    <contour>
      <point x="256" y="-51" type="curve" smooth="yes"/>
      <point x="227" y="-51"/>
      <point x="219" y="-41"/>
      <point x="224" y="-12" type="curve"/>
      <point x="111" y="-44"/>
      <point x="101" y="-49"/>
      <point x="98" y="-57" type="curve" smooth="yes"/>
      <point x="97" y="-61" type="line" smooth="yes"/>
      <point x="88" y="-99"/>
      <point x="100" y="-161"/>
      <point x="182" y="-161" type="curve" smooth="yes"/>
      <point x="356" y="-161" type="line" smooth="yes"/>
      <point x="363" y="-161"/>
      <point x="368" y="-157"/>
      <point x="369" y="-150" type="curve"/>
      <point x="394" y="-51" type="line"/>
      <point x="374" y="-51" type="line"/>
      <point x="318" y="-51"/>
      <point x="321" y="-51"/>
    </contour>
  </outline>
</glyph>
<glyph name="bar" format="1">
  <advance width="300"/>
  <unicode hex="007C"/>
  <outline>
    <contour>
      <point x="212" y="760" type="curve"/>
      <point x="203" y="725"/>
      <point x="195" y="691"/>
      <point x="186" y="656" type="curve" smooth="yes"/>
      <point x="-15" y="-149" type="line" smooth="yes"/>
      <point x="-17" y="-155"/>
      <point x="-13" y="-160"/>
      <point x="-7" y="-160" type="curve" smooth="yes"/>
      <point x="30" y="-160"/>
      <point x="67" y="-160"/>
      <point x="104" y="-160" type="curve"/>
      <point x="331" y="749" type="line" smooth="yes"/>
      <point x="332" y="752"/>
      <point x="332" y="755"/>
      <point x="330" y="757" type="curve" smooth="yes"/>
      <point x="329" y="759"/>
      <point x="326" y="760"/>
      <point x="323" y="760" type="curve" smooth="yes"/>
      <point x="286" y="760"/>
      <point x="249" y="760"/>
    </contour>
  </outline>
</glyph>
<glyph name="braceright" format="1">
  <advance width="500"/>
  <unicode hex="007D"/>
  <outline>
    <contour>
      <point x="92" y="-24" type="curve" smooth="yes"/>
      <point x="27" y="-24"/>
      <point x="29" y="-24"/>
      <point x="-27" y="-24" type="curve"/>
      <point x="-47" y="-24" type="line"/>
      <point x="-55" y="-58"/>
      <point x="-63" y="-90"/>
      <point x="-72" y="-124" type="curve"/>
      <point x="-73" y="-131"/>
      <point x="-70" y="-135"/>
      <point x="-63" y="-135" type="curve" smooth="yes"/>
      <point x="110" y="-135" type="line" smooth="yes"/>
      <point x="192" y="-135"/>
      <point x="235" y="-73"/>
      <point x="245" y="-35" type="curve" smooth="yes"/>
      <point x="246" y="-31" type="line" smooth="yes"/>
      <point x="248" y="-22"/>
      <point x="241" y="-18"/>
      <point x="143" y="14" type="curve"/>
      <point x="133" y="-15"/>
      <point x="120" y="-24"/>
    </contour>
    <contour>
      <point x="122" y="181" type="curve" smooth="yes"/>
      <point x="101" y="96"/>
      <point x="154" y="67"/>
      <point x="144" y="23" type="curve" smooth="yes"/>
      <point x="142" y="15"/>
      <point x="130" y="-30"/>
      <point x="125" y="-50" type="curve"/>
      <point x="238" y="-45"/>
      <point x="243" y="-41"/>
      <point x="245" y="-35" type="curve" smooth="yes"/>
      <point x="256" y="10" type="line" smooth="yes"/>
      <point x="278" y="97"/>
      <point x="221" y="117"/>
      <point x="237" y="181" type="curve" smooth="yes"/>
      <point x="252" y="238"/>
      <point x="323" y="270"/>
      <point x="436" y="270" type="curve" smooth="yes"/>
      <point x="468" y="270" type="line"/>
      <point x="486" y="342" type="line" smooth="yes"/>
      <point x="488" y="350"/>
      <point x="484" y="355"/>
      <point x="476" y="355" type="curve" smooth="yes"/>
      <point x="457" y="355" type="line" smooth="yes"/>
      <point x="252" y="355"/>
      <point x="146" y="278"/>
    </contour>
    <contour>
      <point x="194" y="471" type="curve" smooth="yes"/>
      <point x="169" y="371"/>
      <point x="235" y="296"/>
      <point x="443" y="296" type="curve" smooth="yes"/>
      <point x="454" y="296"/>
      <point x="464" y="296"/>
      <point x="475" y="296" type="curve"/>
      <point x="493" y="369" type="line" smooth="yes"/>
      <point x="495" y="376"/>
      <point x="492" y="380"/>
      <point x="485" y="380" type="curve" smooth="yes"/>
      <point x="464" y="380" type="line" smooth="yes"/>
      <point x="351" y="380"/>
      <point x="296" y="416"/>
      <point x="310" y="471" type="curve" smooth="yes"/>
      <point x="326" y="535"/>
      <point x="392" y="555"/>
      <point x="414" y="641" type="curve" smooth="yes"/>
      <point x="425" y="687" type="line" smooth="yes"/>
      <point x="427" y="692"/>
      <point x="423" y="697"/>
      <point x="313" y="700" type="curve"/>
      <point x="307" y="676"/>
      <point x="301" y="652"/>
      <point x="295" y="628" type="curve" smooth="yes"/>
      <point x="284" y="585"/>
      <point x="215" y="555"/>
    </contour>
    <contour>
      <point x="267" y="676" type="curve" smooth="yes"/>
      <point x="295" y="676"/>
      <point x="303" y="666"/>
      <point x="299" y="638" type="curve"/>
      <point x="412" y="669"/>
      <point x="422" y="674"/>
      <point x="424" y="683" type="curve" smooth="yes"/>
      <point x="425" y="687" type="line" smooth="yes"/>
      <point x="435" y="724"/>
      <point x="422" y="786"/>
      <point x="340" y="786" type="curve" smooth="yes"/>
      <point x="167" y="786" type="line" smooth="yes"/>
      <point x="160" y="786"/>
      <point x="155" y="782"/>
      <point x="153" y="775" type="curve"/>
      <point x="128" y="676" type="line"/>
      <point x="148" y="676" type="line"/>
      <point x="204" y="676"/>
      <point x="202" y="676"/>
    </contour>
  </outline>
</glyph>
<glyph name="asciitilde" format="1">
  <advance width="600"/>
  <unicode hex="007E"/>
  <outline>
    <contour>
      <point x="437" y="305" type="curve" smooth="yes"/>
      <point x="353" y="305"/>
      <point x="314" y="405"/>
      <point x="211" y="405" type="curve" smooth="yes"/>
      <point x="158" y="405"/>
      <point x="120" y="389"/>
      <point x="89" y="362" type="curve" smooth="yes"/>
      <point x="78" y="353"/>
      <point x="77" y="348"/>
      <point x="75" y="338" type="curve" smooth="yes"/>
      <point x="68" y="311"/>
      <point x="60" y="278"/>
      <point x="52" y="246" type="curve"/>
      <point x="69" y="246" type="line"/>
      <point x="107" y="281"/>
      <point x="140" y="295"/>
      <point x="180" y="295" type="curve" smooth="yes"/>
      <point x="263" y="295"/>
      <point x="302" y="195"/>
      <point x="405" y="195" type="curve" smooth="yes"/>
      <point x="458" y="195"/>
      <point x="497" y="212"/>
      <point x="528" y="239" type="curve" smooth="yes"/>
      <point x="538" y="247"/>
      <point x="539" y="252"/>
      <point x="542" y="262" type="curve" smooth="yes"/>
      <point x="548" y="289"/>
      <point x="557" y="322"/>
      <point x="565" y="355" type="curve"/>
      <point x="548" y="355" type="line"/>
      <point x="510" y="320"/>
      <point x="477" y="305"/>
    </contour>
  </outline>
</glyph>
<glyph name="exclamdown" format="1">
  <advance width="400"/>
  <unicode hex="00A1"/>
  <outline>
    <contour>
      <point x="155" y="262" type="line"/>
      <point x="127" y="186"/>
      <point x="99" y="110"/>
      <point x="70" y="33" type="curve"/>
      <point x="24" y="-154" type="line" smooth="yes"/>
      <point x="22" y="-161"/>
      <point x="25" y="-165"/>
      <point x="31" y="-165" type="curve" smooth="yes"/>
      <point x="86" y="-165"/>
      <point x="129" y="-165"/>
      <point x="163" y="-165" type="curve"/>
      <point x="172" y="-127"/>
      <point x="181" y="-92"/>
      <point x="190" y="-55" type="curve" smooth="yes"/>
      <point x="212" y="33" type="line"/>
      <point x="242" y="252"/>
      <point x="242" y="255"/>
      <point x="239" y="259" type="curve" smooth="yes"/>
      <point x="237" y="261"/>
      <point x="235" y="262"/>
      <point x="231" y="262" type="curve"/>
    </contour>
    <contour>
      <point x="182" y="543" type="curve"/>
      <point x="142" y="382" type="line" smooth="yes"/>
      <point x="140" y="376"/>
      <point x="144" y="371"/>
      <point x="150" y="371" type="curve" smooth="yes"/>
      <point x="202" y="371"/>
      <point x="261" y="371"/>
      <point x="313" y="371" type="curve"/>
      <point x="353" y="532" type="line" smooth="yes"/>
      <point x="355" y="538"/>
      <point x="351" y="543"/>
      <point x="345" y="543" type="curve" smooth="yes"/>
      <point x="293" y="543"/>
      <point x="234" y="543"/>
    </contour>
  </outline>
</glyph>
<glyph name="cent" format="1">
  <advance width="600"/>
  <unicode hex="00A2"/>
  <outline>
    <contour>
      <point x="411" y="390" type="line"/>
      <point x="552" y="761" type="line" smooth="yes"/>
      <point x="555" y="770"/>
      <point x="551" y="774"/>
      <point x="545" y="774" type="curve" smooth="yes"/>
      <point x="503" y="774"/>
      <point x="485" y="774"/>
      <point x="442" y="774" type="curve"/>
      <point x="434" y="742"/>
      <point x="426" y="711"/>
      <point x="419" y="680" type="curve"/>
      <point x="353" y="418" type="line" smooth="yes"/>
      <point x="351" y="410"/>
      <point x="353" y="405"/>
      <point x="360" y="403" type="curve" smooth="yes"/>
    </contour>
    <contour>
      <point x="326" y="309" type="line"/>
      <point x="184" y="-62" type="line" smooth="yes"/>
      <point x="181" y="-71"/>
      <point x="185" y="-75"/>
      <point x="191" y="-75" type="curve" smooth="yes"/>
      <point x="234" y="-75"/>
      <point x="252" y="-75"/>
      <point x="295" y="-75" type="curve"/>
      <point x="303" y="-44"/>
      <point x="311" y="-12"/>
      <point x="319" y="19" type="curve"/>
      <point x="384" y="281" type="line" smooth="yes"/>
      <point x="386" y="289"/>
      <point x="384" y="294"/>
      <point x="377" y="295" type="curve" smooth="yes"/>
    </contour>
    <contour>
      <point x="433" y="630" type="curve" smooth="yes"/>
      <point x="275" y="630"/>
      <point x="144" y="535"/>
      <point x="106" y="386" type="curve" smooth="yes"/>
      <point x="88" y="311" type="line" smooth="yes"/>
      <point x="50" y="159"/>
      <point x="120" y="72"/>
      <point x="292" y="72" type="curve" smooth="yes"/>
      <point x="308" y="72"/>
      <point x="317" y="92"/>
      <point x="318" y="186" type="curve"/>
      <point x="218" y="186"/>
      <point x="186" y="230"/>
      <point x="209" y="319" type="curve" smooth="yes"/>
      <point x="224" y="382" type="line" smooth="yes"/>
      <point x="248" y="477"/>
      <point x="313" y="515"/>
      <point x="403" y="515" type="curve" smooth="yes"/>
      <point x="462" y="515"/>
      <point x="504" y="501"/>
      <point x="547" y="478" type="curve"/>
      <point x="564" y="478" type="line"/>
      <point x="573" y="510"/>
      <point x="581" y="543"/>
      <point x="590" y="579" type="curve" smooth="yes"/>
      <point x="591" y="582"/>
      <point x="591" y="585"/>
      <point x="588" y="588" type="curve" smooth="yes"/>
      <point x="576" y="604"/>
      <point x="525" y="630"/>
    </contour>
    <contour>
      <point x="150" y="255" type="curve"/>
      <point x="99" y="137"/>
      <point x="153" y="72"/>
      <point x="292" y="72" type="curve" smooth="yes"/>
      <point x="379" y="72"/>
      <point x="447" y="94"/>
      <point x="470" y="112" type="curve" smooth="yes"/>
      <point x="473" y="114"/>
      <point x="474" y="117"/>
      <point x="475" y="120" type="curve"/>
      <point x="483" y="154"/>
      <point x="492" y="188"/>
      <point x="501" y="222" type="curve"/>
      <point x="483" y="222" type="line"/>
      <point x="427" y="199"/>
      <point x="379" y="186"/>
      <point x="318" y="186" type="curve" smooth="yes"/>
      <point x="235" y="186"/>
      <point x="189" y="210"/>
    </contour>
  </outline>
</glyph>
<glyph name="sterling" format="1">
  <advance width="600"/>
  <unicode hex="00A3"/>
  <outline>
    <contour>
      <point x="460" y="605" type="curve" smooth="yes"/>
      <point x="513" y="605"/>
      <point x="543" y="594"/>
      <point x="583" y="569" type="curve"/>
      <point x="600" y="569" type="line"/>
      <point x="606" y="594"/>
      <point x="615" y="630"/>
      <point x="626" y="672" type="curve" smooth="yes"/>
      <point x="627" y="676"/>
      <point x="627" y="678"/>
      <point x="625" y="680" type="curve" smooth="yes"/>
      <point x="613" y="696"/>
      <point x="565" y="720"/>
      <point x="487" y="720" type="curve" smooth="yes"/>
      <point x="342" y="720"/>
      <point x="241" y="644"/>
      <point x="215" y="538" type="curve" smooth="yes"/>
      <point x="209" y="515" type="line" smooth="yes"/>
      <point x="206" y="502"/>
      <point x="214" y="499"/>
      <point x="325" y="515" type="curve"/>
      <point x="340" y="579"/>
      <point x="382" y="605"/>
    </contour>
    <contour>
      <point x="209" y="515" type="curve" smooth="yes"/>
      <point x="182" y="406"/>
      <point x="160" y="317"/>
      <point x="130" y="201" type="curve" smooth="yes"/>
      <point x="115" y="141"/>
      <point x="73" y="108"/>
      <point x="24" y="108" type="curve" smooth="yes"/>
      <point x="19" y="108"/>
      <point x="13" y="108"/>
      <point x="8" y="108" type="curve"/>
      <point x="4" y="108" type="line"/>
      <point x="-5" y="75"/>
      <point x="-11" y="50"/>
      <point x="-21" y="11" type="curve" smooth="yes"/>
      <point x="-23" y="3"/>
      <point x="-19" y="0"/>
      <point x="-12" y="0" type="curve" smooth="yes"/>
      <point x="-7" y="0" type="line" smooth="yes"/>
      <point x="108" y="0"/>
      <point x="211" y="60"/>
      <point x="251" y="219" type="curve" smooth="yes"/>
      <point x="276" y="322"/>
      <point x="300" y="417"/>
      <point x="325" y="515" type="curve" smooth="yes"/>
      <point x="333" y="549"/>
      <point x="341" y="580"/>
      <point x="349" y="611" type="curve"/>
      <point x="284" y="611"/>
      <point x="224" y="576"/>
    </contour>
    <contour>
      <point x="-7" y="0" type="curve"/>
      <point x="168" y="0"/>
      <point x="271" y="0"/>
      <point x="404" y="0" type="curve" smooth="yes"/>
      <point x="469" y="0" type="line" smooth="yes"/>
      <point x="477" y="0"/>
      <point x="480" y="3"/>
      <point x="482" y="11" type="curve"/>
      <point x="491" y="44"/>
      <point x="498" y="75"/>
      <point x="507" y="108" type="curve"/>
      <point x="487" y="108" type="line"/>
      <point x="462" y="108"/>
      <point x="443" y="108"/>
      <point x="411" y="108" type="curve" smooth="yes"/>
      <point x="314" y="108"/>
      <point x="240" y="108"/>
      <point x="89" y="108" type="curve"/>
      <point x="-14" y="7"/>
      <point x="-13" y="0"/>
    </contour>
    <contour>
      <point x="96" y="396" type="line"/>
      <point x="87" y="362"/>
      <point x="85" y="354"/>
      <point x="77" y="320" type="curve" smooth="yes"/>
      <point x="76" y="317"/>
      <point x="76" y="314"/>
      <point x="78" y="312" type="curve" smooth="yes"/>
      <point x="79" y="310"/>
      <point x="82" y="309"/>
      <point x="85" y="309" type="curve" smooth="yes"/>
      <point x="460" y="309" type="line"/>
      <point x="469" y="343"/>
      <point x="471" y="351"/>
      <point x="479" y="385" type="curve" smooth="yes"/>
      <point x="481" y="391"/>
      <point x="477" y="396"/>
      <point x="471" y="396" type="curve" smooth="yes"/>
    </contour>
  </outline>
</glyph>
<glyph name="currency" format="1">
  <advance width="600"/>
  <unicode hex="00A4"/>
  <outline>
    <contour>
      <point x="282" y="423" type="curve"/>
      <point x="260" y="451"/>
      <point x="235" y="485"/>
      <point x="213" y="515" type="curve" smooth="yes"/>
      <point x="211" y="517"/>
      <point x="209" y="518"/>
      <point x="207" y="518" type="curve" smooth="yes"/>
      <point x="205" y="518"/>
      <point x="203" y="517"/>
      <point x="201" y="515" type="curve" smooth="yes"/>
      <point x="174" y="494"/>
      <point x="146" y="471"/>
      <point x="125" y="454" type="curve"/>
      <point x="146" y="426"/>
      <point x="173" y="391"/>
      <point x="194" y="362" type="curve" smooth="yes"/>
      <point x="197" y="358"/>
      <point x="201" y="358"/>
      <point x="206" y="362" type="curve" smooth="yes"/>
      <point x="230" y="381"/>
      <point x="260" y="405"/>
    </contour>
    <contour>
      <point x="394" y="423" type="curve"/>
      <point x="400" y="415"/>
      <point x="433" y="371"/>
      <point x="439" y="362" type="curve" smooth="yes"/>
      <point x="442" y="358"/>
      <point x="446" y="358"/>
      <point x="451" y="362" type="curve" smooth="yes"/>
      <point x="487" y="391"/>
      <point x="531" y="426"/>
      <point x="566" y="454" type="curve"/>
      <point x="551" y="474"/>
      <point x="537" y="494"/>
      <point x="521" y="515" type="curve" smooth="yes"/>
      <point x="520" y="517"/>
      <point x="518" y="518"/>
      <point x="516" y="518" type="curve" smooth="yes"/>
      <point x="514" y="518"/>
      <point x="512" y="517"/>
      <point x="509" y="515" type="curve" smooth="yes"/>
      <point x="472" y="485"/>
      <point x="430" y="451"/>
    </contour>
    <contour>
      <point x="332" y="176" type="curve"/>
      <point x="354" y="147"/>
      <point x="379" y="114"/>
      <point x="401" y="84" type="curve" smooth="yes"/>
      <point x="403" y="82"/>
      <point x="405" y="81"/>
      <point x="407" y="81" type="curve" smooth="yes"/>
      <point x="409" y="81"/>
      <point x="411" y="82"/>
      <point x="413" y="84" type="curve" smooth="yes"/>
      <point x="440" y="105"/>
      <point x="468" y="128"/>
      <point x="489" y="144" type="curve"/>
      <point x="468" y="173"/>
      <point x="441" y="208"/>
      <point x="420" y="237" type="curve" smooth="yes"/>
      <point x="417" y="241"/>
      <point x="413" y="241"/>
      <point x="408" y="237" type="curve" smooth="yes"/>
      <point x="384" y="217"/>
      <point x="354" y="194"/>
    </contour>
    <contour>
      <point x="220" y="176" type="curve"/>
      <point x="214" y="184"/>
      <point x="181" y="228"/>
      <point x="175" y="237" type="curve" smooth="yes"/>
      <point x="172" y="241"/>
      <point x="168" y="241"/>
      <point x="163" y="237" type="curve" smooth="yes"/>
      <point x="127" y="208"/>
      <point x="83" y="173"/>
      <point x="47" y="144" type="curve"/>
      <point x="63" y="124"/>
      <point x="77" y="105"/>
      <point x="93" y="84" type="curve" smooth="yes"/>
      <point x="94" y="82"/>
      <point x="96" y="81"/>
      <point x="98" y="81" type="curve" smooth="yes"/>
      <point x="100" y="81"/>
      <point x="102" y="82"/>
      <point x="105" y="84" type="curve" smooth="yes"/>
      <point x="142" y="114"/>
      <point x="184" y="147"/>
    </contour>
    <contour>
      <point x="285" y="208" type="curve"/>
      <point x="229" y="208"/>
      <point x="204" y="235"/>
      <point x="215" y="280" type="curve" smooth="yes"/>
      <point x="225" y="322" type="line" smooth="yes"/>
      <point x="237" y="367"/>
      <point x="276" y="393"/>
      <point x="331" y="393" type="curve" smooth="yes"/>
      <point x="367" y="393"/>
      <point x="384" y="391"/>
      <point x="407" y="384" type="curve"/>
      <point x="426" y="434"/>
      <point x="414" y="473"/>
      <point x="351" y="473" type="curve"/>
      <point x="247" y="473"/>
      <point x="166" y="417"/>
      <point x="144" y="328" type="curve" smooth="yes"/>
      <point x="130" y="274" type="line" smooth="yes"/>
      <point x="108" y="184"/>
      <point x="161" y="128"/>
      <point x="265" y="128" type="curve"/>
      <point x="274" y="128"/>
      <point x="286" y="177"/>
    </contour>
    <contour>
      <point x="331" y="393" type="curve"/>
      <point x="388" y="393"/>
      <point x="413" y="367"/>
      <point x="402" y="322" type="curve" smooth="yes"/>
      <point x="391" y="280" type="line" smooth="yes"/>
      <point x="380" y="235"/>
      <point x="340" y="208"/>
      <point x="285" y="208" type="curve" smooth="yes"/>
      <point x="249" y="208"/>
      <point x="233" y="210"/>
      <point x="209" y="217" type="curve"/>
      <point x="191" y="169"/>
      <point x="202" y="128"/>
      <point x="265" y="128" type="curve"/>
      <point x="370" y="128"/>
      <point x="450" y="184"/>
      <point x="473" y="274" type="curve" smooth="yes"/>
      <point x="486" y="328" type="line" smooth="yes"/>
      <point x="509" y="417"/>
      <point x="456" y="473"/>
      <point x="351" y="473" type="curve"/>
      <point x="339" y="473"/>
      <point x="329" y="427"/>
    </contour>
  </outline>
</glyph>
<glyph name="brokenbar" format="1">
  <advance width="300"/>
  <unicode hex="00A6"/>
  <outline>
    <contour>
      <point x="212" y="760" type="curve"/>
      <point x="204" y="727"/>
      <point x="196" y="694"/>
      <point x="187" y="661" type="curve" smooth="yes"/>
      <point x="117" y="380" type="line" smooth="yes"/>
      <point x="116" y="374"/>
      <point x="119" y="369"/>
      <point x="125" y="369" type="curve" smooth="yes"/>
      <point x="162" y="369"/>
      <point x="199" y="369"/>
      <point x="236" y="369" type="curve"/>
      <point x="331" y="749" type="line" smooth="yes"/>
      <point x="332" y="752"/>
      <point x="332" y="755"/>
      <point x="330" y="757" type="curve" smooth="yes"/>
      <point x="329" y="759"/>
      <point x="326" y="760"/>
      <point x="323" y="760" type="curve" smooth="yes"/>
      <point x="285" y="760"/>
      <point x="249" y="760"/>
    </contour>
    <contour>
      <point x="80" y="231" type="curve"/>
      <point x="-15" y="-149" type="line"/>
      <point x="-17" y="-155"/>
      <point x="-13" y="-160"/>
      <point x="-7" y="-160" type="curve" smooth="yes"/>
      <point x="30" y="-160"/>
      <point x="66" y="-160"/>
      <point x="104" y="-160" type="curve"/>
      <point x="199" y="220" type="line" smooth="yes"/>
      <point x="201" y="227"/>
      <point x="198" y="231"/>
      <point x="191" y="231" type="curve" smooth="yes"/>
      <point x="153" y="231"/>
      <point x="116" y="231"/>
    </contour>
  </outline>
</glyph>
<glyph name="dieresis" format="1">
  <advance width="600"/>
  <unicode hex="00A8"/>
  <outline>
    <contour>
      <point x="350" y="633" type="curve"/>
      <point x="380" y="753" type="line" smooth="yes"/>
      <point x="381" y="759"/>
      <point x="377" y="764"/>
      <point x="371" y="764" type="curve" smooth="yes"/>
      <point x="332" y="764"/>
      <point x="292" y="764"/>
      <point x="253" y="764" type="curve"/>
      <point x="223" y="644" type="line" smooth="yes"/>
      <point x="221" y="638"/>
      <point x="225" y="633"/>
      <point x="231" y="633" type="curve" smooth="yes"/>
      <point x="270" y="633"/>
      <point x="310" y="633"/>
    </contour>
    <contour>
      <point x="563" y="633" type="curve"/>
      <point x="593" y="753" type="line" smooth="yes"/>
      <point x="594" y="759"/>
      <point x="591" y="764"/>
      <point x="585" y="764" type="curve" smooth="yes"/>
      <point x="545" y="764"/>
      <point x="505" y="764"/>
      <point x="466" y="764" type="curve"/>
      <point x="436" y="644" type="line" smooth="yes"/>
      <point x="434" y="638"/>
      <point x="438" y="633"/>
      <point x="444" y="633" type="curve" smooth="yes"/>
      <point x="483" y="633"/>
      <point x="524" y="633"/>
    </contour>
  </outline>
</glyph>
<glyph name="copyright" format="1">
  <advance width="600"/>
  <unicode hex="00A9"/>
  <outline>
    <contour>
      <point x="412" y="715" type="curve" smooth="yes"/>
      <point x="242" y="715"/>
      <point x="104" y="616"/>
      <point x="57" y="432" type="curve" smooth="yes"/>
      <point x="17" y="271" type="line" smooth="yes"/>
      <point x="-29" y="84"/>
      <point x="54" y="-15"/>
      <point x="229" y="-15" type="curve" smooth="yes"/>
      <point x="233" y="-8"/>
      <point x="253" y="19"/>
      <point x="244" y="42" type="curve"/>
      <point x="103" y="42"/>
      <point x="40" y="123"/>
      <point x="73" y="255" type="curve" smooth="yes"/>
      <point x="121" y="446" type="line" smooth="yes"/>
      <point x="154" y="577"/>
      <point x="258" y="658"/>
      <point x="398" y="658" type="curve" smooth="yes"/>
      <point x="456" y="658"/>
      <point x="491" y="653"/>
      <point x="535" y="636" type="curve"/>
      <point x="565" y="676"/>
      <point x="511" y="715"/>
    </contour>
    <contour>
      <point x="229" y="-15" type="curve" smooth="yes"/>
      <point x="399" y="-15"/>
      <point x="538" y="84"/>
      <point x="584" y="268" type="curve" smooth="yes"/>
      <point x="624" y="429" type="line" smooth="yes"/>
      <point x="671" y="616"/>
      <point x="588" y="715"/>
      <point x="412" y="715" type="curve" smooth="yes"/>
      <point x="408" y="708"/>
      <point x="388" y="681"/>
      <point x="398" y="658" type="curve"/>
      <point x="538" y="658"/>
      <point x="601" y="577"/>
      <point x="568" y="445" type="curve" smooth="yes"/>
      <point x="520" y="254" type="line" smooth="yes"/>
      <point x="488" y="123"/>
      <point x="384" y="42"/>
      <point x="244" y="42" type="curve" smooth="yes"/>
      <point x="186" y="42"/>
      <point x="150" y="47"/>
      <point x="106" y="64" type="curve"/>
      <point x="77" y="24"/>
      <point x="130" y="-15"/>
    </contour>
    <contour>
      <point x="365" y="497" type="curve" smooth="yes"/>
      <point x="404" y="497"/>
      <point x="415" y="481"/>
      <point x="427" y="455" type="curve"/>
      <point x="472" y="496"/>
      <point x="479" y="504"/>
      <point x="481" y="511" type="curve" smooth="yes"/>
      <point x="482" y="516"/>
      <point x="482" y="518"/>
      <point x="479" y="522" type="curve" smooth="yes"/>
      <point x="462" y="549"/>
      <point x="431" y="566"/>
      <point x="383" y="566" type="curve" smooth="yes"/>
      <point x="295" y="566"/>
      <point x="231" y="516"/>
      <point x="209" y="428" type="curve" smooth="yes"/>
      <point x="170" y="273" type="line" smooth="yes"/>
      <point x="163" y="244"/>
      <point x="185" y="211"/>
      <point x="231" y="211" type="curve"/>
      <point x="237" y="234"/>
      <point x="241" y="251"/>
      <point x="247" y="276" type="curve" smooth="yes"/>
      <point x="285" y="429" type="line" smooth="yes"/>
      <point x="296" y="474"/>
      <point x="323" y="497"/>
    </contour>
    <contour>
      <point x="273" y="134" type="curve" smooth="yes"/>
      <point x="320" y="134"/>
      <point x="367" y="148"/>
      <point x="393" y="173" type="curve"/>
      <point x="398" y="178"/>
      <point x="399" y="179"/>
      <point x="401" y="187" type="curve" smooth="yes"/>
      <point x="406" y="208"/>
      <point x="411" y="228"/>
      <point x="417" y="253" type="curve"/>
      <point x="407" y="253" type="line"/>
      <point x="371" y="220"/>
      <point x="339" y="206"/>
      <point x="296" y="206" type="curve" smooth="yes"/>
      <point x="248" y="206"/>
      <point x="234" y="225"/>
      <point x="247" y="276" type="curve"/>
      <point x="187" y="287"/>
      <point x="172" y="280"/>
      <point x="170" y="273" type="curve" smooth="yes"/>
      <point x="149" y="187"/>
      <point x="179" y="134"/>
    </contour>
    <contour>
      <point x="459" y="422" type="curve"/>
      <point x="481" y="511" type="line" smooth="yes"/>
      <point x="483" y="519"/>
      <point x="468" y="522"/>
      <point x="413" y="522" type="curve"/>
      <point x="412" y="515"/>
      <point x="411" y="511"/>
      <point x="409" y="506" type="curve" smooth="yes"/>
      <point x="391" y="433" type="line" smooth="yes"/>
      <point x="389" y="426"/>
      <point x="392" y="422"/>
      <point x="399" y="422" type="curve" smooth="yes"/>
      <point x="420" y="422"/>
      <point x="436" y="422"/>
    </contour>
  </outline>
</glyph>
<glyph name="guillemotleft" format="1">
  <advance width="600"/>
  <unicode hex="00AB"/>
  <outline>
    <contour>
      <point x="390" y="522" type="line"/>
      <point x="356" y="522"/>
      <point x="331" y="522"/>
      <point x="304" y="522" type="curve" smooth="yes"/>
      <point x="292" y="522"/>
      <point x="287" y="521"/>
      <point x="276" y="512" type="curve" smooth="yes"/>
      <point x="239" y="482"/>
      <point x="131" y="391"/>
      <point x="52" y="325" type="curve"/>
      <point x="47" y="305" type="line"/>
      <point x="44" y="293"/>
      <point x="50" y="290"/>
      <point x="102" y="267" type="curve"/>
      <point x="192" y="343"/>
      <point x="262" y="401"/>
      <point x="386" y="504" type="curve"/>
    </contour>
    <contour>
      <point x="284" y="96" type="line"/>
      <point x="211" y="199"/>
      <point x="174" y="250"/>
      <point x="128" y="319" type="curve"/>
      <point x="60" y="319"/>
      <point x="50" y="318"/>
      <point x="48" y="309" type="curve"/>
      <point x="42" y="285" type="line" smooth="yes"/>
      <point x="40" y="277"/>
      <point x="40" y="273"/>
      <point x="47" y="263" type="curve" smooth="yes"/>
      <point x="61" y="242"/>
      <point x="158" y="105"/>
      <point x="168" y="90" type="curve"/>
      <point x="177" y="79"/>
      <point x="178" y="78"/>
      <point x="191" y="78" type="curve" smooth="yes"/>
      <point x="235" y="78"/>
      <point x="256" y="78"/>
      <point x="279" y="78" type="curve"/>
    </contour>
    <contour>
      <point x="620" y="522" type="line"/>
      <point x="586" y="522"/>
      <point x="561" y="522"/>
      <point x="534" y="522" type="curve" smooth="yes"/>
      <point x="522" y="522"/>
      <point x="517" y="521"/>
      <point x="506" y="512" type="curve" smooth="yes"/>
      <point x="469" y="482"/>
      <point x="361" y="391"/>
      <point x="282" y="325" type="curve"/>
      <point x="277" y="305" type="line"/>
      <point x="274" y="293"/>
      <point x="280" y="290"/>
      <point x="332" y="267" type="curve"/>
      <point x="422" y="343"/>
      <point x="492" y="401"/>
      <point x="616" y="504" type="curve"/>
    </contour>
    <contour>
      <point x="514" y="96" type="line"/>
      <point x="441" y="199"/>
      <point x="404" y="250"/>
      <point x="358" y="319" type="curve"/>
      <point x="290" y="319"/>
      <point x="280" y="318"/>
      <point x="278" y="309" type="curve"/>
      <point x="272" y="285" type="line" smooth="yes"/>
      <point x="270" y="277"/>
      <point x="270" y="273"/>
      <point x="277" y="263" type="curve" smooth="yes"/>
      <point x="291" y="242"/>
      <point x="388" y="105"/>
      <point x="398" y="90" type="curve"/>
      <point x="407" y="79"/>
      <point x="408" y="78"/>
      <point x="421" y="78" type="curve" smooth="yes"/>
      <point x="465" y="78"/>
      <point x="486" y="78"/>
      <point x="509" y="78" type="curve"/>
    </contour>
  </outline>
</glyph>
<glyph name="logicalnot" format="1">
  <advance width="600"/>
  <unicode hex="00AC"/>
  <outline>
    <contour>
      <point x="109" y="443" type="line"/>
      <point x="101" y="408"/>
      <point x="94" y="382"/>
      <point x="85" y="347" type="curve" smooth="yes"/>
      <point x="85" y="344"/>
      <point x="85" y="341"/>
      <point x="86" y="339" type="curve" smooth="yes"/>
      <point x="88" y="337"/>
      <point x="91" y="336"/>
      <point x="94" y="336" type="curve"/>
      <point x="552" y="336" type="line"/>
      <point x="576" y="432" type="line"/>
      <point x="577" y="438"/>
      <point x="573" y="443"/>
      <point x="567" y="443" type="curve"/>
    </contour>
    <contour>
      <point x="503" y="141" type="curve"/>
      <point x="564" y="386" type="line" smooth="yes"/>
      <point x="566" y="392"/>
      <point x="562" y="397"/>
      <point x="556" y="397" type="curve"/>
      <point x="451" y="397" type="line"/>
      <point x="390" y="152" type="line" smooth="yes"/>
      <point x="388" y="146"/>
      <point x="392" y="141"/>
      <point x="398" y="141" type="curve" smooth="yes"/>
      <point x="435" y="141"/>
      <point x="465" y="141"/>
    </contour>
  </outline>
</glyph>
